{
.appVersion = "1131";
copyright = "Copyright © 2018 by Cadson Demak Co.,Ltd.. All rights reserved.";
customParameters = (
{
name = vendorID;
value = CDK;
},
{
name = description;
value = "Copyright (c) 2018, Cadson Demak (info@cadsondemak.com)";
},
{
name = license;

glyphs = (
{
glyphname = A;
lastChange = "2018-05-14 12:08:01 +0000";
layers = (
{
anchors = (
{
name = bottom;
position = "{295, 0}";
},
{
name = ogonek;
position = "{559, 0}";
},
{
name = top;
position = "{295, 700}";
}
);
background = {
paths = (
{
closed = 1;
nodes = (
"60 0 LINE",
"284 662 LINE",
"286 662 LINE",
"509 0 LINE",
"549 0 LINE",
"312 700 LINE",
"258 700 LINE",
"20 0 LINE"
);
},
{
closed = 1;
nodes = (
"452 211 LINE",
"452 248 LINE",
"112 248 LINE",
"112 211 LINE"
);
}
);
};
layerId = "39D11A97-A6D9-4B52-A6F5-15D5E4373676";
paths = (
{
closed = 1;
nodes = (
"70 0 LINE",
"294 662 LINE",
"296 662 LINE",
"519 0 LINE",
"559 0 LINE",
"322 700 LINE",
"268 700 LINE",
"30 0 LINE"
);
},
{
closed = 1;
nodes = (
"462 211 LINE",
"462 248 LINE",
"122 248 LINE",
"122 211 LINE"
);
}
);
width = 589;
},
{
anchors = (
{
name = bottom;
position = "{323, 0}";
},
{
name = ogonek;
position = "{641, 0}";
},
{
name = top;
position = "{323, 700}";
}
);
background = {
paths = (
{
closed = 1;
nodes = (
"143 0 LINE",
"200 153 LINE",
"446 153 LINE",
"503 0 LINE",
"641 0 LINE",
"385 700 LINE",
"261 700 LINE",
"5 0 LINE"
);
},
{
closed = 1;
nodes = (
"321 531 LINE",
"323 531 LINE",
"417 267 LINE",
"232 267 LINE"
);
}
);
};
layerId = "D6105F7E-CAE1-4F7B-A52E-8AA6E6082DF8";
paths = (
{
closed = 1;
nodes = (
"143 0 LINE",
"200 153 LINE",
"446 153 LINE",
"503 0 LINE",
"641 0 LINE",
"385 700 LINE",
"261 700 LINE",
"5 0 LINE"
);
},
{
closed = 1;
nodes = (
"321 531 LINE",
"323 531 LINE",
"417 267 LINE",
"232 267 LINE"
);
}
);
width = 646;
},
{
anchors = (
{
name = bottom;
position = "{311, 0}";
},
{
name = ogonek;
position = "{600, 0}";
},
{
name = top;
position = "{311, 700}";
}
);
layerId = "3C986DA2-2E28-42A4-B05D-29F449A87569";
paths = (
{
closed = 1;
nodes = (
"99 0 LINE",
"164 189 LINE",
"456 189 LINE",
"521 0 LINE",
"600 0 LINE",
"351 700 LINE",
"269 700 LINE",
"20 0 LINE"
);
},
{
closed = 1;
nodes = (
"309 612 LINE",
"311 612 LINE",
"434 255 LINE",
"187 255 LINE"
);
}
);
width = 620;
}
);
leftKerningGroup = A;
note = A;
rightKerningGroup = A;
rightMetricsKey = "=|";
unicode = 0041;
},
{
glyphname = B;
lastChange = "2018-05-14 12:07:51 +0000";
layers = (
{
anchors = (
{
name = bottom;
position = "{320, 0}";
},
{
name = top;
position = "{320, 700}";
}
);
background = {
paths = (
{
closed = 1;
nodes = (
"468 0 LINE",
"559 91 LINE",
"559 285 LINE",
"476 368 LINE",
"528 420 LINE",
"528 617 LINE",
"445 700 LINE",
"80 700 LINE",
"80 0 LINE"
);
},
{
closed = 1;
nodes = (
"118 334 LINE",
"455 334 LINE",
"522 269 LINE",
"522 101 LINE",
"455 36 LINE",
"118 36 LINE"
);
},
{
closed = 1;
nodes = (
"118 664 LINE",
"432 664 LINE",
"491 607 LINE",
"491 428 LINE",
"433 370 LINE",
"118 370 LINE"
);
}
);
};
layerId = "39D11A97-A6D9-4B52-A6F5-15D5E4373676";
paths = (
{
closed = 1;
nodes = (
"478 0 LINE",
"569 91 LINE",
"569 285 LINE",
"486 368 LINE",
"538 420 LINE",
"538 617 LINE",
"455 700 LINE",
"90 700 LINE",
"90 0 LINE"
);
},
{
closed = 1;
nodes = (
"129 334 LINE",
"463 334 LINE",
"530 269 LINE",
"530 102 LINE",
"463 37 LINE",
"129 37 LINE"
);
},
{
closed = 1;
nodes = (
"129 663 LINE",
"440 663 LINE",
"499 606 LINE",
"499 429 LINE",
"441 371 LINE",
"129 371 LINE"
);
}
);
width = 629;
},
{
anchors = (
{
name = bottom;
position = "{340, 0}";
},
{
name = top;
position = "{340, 700}";
}
);
background = {
paths = (
{
closed = 1;
nodes = (
"537 0 LINE",
"650 114 LINE",
"650 291 LINE",
"579 363 LINE",
"619 404 LINE",
"619 594 LINE",
"514 700 LINE",
"80 700 LINE",
"80 0 LINE"
);
},
{
closed = 1;
nodes = (
"213 297 LINE",
"473 297 LINE",
"516 254 LINE",
"516 158 LINE",
"473 115 LINE",
"213 115 LINE"
);
},
{
closed = 1;
nodes = (
"213 585 LINE",
"450 585 LINE",
"485 550 LINE",
"485 443 LINE",
"449 407 LINE",
"213 407 LINE"
);
}
);
};
layerId = "D6105F7E-CAE1-4F7B-A52E-8AA6E6082DF8";
paths = (
{
closed = 1;
nodes = (
"526 0 LINE",
"635 110 LINE",
"635 291 LINE",
"564 363 LINE",
"604 404 LINE",
"604 599 LINE",
"504 700 LINE",
"65 700 LINE",
"65 0 LINE"
);
},
{
closed = 1;
nodes = (
"198 298 LINE",
"458 298 LINE",
"501 255 LINE",
"501 157 LINE",
"458 114 LINE",
"198 114 LINE"
);
},
{
closed = 1;
nodes = (
"198 586 LINE",
"435 586 LINE",
"470 551 LINE",
"470 443 LINE",
"434 407 LINE",
"198 407 LINE"
);
}
);
width = 670;
},
{
anchors = (
{
name = bottom;
position = "{328, 0}";
},
{
name = top;
position = "{328, 700}";
}
);
layerId = "3C986DA2-2E28-42A4-B05D-29F449A87569";
paths = (
{
closed = 1;
nodes = (
"496 0 LINE",
"596 100 LINE",
"596 287 LINE",
"517 366 LINE",
"565 414 LINE",
"565 608 LINE",
"473 700 LINE",
"80 700 LINE",
"80 0 LINE"
);
},
{
closed = 1;
nodes = (
"154 320 LINE",
"464 320 LINE",
"522 263 LINE",
"522 123 LINE",
"464 66 LINE",
"154 66 LINE"
);
},
{
closed = 1;
nodes = (
"154 634 LINE",
"441 634 LINE",
"491 585 LINE",
"491 434 LINE",
"441 384 LINE",
"154 384 LINE"
);
}
);
width = 646;
}
);
leftMetricsKey = H;
note = B;
unicode = 0042;
},
{
glyphname = C;
lastChange = "2018-05-14 12:07:51 +0000";
layers = (
{
anchors = (
{
name = bottom;
position = "{318, 0}";
},
{
name = top;
position = "{320, 700}";
}
);
background = {
paths = (
{
closed = 1;
nodes = (
"453 0 LINE",
"549 96 LINE",
"549 138 LINE",
"510 138 LINE",
"510 109 LINE",
"437 37 LINE",
"186 37 LINE",
"109 113 LINE",
"109 587 LINE",
"186 663 LINE",
"437 663 LINE",
"510 591 LINE",
"510 562 LINE",
"549 562 LINE",
"549 604 LINE",
"446 700 LINE",
"170 700 LINE",
"70 600 LINE",
"70 100 LINE",
"170 0 LINE"
);
}
);
};
layerId = "39D11A97-A6D9-4B52-A6F5-15D5E4373676";
paths = (
{
closed = 1;
nodes = (
"463 0 LINE",
"559 96 LINE",
"559 138 LINE",
"520 138 LINE",
"520 109 LINE",
"447 37 LINE",
"196 37 LINE",
"119 113 LINE",
"119 587 LINE",
"196 663 LINE",
"447 663 LINE",
"520 591 LINE",
"520 562 LINE",
"559 562 LINE",
"559 604 LINE",
"456 700 LINE",
"180 700 LINE",
"80 600 LINE",
"80 100 LINE",
"180 0 LINE"
);
}
);
width = 614;
},
{
anchors = (
{
name = bottom;
position = "{339, 0}";
},
{
name = top;
position = "{342, 700}";
}
);
background = {
paths = (
{
closed = 1;
nodes = (
"529 0 LINE",
"640 111 LINE",
"640 222 LINE",
"504 222 LINE",
"504 167 LINE",
"455 118 LINE",
"257 118 LINE",
"206 169 LINE",
"206 533 LINE",
"257 584 LINE",
"455 584 LINE",
"504 535 LINE",
"504 478 LINE",
"640 478 LINE",
"640 579 LINE",
"519 700 LINE",
"185 700 LINE",
"70 585 LINE",
"70 115 LINE",
"185 0 LINE"
);
}
);
};
layerId = "D6105F7E-CAE1-4F7B-A52E-8AA6E6082DF8";
paths = (
{
closed = 1;
nodes = (
"512 0 LINE",
"625 113 LINE",
"625 220 LINE",
"489 220 LINE",
"489 163 LINE",
"442 116 LINE",
"242 116 LINE",
"191 167 LINE",
"191 533 LINE",
"242 584 LINE",
"442 584 LINE",
"489 536 LINE",
"489 480 LINE",
"625 480 LINE",
"625 587 LINE",
"512 700 LINE",
"170 700 LINE",
"55 585 LINE",
"55 115 LINE",
"170 0 LINE"
);
}
);
width = 655;
},
{
anchors = (
{
name = bottom;
position = "{322, 0}";
},
{
name = top;
position = "{330, 700}";
}
);
layerId = "3C986DA2-2E28-42A4-B05D-29F449A87569";
paths = (
{
closed = 1;
nodes = (
"480 0 LINE",
"586 106 LINE",
"586 170 LINE",
"510 170 LINE",
"510 131 LINE",
"446 68 LINE",
"214 68 LINE",
"146 135 LINE",
"146 565 LINE",
"214 632 LINE",
"446 632 LINE",
"510 569 LINE",
"510 530 LINE",
"586 530 LINE",
"586 594 LINE",
"473 700 LINE",
"180 700 LINE",
"70 590 LINE",
"70 110 LINE",
"180 0 LINE"
);
}
);
width = 631;
}
);
leftKerningGroup = O;
leftMetricsKey = O;
note = C;
rightKerningGroup = C;
unicode = 0043;
},
{
glyphname = D;
lastChange = "2018-05-14 12:08:07 +0000";
layers = (
{
anchors = (
{
name = bottom;
position = "{318, 0}";
},
{
name = center;
position = "{318, 350}";
},
{
name = top;
position = "{318, 700}";
}
);
background = {
paths = (
{
closed = 1;
nodes = (
"457 0 LINE",
"557 100 LINE",
"557 600 LINE",
"457 700 LINE",
"80 700 LINE",
"80 0 LINE"
);
},
{
closed = 1;
nodes = (
"119 664 LINE",
"440 664 LINE",
"518 587 LINE",
"518 113 LINE",
"440 36 LINE",
"119 36 LINE"
);
}
);
};
layerId = "39D11A97-A6D9-4B52-A6F5-15D5E4373676";
paths = (
{
closed = 1;
nodes = (
"467 0 LINE",
"567 100 LINE",
"567 600 LINE",
"467 700 LINE",
"90 700 LINE",
"90 0 LINE"
);
},
{
closed = 1;
nodes = (
"129 663 LINE",
"451 663 LINE",
"528 586 LINE",
"528 114 LINE",
"451 37 LINE",
"129 37 LINE"
);
}
);
width = 647;
},
{
anchors = (
{
name = bottom;
position = "{338, 0}";
},
{
name = center;
position = "{338, 350}";
},
{
name = top;
position = "{338, 700}";
}
);
background = {
paths = (
{
closed = 1;
nodes = (
"513 0 LINE",
"633 120 LINE",
"633 580 LINE",
"513 700 LINE",
"65 700 LINE",
"65 0 LINE"
);
},
{
closed = 1;
nodes = (
"201 584 LINE",
"446 584 LINE",
"497 533 LINE",
"497 167 LINE",
"446 116 LINE",
"201 116 LINE"
);
}
);
};
layerId = "D6105F7E-CAE1-4F7B-A52E-8AA6E6082DF8";
paths = (
{
closed = 1;
nodes = (
"513 0 LINE",
"633 120 LINE",
"633 580 LINE",
"513 700 LINE",
"65 700 LINE",
"65 0 LINE"
);
},
{
closed = 1;
nodes = (
"201 584 LINE",
"446 584 LINE",
"497 533 LINE",
"497 167 LINE",
"446 116 LINE",
"201 116 LINE"
);
}
);
width = 688;
},
{
anchors = (
{
name = bottom;
position = "{326, 0}";
},
{
name = center;
position = "{326, 350}";
},
{
name = top;
position = "{326, 700}";
}
);
layerId = "3C986DA2-2E28-42A4-B05D-29F449A87569";
paths = (
{
closed = 1;
nodes = (
"484 0 LINE",
"594 110 LINE",
"594 590 LINE",
"484 700 LINE",
"80 700 LINE",
"80 0 LINE"
);
},
{
closed = 1;
nodes = (
"156 632 LINE",
"450 632 LINE",
"518 565 LINE",
"518 135 LINE",
"450 68 LINE",
"156 68 LINE"
);
}
);
width = 664;
}
);
leftKerningGroup = D;
leftMetricsKey = H;
note = D;
rightKerningGroup = O;
unicode = 0044;
},
{
glyphname = E;
lastChange = "2018-05-14 12:07:51 +0000";
layers = (
{
anchors = (
{
name = bottom;
position = "{303, 0}";
},
{
name = ogonek;
position = "{505, 0}";
},
{
name = top;
position = "{301, 700}";
},
{
name = topleft;
position = "{12, 700}";
}
);
background = {
paths = (
{
closed = 1;
nodes = (
"495 0 LINE",
"495 37 LINE",
"119 37 LINE",
"119 333 LINE",
"466 333 LINE",
"466 370 LINE",
"119 370 LINE",
"119 663 LINE",
"495 663 LINE",
"495 700 LINE",
"80 700 LINE",
"80 0 LINE"
);
}
);
};
layerId = "39D11A97-A6D9-4B52-A6F5-15D5E4373676";
paths = (
{
closed = 1;
nodes = (
"505 0 LINE",
"505 37 LINE",
"129 37 LINE",
"129 333 LINE",
"476 333 LINE",
"476 370 LINE",
"129 370 LINE",
"129 663 LINE",
"505 663 LINE",
"505 700 LINE",
"90 700 LINE",
"90 0 LINE"
);
}
);
width = 565;
},
{
anchors = (
{
name = bottom;
position = "{328, 0}";
},
{
name = ogonek;
position = "{571, 0}";
},
{
name = top;
position = "{324, 700}";
},
{
name = topleft;
position = "{37, 700}";
}
);
background = {
paths = (
{
closed = 1;
nodes = (
"586 0 LINE",
"586 115 LINE",
"216 115 LINE",
"216 295 LINE",
"557 295 LINE",
"557 408 LINE",
"216 408 LINE",
"216 585 LINE",
"586 585 LINE",
"586 700 LINE",
"80 700 LINE",
"80 0 LINE"
);
}
);
};
layerId = "D6105F7E-CAE1-4F7B-A52E-8AA6E6082DF8";
paths = (
{
closed = 1;
nodes = (
"571 0 LINE",
"571 115 LINE",
"201 115 LINE",
"201 295 LINE",
"542 295 LINE",
"542 408 LINE",
"201 408 LINE",
"201 585 LINE",
"571 585 LINE",
"571 700 LINE",
"65 700 LINE",
"65 0 LINE"
);
}
);
width = 606;
},
{
anchors = (
{
name = bottom;
position = "{316, 0}";
},
{
name = ogonek;
position = "{532, 0}";
},
{
name = top;
position = "{312, 700}";
},
{
name = topleft;
position = "{20, 700}";
}
);
layerId = "3C986DA2-2E28-42A4-B05D-29F449A87569";
paths = (
{
closed = 1;
nodes = (
"532 0 LINE",
"532 68 LINE",
"156 68 LINE",
"156 318 LINE",
"503 318 LINE",
"503 386 LINE",
"156 386 LINE",
"156 632 LINE",
"532 632 LINE",
"532 700 LINE",
"80 700 LINE",
"80 0 LINE"
);
}
);
width = 582;
}
);
leftKerningGroup = E;
leftMetricsKey = H;
note = E;
rightKerningGroup = E;
unicode = 0045;
},
{
glyphname = F;
lastChange = "2018-05-14 14:25:10 +0000";
layers = (
{
anchors = (
{
name = bottom;
position = "{287, 0}";
},
{
name = top;
position = "{287, 700}";
}
);
background = {
paths = (
{
closed = 1;
nodes = (
"119 0 LINE",
"119 335 LINE",
"456 335 LINE",
"456 372 LINE",
"119 372 LINE",
"119 663 LINE",
"485 663 LINE",
"485 700 LINE",
"80 700 LINE",
"80 0 LINE"
);
}
);
};
layerId = "39D11A97-A6D9-4B52-A6F5-15D5E4373676";
paths = (
{
closed = 1;
nodes = (
"129 0 LINE",
"129 335 LINE",
"466 335 LINE",
"466 372 LINE",
"129 372 LINE",
"129 663 LINE",
"495 663 LINE",
"495 700 LINE",
"90 700 LINE",
"90 0 LINE"
);
}
);
width = 540;
},
{
anchors = (
{
name = bottom;
position = "{307, 0}";
},
{
name = top;
position = "{307, 700}";
}
);
background = {
paths = (
{
closed = 1;
nodes = (
"201 0 LINE",
"201 276 LINE",
"532 276 LINE",
"532 391 LINE",
"201 391 LINE",
"201 585 LINE",
"561 585 LINE",
"561 700 LINE",
"65 700 LINE",
"65 0 LINE"
);
}
);
};
layerId = "D6105F7E-CAE1-4F7B-A52E-8AA6E6082DF8";
paths = (
{
closed = 1;
nodes = (
"201 0 LINE",
"201 276 LINE",
"532 276 LINE",
"532 391 LINE",
"201 391 LINE",
"201 585 LINE",
"561 585 LINE",
"561 700 LINE",
"65 700 LINE",
"65 0 LINE"
);
}
);
width = 581;
},
{
anchors = (
{
name = bottom;
position = "{295, 0}";
},
{
name = top;
position = "{295, 700}";
}
);
layerId = "3C986DA2-2E28-42A4-B05D-29F449A87569";
paths = (
{
closed = 1;
nodes = (
"156 0 LINE",
"156 312 LINE",
"493 312 LINE",
"493 380 LINE",
"156 380 LINE",
"156 632 LINE",
"522 632 LINE",
"522 700 LINE",
"80 700 LINE",
"80 0 LINE"
);
}
);
width = 557;
}
);
note = F;
unicode = 0046;
},
{
glyphname = G;
lastChange = "2018-05-14 12:07:51 +0000";
layers = (
{
anchors = (
{
name = bottom;
position = "{324, 0}";
},
{
name = top;
position = "{323, 700}";
}
);
background = {
paths = (
{
closed = 1;
nodes = (
"459 0 LINE",
"555 96 LINE",
"555 350 LINE",
"352 350 LINE",
"352 313 LINE",
"516 313 LINE",
"516 111 LINE",
"441 37 LINE",
"186 37 LINE",
"109 113 LINE",
"109 587 LINE",
"186 663 LINE",
"443 663 LINE",
"516 591 LINE",
"516 562 LINE",
"555 562 LINE",
"555 604 LINE",
"459 700 LINE",
"170 700 LINE",
"70 600 LINE",
"70 100 LINE",
"170 0 LINE"
);
}
);
};
layerId = "39D11A97-A6D9-4B52-A6F5-15D5E4373676";
paths = (
{
closed = 1;
nodes = (
"469 0 LINE",
"565 96 LINE",
"565 350 LINE",
"362 350 LINE",
"362 313 LINE",
"526 313 LINE",
"526 111 LINE",
"451 37 LINE",
"196 37 LINE",
"119 113 LINE",
"119 587 LINE",
"196 663 LINE",
"453 663 LINE",
"526 591 LINE",
"526 562 LINE",
"565 562 LINE",
"565 604 LINE",
"469 700 LINE",
"180 700 LINE",
"80 600 LINE",
"80 100 LINE",
"180 0 LINE"
);
}
);
width = 635;
},
{
anchors = (
{
name = bottom;
position = "{344, 0}";
},
{
name = top;
position = "{342, 700}";
}
);
background = {
paths = (
{
closed = 1;
nodes = (
"525 0 LINE",
"646 122 LINE",
"646 390 LINE",
"364 390 LINE",
"364 274 LINE",
"514 274 LINE",
"514 167 LINE",
"465 118 LINE",
"259 118 LINE",
"206 171 LINE",
"206 529 LINE",
"259 582 LINE",
"461 582 LINE",
"510 533 LINE",
"510 478 LINE",
"646 478 LINE",
"646 578 LINE",
"525 700 LINE",
"195 700 LINE",
"70 574 LINE",
"70 126 LINE",
"195 0 LINE"
);
}
);
};
layerId = "D6105F7E-CAE1-4F7B-A52E-8AA6E6082DF8";
paths = (
{
closed = 1;
nodes = (
"518 0 LINE",
"631 113 LINE",
"631 390 LINE",
"349 390 LINE",
"349 274 LINE",
"499 274 LINE",
"499 163 LINE",
"452 116 LINE",
"242 116 LINE",
"191 167 LINE",
"191 533 LINE",
"242 584 LINE",
"448 584 LINE",
"495 536 LINE",
"495 480 LINE",
"631 480 LINE",
"631 587 LINE",
"518 700 LINE",
"170 700 LINE",
"55 585 LINE",
"55 115 LINE",
"170 0 LINE"
);
}
);
width = 676;
},
{
anchors = (
{
name = bottom;
position = "{332, 0}";
},
{
name = top;
position = "{330, 700}";
}
);
layerId = "3C986DA2-2E28-42A4-B05D-29F449A87569";
paths = (
{
closed = 1;
nodes = (
"486 0 LINE",
"592 106 LINE",
"592 365 LINE",
"358 365 LINE",
"358 297 LINE",
"516 297 LINE",
"516 131 LINE",
"452 68 LINE",
"214 68 LINE",
"146 135 LINE",
"146 565 LINE",
"214 632 LINE",
"452 632 LINE",
"516 569 LINE",
"516 530 LINE",
"592 530 LINE",
"592 594 LINE",
"486 700 LINE",
"180 700 LINE",
"70 590 LINE",
"70 110 LINE",
"180 0 LINE"
);
}
);
width = 652;
}
);
leftKerningGroup = O;
leftMetricsKey = O;
note = G;
rightKerningGroup = G;
unicode = 0047;
},
{
glyphname = H;
lastChange = "2018-05-14 12:07:51 +0000";
layers = (
{
anchors = (
{
name = bottom;
position = "{331, 0}";
},
{
name = center;
position = "{329, 350}";
},
{
name = top;
position = "{329, 700}";
},
{
name = topleft;
position = "{21, 700}";
}
);
background = {
paths = (
{
closed = 1;
nodes = (
"109 0 LINE",
"109 330 LINE",
"508 330 LINE",
"508 0 LINE",
"547 0 LINE",
"547 700 LINE",
"508 700 LINE",
"508 368 LINE",
"109 368 LINE",
"109 700 LINE",
"70 700 LINE",
"70 0 LINE"
);
}
);
};
layerId = "39D11A97-A6D9-4B52-A6F5-15D5E4373676";
paths = (
{
closed = 1;
nodes = (
"129 0 LINE",
"129 330 LINE",
"528 330 LINE",
"528 0 LINE",
"567 0 LINE",
"567 700 LINE",
"528 700 LINE",
"528 367 LINE",
"129 367 LINE",
"129 700 LINE",
"90 700 LINE",
"90 0 LINE"
);
}
);
width = 657;
},
{
anchors = (
{
name = bottom;
position = "{351, 0}";
},
{
name = center;
position = "{349, 349}";
},
{
name = top;
position = "{349, 700}";
},
{
name = topleft;
position = "{21, 700}";
}
);
background = {
paths = (
{
closed = 1;
nodes = (
"216 0 LINE",
"216 290 LINE",
"512 290 LINE",
"512 0 LINE",
"648 0 LINE",
"648 700 LINE",
"512 700 LINE",
"512 408 LINE",
"216 408 LINE",
"216 700 LINE",
"80 700 LINE",
"80 0 LINE"
);
}
);
};
layerId = "D6105F7E-CAE1-4F7B-A52E-8AA6E6082DF8";
paths = (
{
closed = 1;
nodes = (
"201 0 LINE",
"201 291 LINE",
"497 291 LINE",
"497 0 LINE",
"633 0 LINE",
"633 700 LINE",
"497 700 LINE",
"497 407 LINE",
"201 407 LINE",
"201 700 LINE",
"65 700 LINE",
"65 0 LINE"
);
}
);
width = 698;
},
{
anchors = (
{
name = bottom;
position = "{338, 0}";
},
{
name = center;
position = "{336, 350}";
},
{
name = top;
position = "{336, 700}";
},
{
name = topleft;
position = "{20, 700}";
}
);
layerId = "3C986DA2-2E28-42A4-B05D-29F449A87569";
paths = (
{
closed = 1;
nodes = (
"156 0 LINE",
"156 315 LINE",
"518 315 LINE",
"518 0 LINE",
"594 0 LINE",
"594 700 LINE",
"518 700 LINE",
"518 383 LINE",
"156 383 LINE",
"156 700 LINE",
"80 700 LINE",
"80 0 LINE"
);
}
);
width = 674;
}
);
note = H;
rightMetricsKey = "=|";
unicode = 0048;
},
{
glyphname = I;
lastChange = "2018-05-14 12:07:51 +0000";
layers = (
{
anchors = (
{
name = bottom;
position = "{115, 0}";
},
{
name = ogonek;
position = "{134, 0}";
},
{
name = top;
position = "{115, 700}";
},
{
name = topleft;
position = "{7, 700}";
}
);
layerId = "39D11A97-A6D9-4B52-A6F5-15D5E4373676";
paths = (
{
closed = 1;
nodes = (
"134 0 LINE",
"134 700 LINE",
"95 700 LINE",
"95 0 LINE"
);
}
);
width = 229;
},
{
anchors = (
{
name = bottom;
position = "{138, 0}";
},
{
name = ogonek;
position = "{206, 0}";
},
{
name = top;
position = "{138, 700}";
},
{
name = topleft;
position = "{38, 700}";
}
);
layerId = "D6105F7E-CAE1-4F7B-A52E-8AA6E6082DF8";
paths = (
{
closed = 1;
nodes = (
"206 0 LINE",
"206 700 LINE",
"70 700 LINE",
"70 0 LINE"
);
}
);
width = 276;
},
{
anchors = (
{
name = bottom;
position = "{123, 0}";
},
{
name = ogonek;
position = "{161, 0}";
},
{
name = top;
position = "{123, 700}";
},
{
name = topleft;
position = "{15, 700}";
}
);
layerId = "3C986DA2-2E28-42A4-B05D-29F449A87569";
paths = (
{
closed = 1;
nodes = (
"161 0 LINE",
"161 700 LINE",
"85 700 LINE",
"85 0 LINE"
);
}
);
width = 246;
}
);
note = I;
rightMetricsKey = "=|";
unicode = 0049;
},
{
glyphname = J;
lastChange = "2018-05-14 12:07:51 +0000";
layers = (
{
anchors = (
{
name = bottom;
position = "{269, 0}";
},
{
name = top;
position = "{434, 700}";
}
);
background = {
paths = (
{
closed = 1;
nodes = (
"344 0 LINE",
"434 90 LINE",
"434 700 LINE",
"395 700 LINE",
"395 102 LINE",
"329 37 LINE",
"141 37 LINE",
"63 114 LINE",
"63 177 LINE",
"25 177 LINE",
"25 100 LINE",
"125 0 LINE"
);
}
);
};
layerId = "39D11A97-A6D9-4B52-A6F5-15D5E4373676";
paths = (
{
closed = 1;
nodes = (
"364 0 LINE",
"454 90 LINE",
"454 700 LINE",
"415 700 LINE",
"415 102 LINE",
"349 37 LINE",
"161 37 LINE",
"83 114 LINE",
"83 177 LINE",
"45 177 LINE",
"45 100 LINE",
"145 0 LINE"
);
}
);
width = 539;
},
{
anchors = (
{
name = bottom;
position = "{289, 0}";
},
{
name = top;
position = "{450, 700}";
}
);
background = {
paths = (
{
closed = 1;
nodes = (
"418 0 LINE",
"535 117 LINE",
"535 700 LINE",
"399 700 LINE",
"399 163 LINE",
"351 116 LINE",
"218 116 LINE",
"167 167 LINE",
"167 251 LINE",
"35 251 LINE",
"35 121 LINE",
"155 0 LINE"
);
}
);
};
layerId = "D6105F7E-CAE1-4F7B-A52E-8AA6E6082DF8";
paths = (
{
closed = 1;
nodes = (
"403 0 LINE",
"520 117 LINE",
"520 700 LINE",
"384 700 LINE",
"384 163 LINE",
"336 116 LINE",
"203 116 LINE",
"152 167 LINE",
"152 251 LINE",
"20 251 LINE",
"20 121 LINE",
"140 0 LINE"
);
}
);
width = 580;
},
{
anchors = (
{
name = bottom;
position = "{277, 0}";
},
{
name = top;
position = "{442, 700}";
}
);
layerId = "3C986DA2-2E28-42A4-B05D-29F449A87569";
paths = (
{
closed = 1;
nodes = (
"381 0 LINE",
"481 100 LINE",
"481 700 LINE",
"405 700 LINE",
"405 124 LINE",
"348 68 LINE",
"178 68 LINE",
"109 136 LINE",
"109 209 LINE",
"35 209 LINE",
"35 110 LINE",
"145 0 LINE"
);
}
);
width = 556;
}
);
leftKerningGroup = J;
note = J;
rightKerningGroup = J;
unicode = 004A;
},
{
glyphname = K;
lastChange = "2018-05-14 12:07:51 +0000";
layers = (
{
anchors = (
{
name = bottom;
position = "{302, 0}";
},
{
name = top;
position = "{311, 700}";
}
);
layerId = "39D11A97-A6D9-4B52-A6F5-15D5E4373676";
paths = (
{
closed = 1;
nodes = (
"129 0 LINE",
"129 331 LINE",
"324 331 LINE",
"517 0 LINE",
"558 0 LINE",
"357 351 LINE",
"544 700 LINE",
"503 700 LINE",
"324 368 LINE",
"129 368 LINE",
"129 700 LINE",
"90 700 LINE",
"90 0 LINE"
);
}
);
width = 588;
},
{
anchors = (
{
name = bottom;
position = "{335, 0}";
},
{
name = top;
position = "{331, 700}";
}
);
background = {
paths = (
{
closed = 1;
nodes = (
"216 0 LINE",
"216 291 LINE",
"323 291 LINE",
"507 0 LINE",
"661 0 LINE",
"439 351 LINE",
"644 700 LINE",
"492 700 LINE",
"323 407 LINE",
"216 407 LINE",
"216 700 LINE",
"80 700 LINE",
"80 0 LINE"
);
}
);
};
layerId = "D6105F7E-CAE1-4F7B-A52E-8AA6E6082DF8";
paths = (
{
closed = 1;
nodes = (
"201 0 LINE",
"201 291 LINE",
"306 291 LINE",
"490 0 LINE",
"646 0 LINE",
"424 351 LINE",
"629 700 LINE",
"476 700 LINE",
"307 407 LINE",
"201 407 LINE",
"201 700 LINE",
"65 700 LINE",
"65 0 LINE"
);
}
);
width = 651;
},
{
anchors = (
{
name = bottom;
position = "{318, 0}";
},
{
name = top;
position = "{319, 700}";
}
);
layerId = "3C986DA2-2E28-42A4-B05D-29F449A87569";
paths = (
{
closed = 1;
nodes = (
"156 0 LINE",
"156 315 LINE",
"319 315 LINE",
"513 0 LINE",
"597 0 LINE",
"383 351 LINE",
"582 700 LINE",
"500 700 LINE",
"318 383 LINE",
"156 383 LINE",
"156 700 LINE",
"80 700 LINE",
"80 0 LINE"
);
}
);
width = 617;
}
);
leftMetricsKey = "=H";
note = K;
rightKerningGroup = K;
unicode = 004B;
},
{
glyphname = L;
lastChange = "2018-05-14 12:07:51 +0000";
layers = (
{
anchors = (
{
name = bottom;
position = "{288, 0}";
},
{
name = center;
position = "{272, 350}";
},
{
name = top;
position = "{110, 700}";
},
{
name = topright;
position = "{523, 700}";
}
);
background = {
paths = (
{
closed = 1;
nodes = (
"475 0 LINE",
"475 37 LINE",
"119 37 LINE",
"119 700 LINE",
"80 700 LINE",
"80 0 LINE"
);
}
);
};
layerId = "39D11A97-A6D9-4B52-A6F5-15D5E4373676";
paths = (
{
closed = 1;
nodes = (
"485 0 LINE",
"485 37 LINE",
"129 37 LINE",
"129 700 LINE",
"90 700 LINE",
"90 0 LINE"
);
}
);
width = 520;
},
{
anchors = (
{
name = bottom;
position = "{309, 0}";
},
{
name = center;
position = "{268, 350}";
},
{
name = top;
position = "{133, 700}";
},
{
name = topright;
position = "{515, 700}";
}
);
background = {
paths = (
{
closed = 1;
nodes = (
"566 0 LINE",
"566 118 LINE",
"216 118 LINE",
"216 700 LINE",
"80 700 LINE",
"80 0 LINE"
);
}
);
};
layerId = "D6105F7E-CAE1-4F7B-A52E-8AA6E6082DF8";
paths = (
{
closed = 1;
nodes = (
"551 0 LINE",
"551 115 LINE",
"201 115 LINE",
"201 700 LINE",
"65 700 LINE",
"65 0 LINE"
);
}
);
width = 561;
},
{
anchors = (
{
name = bottom;
position = "{300, 0}";
},
{
name = center;
position = "{271, 350}";
},
{
name = top;
position = "{119, 700}";
},
{
name = topright;
position = "{522, 700}";
}
);
layerId = "3C986DA2-2E28-42A4-B05D-29F449A87569";
paths = (
{
closed = 1;
nodes = (
"512 0 LINE",
"512 68 LINE",
"156 68 LINE",
"156 700 LINE",
"80 700 LINE",
"80 0 LINE"
);
}
);
width = 537;
}
);
note = L;
rightKerningGroup = L;
unicode = 004C;
},
{
glyphname = M;
lastChange = "2018-05-14 12:07:51 +0000";
layers = (
{
anchors = (
{
name = bottom;
position = "{380, 0}";
},
{
name = top;
position = "{380, 700}";
}
);
background = {
paths = (
{
closed = 1;
nodes = (
"117 0 LINE",
"117 631 LINE",
"119 631 LINE",
"349 59 LINE",
"390 59 LINE",
"621 631 LINE",
"623 631 LINE",
"623 0 LINE",
"660 0 LINE",
"660 700 LINE",
"606 700 LINE",
"371 103 LINE",
"369 103 LINE",
"133 700 LINE",
"80 700 LINE",
"80 0 LINE"
);
}
);
};
layerId = "39D11A97-A6D9-4B52-A6F5-15D5E4373676";
paths = (
{
closed = 1;
nodes = (
"127 0 LINE",
"127 631 LINE",
"129 631 LINE",
"361 59 LINE",
"399 59 LINE",
"631 631 LINE",
"633 631 LINE",
"633 0 LINE",
"670 0 LINE",
"670 700 LINE",
"618 700 LINE",
"381 104 LINE",
"379 104 LINE",
"142 700 LINE",
"90 700 LINE",
"90 0 LINE"
);
}
);
width = 760;
},
{
anchors = (
{
name = bottom;
position = "{400, 0}";
},
{
name = top;
position = "{400, 700}";
}
);
background = {
paths = (
{
closed = 1;
nodes = (
"197 -26 LINE",
"197 527 LINE",
"148 527 LINE",
"352 44 LINE",
"454 44 LINE",
"659 527 LINE",
"610 527 LINE",
"610 -26 LINE",
"742 -26 LINE",
"742 726 LINE",
"608 726 LINE",
"383 184 LINE",
"423 184 LINE",
"198 726 LINE",
"65 726 LINE",
"65 -26 LINE"
);
}
);
};
layerId = "D6105F7E-CAE1-4F7B-A52E-8AA6E6082DF8";
paths = (
{
closed = 1;
nodes = (
"196 0 LINE",
"196 426 LINE",
"198 426 LINE",
"358 98 LINE",
"442 98 LINE",
"603 426 LINE",
"605 426 LINE",
"605 0 LINE",
"736 0 LINE",
"736 700 LINE",
"610 700 LINE",
"401 248 LINE",
"399 248 LINE",
"191 700 LINE",
"65 700 LINE",
"65 0 LINE"
);
}
);
width = 801;
},
{
anchors = (
{
name = bottom;
position = "{388, 0}";
},
{
name = top;
position = "{388, 700}";
}
);
layerId = "3C986DA2-2E28-42A4-B05D-29F449A87569";
paths = (
{
closed = 1;
nodes = (
"152 0 LINE",
"152 553 LINE",
"154 553 LINE",
"358 70 LINE",
"418 70 LINE",
"623 553 LINE",
"625 553 LINE",
"625 0 LINE",
"697 0 LINE",
"697 700 LINE",
"614 700 LINE",
"389 158 LINE",
"387 158 LINE",
"162 700 LINE",
"80 700 LINE",
"80 0 LINE"
);
}
);
width = 777;
}
);
note = M;
rightMetricsKey = "=|";
unicode = 004D;
},
{
glyphname = N;
lastChange = "2018-05-14 12:07:51 +0000";
layers = (
{
anchors = (
{
name = bottom;
position = "{328, 0}";
},
{
name = top;
position = "{328, 700}";
}
);
background = {
paths = (
{
closed = 1;
nodes = (
"117 0 LINE",
"117 635 LINE",
"119 635 LINE",
"515 0 LINE",
"556 0 LINE",
"556 700 LINE",
"519 700 LINE",
"519 65 LINE",
"517 65 LINE",
"121 700 LINE",
"80 700 LINE",
"80 0 LINE"
);
}
);
};
layerId = "39D11A97-A6D9-4B52-A6F5-15D5E4373676";
paths = (
{
closed = 1;
nodes = (
"127 0 LINE",
"127 635 LINE",
"129 635 LINE",
"525 0 LINE",
"566 0 LINE",
"566 700 LINE",
"529 700 LINE",
"529 65 LINE",
"527 65 LINE",
"131 700 LINE",
"90 700 LINE",
"90 0 LINE"
);
}
);
width = 656;
},
{
anchors = (
{
name = bottom;
position = "{349, 0}";
},
{
name = top;
position = "{349, 700}";
}
);
background = {
paths = (
{
closed = 1;
nodes = (
"211 0 LINE",
"211 474 LINE",
"213 474 LINE",
"525 0 LINE",
"647 0 LINE",
"647 700 LINE",
"516 700 LINE",
"516 225 LINE",
"514 225 LINE",
"202 700 LINE",
"80 700 LINE",
"80 0 LINE"
);
}
);
};
layerId = "D6105F7E-CAE1-4F7B-A52E-8AA6E6082DF8";
paths = (
{
closed = 1;
nodes = (
"196 0 LINE",
"196 474 LINE",
"198 474 LINE",
"510 0 LINE",
"632 0 LINE",
"632 700 LINE",
"501 700 LINE",
"501 225 LINE",
"499 225 LINE",
"187 700 LINE",
"65 700 LINE",
"65 0 LINE"
);
}
);
width = 697;
},
{
anchors = (
{
name = bottom;
position = "{336, 0}";
},
{
name = top;
position = "{336, 700}";
}
);
layerId = "3C986DA2-2E28-42A4-B05D-29F449A87569";
paths = (
{
closed = 1;
nodes = (
"152 0 LINE",
"152 576 LINE",
"154 576 LINE",
"519 0 LINE",
"593 0 LINE",
"593 700 LINE",
"521 700 LINE",
"521 124 LINE",
"519 124 LINE",
"154 700 LINE",
"80 700 LINE",
"80 0 LINE"
);
}
);
width = 673;
}
);
note = N;
rightMetricsKey = "=|";
unicode = 004E;
},
{
glyphname = O;
lastChange = "2018-05-14 12:23:21 +0000";
layers = (
{
anchors = (
{
name = bottom;
position = "{330, 0}";
},
{
name = center;
position = "{330, 350}";
},
{
name = ogonek;
position = "{606, 10}";
},
{
name = top;
position = "{330, 700}";
},
{
name = topleft;
position = "{7, 700}";
},
{
name = topright;
position = "{600, 518}";
}
);
background = {
paths = (
{
closed = 1;
nodes = (
"469 0 LINE",
"569 100 LINE",
"569 600 LINE",
"469 700 LINE",
"170 700 LINE",
"70 600 LINE",
"70 100 LINE",
"170 0 LINE"
);
},
{
closed = 1;
nodes = (
"109 113 LINE",
"109 587 LINE",
"186 663 LINE",
"453 663 LINE",
"530 587 LINE",
"530 113 LINE",
"453 37 LINE",
"186 37 LINE"
);
}
);
};
layerId = "39D11A97-A6D9-4B52-A6F5-15D5E4373676";
paths = (
{
closed = 1;
nodes = (
"479 0 LINE",
"579 100 LINE",
"579 600 LINE",
"479 700 LINE",
"180 700 LINE",
"80 600 LINE",
"80 100 LINE",
"180 0 LINE"
);
},
{
closed = 1;
nodes = (
"119 113 LINE",
"119 587 LINE",
"196 663 LINE",
"463 663 LINE",
"540 587 LINE",
"540 113 LINE",
"463 37 LINE",
"196 37 LINE"
);
}
);
width = 659;
},
{
anchors = (
{
name = bottom;
position = "{350, 0}";
},
{
name = center;
position = "{350, 350}";
},
{
name = ogonek;
position = "{622, 10}";
},
{
name = top;
position = "{350, 700}";
},
{
name = topleft;
position = "{31, 700}";
},
{
name = topright;
position = "{621, 518}";
}
);
background = {
paths = (
{
closed = 1;
nodes = (
"545 0 LINE",
"660 115 LINE",
"660 585 LINE",
"545 700 LINE",
"185 700 LINE",
"70 585 LINE",
"70 115 LINE",
"185 0 LINE"
);
},
{
closed = 1;
nodes = (
"206 167 LINE",
"206 533 LINE",
"257 584 LINE",
"473 584 LINE",
"524 533 LINE",
"524 167 LINE",
"473 116 LINE",
"257 116 LINE"
);
}
);
};
layerId = "D6105F7E-CAE1-4F7B-A52E-8AA6E6082DF8";
paths = (
{
closed = 1;
nodes = (
"530 0 LINE",
"645 115 LINE",
"645 585 LINE",
"530 700 LINE",
"170 700 LINE",
"55 585 LINE",
"55 115 LINE",
"170 0 LINE"
);
},
{
closed = 1;
nodes = (
"191 167 LINE",
"191 533 LINE",
"242 584 LINE",
"458 584 LINE",
"509 533 LINE",
"509 167 LINE",
"458 116 LINE",
"242 116 LINE"
);
}
);
width = 700;
},
{
anchors = (
{
name = bottom;
position = "{339, 0}";
},
{
name = center;
position = "{339, 350}";
},
{
name = ogonek;
position = "{614, 10}";
},
{
name = top;
position = "{339, 700}";
},
{
name = topleft;
position = "{15, 700}";
},
{
name = topright;
position = "{608, 518}";
}
);
layerId = "3C986DA2-2E28-42A4-B05D-29F449A87569";
paths = (
{
closed = 1;
nodes = (
"496 0 LINE",
"606 110 LINE",
"606 590 LINE",
"496 700 LINE",
"180 700 LINE",
"70 590 LINE",
"70 110 LINE",
"180 0 LINE"
);
},
{
closed = 1;
nodes = (
"146 135 LINE",
"146 565 LINE",
"214 632 LINE",
"462 632 LINE",
"530 565 LINE",
"530 135 LINE",
"462 68 LINE",
"214 68 LINE"
);
}
);
width = 676;
}
);
leftKerningGroup = O;
note = O;
rightKerningGroup = O;
rightMetricsKey = "=|";
unicode = 004F;
},
{
glyphname = P;
lastChange = "2018-05-14 12:07:51 +0000";
layers = (
{
anchors = (
{
name = bottom;
position = "{303, 0}";
},
{
name = top;
position = "{303, 700}";
}
);
background = {
paths = (
{
closed = 1;
nodes = (
"119 0 LINE",
"119 322 LINE",
"452 322 LINE",
"535 405 LINE",
"535 618 LINE",
"453 700 LINE",
"80 700 LINE",
"80 0 LINE"
);
},
{
closed = 1;
nodes = (
"119 663 LINE",
"437 663 LINE",
"496 605 LINE",
"496 417 LINE",
"437 359 LINE",
"119 359 LINE"
);
}
);
};
layerId = "39D11A97-A6D9-4B52-A6F5-15D5E4373676";
paths = (
{
closed = 1;
nodes = (
"129 0 LINE",
"129 322 LINE",
"462 322 LINE",
"545 405 LINE",
"545 618 LINE",
"463 700 LINE",
"90 700 LINE",
"90 0 LINE"
);
},
{
closed = 1;
nodes = (
"129 663 LINE",
"447 663 LINE",
"506 605 LINE",
"506 417 LINE",
"447 359 LINE",
"129 359 LINE"
);
}
);
width = 605;
},
{
anchors = (
{
name = bottom;
position = "{323, 0}";
},
{
name = top;
position = "{323, 700}";
}
);
background = {
paths = (
{
closed = 1;
nodes = (
"216 0 LINE",
"216 238 LINE",
"518 238 LINE",
"626 347 LINE",
"626 592 LINE",
"519 700 LINE",
"80 700 LINE",
"80 0 LINE"
);
},
{
closed = 1;
nodes = (
"216 584 LINE",
"457 584 LINE",
"492 549 LINE",
"492 389 LINE",
"457 354 LINE",
"216 354 LINE"
);
}
);
};
layerId = "D6105F7E-CAE1-4F7B-A52E-8AA6E6082DF8";
paths = (
{
closed = 1;
nodes = (
"201 0 LINE",
"201 238 LINE",
"503 238 LINE",
"611 347 LINE",
"611 592 LINE",
"504 700 LINE",
"65 700 LINE",
"65 0 LINE"
);
},
{
closed = 1;
nodes = (
"201 586 LINE",
"442 586 LINE",
"477 551 LINE",
"477 387 LINE",
"442 352 LINE",
"201 352 LINE"
);
}
);
width = 646;
},
{
anchors = (
{
name = bottom;
position = "{311, 0}";
},
{
name = top;
position = "{311, 700}";
}
);
layerId = "3C986DA2-2E28-42A4-B05D-29F449A87569";
paths = (
{
closed = 1;
nodes = (
"156 0 LINE",
"156 290 LINE",
"479 290 LINE",
"572 383 LINE",
"572 608 LINE",
"480 700 LINE",
"80 700 LINE",
"80 0 LINE"
);
},
{
closed = 1;
nodes = (
"156 634 LINE",
"448 634 LINE",
"498 585 LINE",
"498 405 LINE",
"448 356 LINE",
"156 356 LINE"
);
}
);
width = 622;
}
);
note = P;
unicode = 0050;
},
{
glyphname = Q;
lastChange = "2018-05-14 12:11:39 +0000";
layers = (
{
anchors = (
{
name = bottom;
position = "{324, 0}";
},
{
name = top;
position = "{324, 700}";
}
);
background = {
paths = (
{
closed = 1;
nodes = (
"576 -65 LINE",
"483 27 LINE",
"458 0 LINE",
"551 -91 LINE"
);
}
);
};
components = (
{
locked = 1;
name = O;
}
);
layerId = "39D11A97-A6D9-4B52-A6F5-15D5E4373676";
paths = (
{
closed = 1;
nodes = (
"581 -71 LINE",
"483 27 LINE",
"458 0 LINE",
"556 -97 LINE"
);
}
);
width = 659;
},
{
anchors = (
{
name = bottom;
position = "{353, 0}";
},
{
name = top;
position = "{353, 700}";
}
);
background = {
paths = (
{
closed = 1;
nodes = (
"670 -56 LINE",
"514 100 LINE",
"446 0 LINE",
"585 -141 LINE"
);
}
);
};
components = (
{
locked = 1;
name = O;
}
);
layerId = "D6105F7E-CAE1-4F7B-A52E-8AA6E6082DF8";
paths = (
{
closed = 1;
nodes = (
"666 -54 LINE",
"514 100 LINE",
"441 0 LINE",
"582 -138 LINE"
);
}
);
width = 700;
},
{
anchors = (
{
name = bottom;
position = "{344, 0}";
},
{
name = top;
position = "{344, 700}";
}
);
background = {
paths = (
{
closed = 1;
nodes = (
"628 -58 LINE",
"515 54 LINE",
"478 0 LINE",
"582 -104 LINE"
);
}
);
};
components = (
{
locked = 1;
name = O;
}
);
layerId = "3C986DA2-2E28-42A4-B05D-29F449A87569";
paths = (
{
closed = 1;
nodes = (
"630 -60 LINE",
"515 54 LINE",
"478 0 LINE",
"584 -106 LINE"
);
}
);
width = 676;
}
);
leftKerningGroup = O;
leftMetricsKey = O;
widthMetricsKey = O;
note = Q;
rightKerningGroup = O;
unicode = 0051;
},
{
glyphname = R;
lastChange = "2018-05-14 12:07:51 +0000";
layers = (
{
anchors = (
{
name = bottom;
position = "{314, 0}";
},
{
name = top;
position = "{311, 700}";
}
);
background = {
paths = (
{
closed = 1;
nodes = (
"119 0 LINE",
"119 312 LINE",
"452 312 LINE",
"535 395 LINE",
"535 618 LINE",
"453 700 LINE",
"80 700 LINE",
"80 0 LINE"
);
},
{
closed = 1;
nodes = (
"539 0 LINE",
"539 233 LINE",
"452 328 LINE",
"412 318 LINE",
"500 223 LINE",
"500 0 LINE"
);
},
{
closed = 1;
nodes = (
"119 663 LINE",
"437 663 LINE",
"496 605 LINE",
"496 407 LINE",
"437 349 LINE",
"119 349 LINE"
);
}
);
};
layerId = "39D11A97-A6D9-4B52-A6F5-15D5E4373676";
paths = (
{
closed = 1;
nodes = (
"129 0 LINE",
"129 312 LINE",
"462 312 LINE",
"545 395 LINE",
"545 618 LINE",
"463 700 LINE",
"90 700 LINE",
"90 0 LINE"
);
},
{
closed = 1;
nodes = (
"549 0 LINE",
"549 233 LINE",
"462 328 LINE",
"422 318 LINE",
"510 223 LINE",
"510 0 LINE"
);
},
{
closed = 1;
nodes = (
"129 663 LINE",
"447 663 LINE",
"506 605 LINE",
"506 407 LINE",
"447 349 LINE",
"129 349 LINE"
);
}
);
width = 634;
},
{
anchors = (
{
name = bottom;
position = "{339, 0}";
},
{
name = top;
position = "{329, 700}";
}
);
background = {
paths = (
{
closed = 1;
nodes = (
"216 0 LINE",
"216 268 LINE",
"515 268 LINE",
"626 380 LINE",
"626 592 LINE",
"519 700 LINE",
"80 700 LINE",
"80 0 LINE"
);
},
{
closed = 1;
nodes = (
"630 0 LINE",
"630 232 LINE",
"490 385 LINE",
"387 320 LINE",
"494 201 LINE",
"494 0 LINE"
);
},
{
closed = 1;
nodes = (
"216 584 LINE",
"457 584 LINE",
"492 549 LINE",
"492 417 LINE",
"457 382 LINE",
"216 382 LINE"
);
}
);
};
layerId = "D6105F7E-CAE1-4F7B-A52E-8AA6E6082DF8";
paths = (
{
closed = 1;
nodes = (
"201 0 LINE",
"201 268 LINE",
"500 268 LINE",
"611 380 LINE",
"611 592 LINE",
"504 700 LINE",
"65 700 LINE",
"65 0 LINE"
);
},
{
closed = 1;
nodes = (
"615 0 LINE",
"615 232 LINE",
"475 385 LINE",
"372 320 LINE",
"479 201 LINE",
"479 0 LINE"
);
},
{
closed = 1;
nodes = (
"201 586 LINE",
"442 586 LINE",
"477 551 LINE",
"477 415 LINE",
"442 380 LINE",
"201 380 LINE"
);
}
);
width = 675;
},
{
anchors = (
{
name = bottom;
position = "{328, 0}";
},
{
name = top;
position = "{314, 700}";
}
);
layerId = "3C986DA2-2E28-42A4-B05D-29F449A87569";
paths = (
{
closed = 1;
nodes = (
"156 0 LINE",
"156 294 LINE",
"479 294 LINE",
"572 387 LINE",
"572 608 LINE",
"480 700 LINE",
"80 700 LINE",
"80 0 LINE"
);
},
{
closed = 1;
nodes = (
"576 0 LINE",
"576 214 LINE",
"450 350 LINE",
"386 314 LINE",
"500 190 LINE",
"500 0 LINE"
);
},
{
closed = 1;
nodes = (
"156 634 LINE",
"448 634 LINE",
"498 585 LINE",
"498 409 LINE",
"448 360 LINE",
"156 360 LINE"
);
}
);
width = 651;
}
);
note = R;
rightKerningGroup = R;
unicode = 0052;
},
{
glyphname = S;
lastChange = "2018-05-14 12:07:51 +0000";
layers = (
{
anchors = (
{
name = bottom;
position = "{301, 0}";
},
{
name = top;
position = "{297, 700}";
}
);
background = {
paths = (
{
closed = 1;
nodes = (
"432 0 LINE",
"516 84 LINE",
"516 296 LINE",
"434 378 LINE",
"164 378 LINE",
"104 437 LINE",
"104 604 LINE",
"164 663 LINE",
"411 663 LINE",
"471 604 LINE",
"471 575 LINE",
"508 575 LINE",
"508 618 LINE",
"426 700 LINE",
"149 700 LINE",
"67 618 LINE",
"67 423 LINE",
"149 341 LINE",
"419 341 LINE",
"479 282 LINE",
"479 99 LINE",
"420 37 LINE",
"162 37 LINE",
"105 96 LINE",
"105 124 LINE",
"65 124 LINE",
"65 82 LINE",
"147 0 LINE"
);
}
);
};
layerId = "39D11A97-A6D9-4B52-A6F5-15D5E4373676";
paths = (
{
closed = 1;
nodes = (
"442 0 LINE",
"526 84 LINE",
"526 296 LINE",
"444 378 LINE",
"176 378 LINE",
"116 437 LINE",
"116 604 LINE",
"176 663 LINE",
"419 663 LINE",
"479 604 LINE",
"479 575 LINE",
"518 575 LINE",
"518 618 LINE",
"436 700 LINE",
"159 700 LINE",
"77 618 LINE",
"77 423 LINE",
"159 341 LINE",
"427 341 LINE",
"487 282 LINE",
"487 98 LINE",
"427 37 LINE",
"175 37 LINE",
"115 96 LINE",
"115 124 LINE",
"75 124 LINE",
"75 82 LINE",
"157 0 LINE"
);
}
);
width = 596;
},
{
anchors = (
{
name = bottom;
position = "{327, 0}";
},
{
name = top;
position = "{318, 700}";
}
);
background = {
paths = (
{
closed = 1;
nodes = (
"497 0 LINE",
"607 110 LINE",
"607 307 LINE",
"499 415 LINE",
"234 415 LINE",
"201 448 LINE",
"201 551 LINE",
"234 584 LINE",
"432 584 LINE",
"465 551 LINE",
"465 491 LINE",
"599 491 LINE",
"599 592 LINE",
"491 700 LINE",
"175 700 LINE",
"67 592 LINE",
"67 407 LINE",
"175 299 LINE",
"440 299 LINE",
"473 266 LINE",
"473 150 LINE",
"439 116 LINE",
"232 116 LINE",
"199 149 LINE",
"199 208 LINE",
"65 208 LINE",
"65 108 LINE",
"173 0 LINE"
);
}
);
};
layerId = "D6105F7E-CAE1-4F7B-A52E-8AA6E6082DF8";
paths = (
{
closed = 1;
nodes = (
"482 0 LINE",
"592 110 LINE",
"592 307 LINE",
"484 415 LINE",
"219 415 LINE",
"186 448 LINE",
"186 551 LINE",
"219 584 LINE",
"417 584 LINE",
"450 551 LINE",
"450 491 LINE",
"584 491 LINE",
"584 592 LINE",
"476 700 LINE",
"160 700 LINE",
"52 592 LINE",
"52 407 LINE",
"160 299 LINE",
"425 299 LINE",
"458 266 LINE",
"458 150 LINE",
"424 116 LINE",
"217 116 LINE",
"184 149 LINE",
"184 208 LINE",
"50 208 LINE",
"50 108 LINE",
"158 0 LINE"
);
}
);
width = 637;
},
{
anchors = (
{
name = bottom;
position = "{314, 0}";
},
{
name = top;
position = "{305, 700}";
}
);
layerId = "3C986DA2-2E28-42A4-B05D-29F449A87569";
paths = (
{
closed = 1;
nodes = (
"459 0 LINE",
"553 94 LINE",
"553 301 LINE",
"461 393 LINE",
"191 393 LINE",
"141 442 LINE",
"141 583 LINE",
"191 632 LINE",
"421 632 LINE",
"471 583 LINE",
"471 543 LINE",
"545 543 LINE",
"545 608 LINE",
"453 700 LINE",
"159 700 LINE",
"67 608 LINE",
"67 417 LINE",
"159 325 LINE",
"429 325 LINE",
"479 276 LINE",
"479 119 LINE",
"429 68 LINE",
"189 68 LINE",
"141 117 LINE",
"141 156 LINE",
"65 156 LINE",
"65 92 LINE",
"157 0 LINE"
);
}
);
width = 613;
}
);
leftKerningGroup = S;
note = S;
rightKerningGroup = S;
unicode = 0053;
},
{
glyphname = T;
lastChange = "2018-05-14 12:07:51 +0000";
layers = (
{
anchors = (
{
name = bottom;
position = "{272, 0}";
},
{
name = center;
position = "{281, 350}";
},
{
name = top;
position = "{272, 700}";
}
);
background = {
paths = (
{
closed = 1;
nodes = (
"281 0 LINE",
"281 663 LINE",
"493 663 LINE",
"493 700 LINE",
"30 700 LINE",
"30 663 LINE",
"242 663 LINE",
"242 0 LINE"
);
}
);
};
layerId = "39D11A97-A6D9-4B52-A6F5-15D5E4373676";
paths = (
{
closed = 1;
nodes = (
"291 0 LINE",
"291 663 LINE",
"503 663 LINE",
"503 700 LINE",
"40 700 LINE",
"40 663 LINE",
"252 663 LINE",
"252 0 LINE"
);
}
);
width = 543;
},
{
anchors = (
{
name = bottom;
position = "{292, 0}";
},
{
name = center;
position = "{292, 350}";
},
{
name = top;
position = "{292, 700}";
}
);
background = {
paths = (
{
closed = 1;
nodes = (
"375 0 LINE",
"375 582 LINE",
"584 582 LINE",
"584 700 LINE",
"30 700 LINE",
"30 582 LINE",
"239 582 LINE",
"239 0 LINE"
);
}
);
};
layerId = "D6105F7E-CAE1-4F7B-A52E-8AA6E6082DF8";
paths = (
{
closed = 1;
nodes = (
"360 0 LINE",
"360 585 LINE",
"569 585 LINE",
"569 700 LINE",
"15 700 LINE",
"15 585 LINE",
"224 585 LINE",
"224 0 LINE"
);
}
);
width = 584;
},
{
anchors = (
{
name = bottom;
position = "{280, 0}";
},
{
name = center;
position = "{280, 350}";
},
{
name = top;
position = "{280, 700}";
}
);
layerId = "3C986DA2-2E28-42A4-B05D-29F449A87569";
paths = (
{
closed = 1;
nodes = (
"318 0 LINE",
"318 632 LINE",
"530 632 LINE",
"530 700 LINE",
"30 700 LINE",
"30 632 LINE",
"242 632 LINE",
"242 0 LINE"
);
}
);
width = 560;
}
);
leftKerningGroup = T;
note = T;
rightKerningGroup = T;
rightMetricsKey = "=|";
unicode = 0054;
},
{
glyphname = U;
lastChange = "2018-05-14 12:23:56 +0000";
layers = (
{
anchors = (
{
name = bottom;
position = "{331, 0}";
},
{
name = ogonek;
position = "{469, 0}";
},
{
name = top;
position = "{330, 700}";
},
{
name = topright;
position = "{607, 518}";
}
);
background = {
paths = (
{
closed = 1;
nodes = (
"460 0 LINE",
"570 110 LINE",
"570 700 LINE",
"494 700 LINE",
"494 134 LINE",
"426 68 LINE",
"200 68 LINE",
"132 134 LINE",
"132 700 LINE",
"56 700 LINE",
"56 110 LINE",
"166 0 LINE"
);
}
);
};
layerId = "39D11A97-A6D9-4B52-A6F5-15D5E4373676";
paths = (
{
closed = 1;
nodes = (
"469 0 LINE",
"569 100 LINE",
"569 700 LINE",
"530 700 LINE",
"530 113 LINE",
"453 37 LINE",
"206 37 LINE",
"129 113 LINE",
"129 700 LINE",
"90 700 LINE",
"90 100 LINE",
"190 0 LINE"
);
}
);
width = 659;
},
{
anchors = (
{
name = bottom;
position = "{352, 0}";
},
{
name = ogonek;
position = "{515, 0}";
},
{
name = top;
position = "{350, 700}";
},
{
name = topright;
position = "{635, 518}";
}
);
background = {
paths = (
{
closed = 1;
nodes = (
"530 0 LINE",
"650 120 LINE",
"650 700 LINE",
"514 700 LINE",
"514 167 LINE",
"463 116 LINE",
"267 116 LINE",
"216 167 LINE",
"216 700 LINE",
"80 700 LINE",
"80 120 LINE",
"200 0 LINE"
);
}
);
};
layerId = "D6105F7E-CAE1-4F7B-A52E-8AA6E6082DF8";
paths = (
{
closed = 1;
nodes = (
"515 0 LINE",
"635 120 LINE",
"635 700 LINE",
"499 700 LINE",
"499 167 LINE",
"448 116 LINE",
"252 116 LINE",
"201 167 LINE",
"201 700 LINE",
"65 700 LINE",
"65 120 LINE",
"185 0 LINE"
);
}
);
width = 700;
},
{
anchors = (
{
name = bottom;
position = "{340, 0}";
},
{
name = ogonek;
position = "{486, 0}";
},
{
name = top;
position = "{338, 700}";
},
{
name = topright;
position = "{628, 518}";
}
);
layerId = "3C986DA2-2E28-42A4-B05D-29F449A87569";
paths = (
{
closed = 1;
nodes = (
"486 0 LINE",
"596 110 LINE",
"596 700 LINE",
"520 700 LINE",
"520 135 LINE",
"452 68 LINE",
"224 68 LINE",
"156 135 LINE",
"156 700 LINE",
"80 700 LINE",
"80 110 LINE",
"190 0 LINE"
);
}
);
width = 676;
}
);
leftKerningGroup = U;
note = U;
rightKerningGroup = U;
rightMetricsKey = "=|";
unicode = 0055;
},
{
glyphname = V;
lastChange = "2018-05-14 12:07:51 +0000";
layers = (
{
anchors = (
{
name = bottom;
position = "{298, 0}";
},
{
name = top;
position = "{298, 700}";
}
);
background = {
paths = (
{
closed = 1;
nodes = (
"316 0 LINE",
"550 700 LINE",
"510 700 LINE",
"289 40 LINE",
"287 40 LINE",
"65 700 LINE",
"25 700 LINE",
"260 0 LINE"
);
}
);
};
layerId = "39D11A97-A6D9-4B52-A6F5-15D5E4373676";
paths = (
{
closed = 1;
nodes = (
"324 0 LINE",
"560 700 LINE",
"520 700 LINE",
"299 37 LINE",
"297 37 LINE",
"75 700 LINE",
"35 700 LINE",
"272 0 LINE"
);
}
);
width = 595;
},
{
anchors = (
{
name = bottom;
position = "{325, 0}";
},
{
name = top;
position = "{325, 700}";
}
);
background = {
paths = (
{
closed = 1;
nodes = (
"402 0 LINE",
"654 700 LINE",
"512 700 LINE",
"341 173 LINE",
"339 173 LINE",
"168 700 LINE",
"26 700 LINE",
"278 0 LINE"
);
}
);
};
layerId = "D6105F7E-CAE1-4F7B-A52E-8AA6E6082DF8";
paths = (
{
closed = 1;
nodes = (
"387 0 LINE",
"640 700 LINE",
"500 700 LINE",
"326 173 LINE",
"324 173 LINE",
"150 700 LINE",
"10 700 LINE",
"263 0 LINE"
);
}
);
width = 650;
},
{
anchors = (
{
name = bottom;
position = "{313, 0}";
},
{
name = top;
position = "{313, 700}";
}
);
layerId = "3C986DA2-2E28-42A4-B05D-29F449A87569";
paths = (
{
closed = 1;
nodes = (
"354 0 LINE",
"601 700 LINE",
"522 700 LINE",
"314 91 LINE",
"312 91 LINE",
"104 700 LINE",
"25 700 LINE",
"272 0 LINE"
);
}
);
width = 626;
}
);
note = V;
rightMetricsKey = "=|";
unicode = 0056;
},
{
glyphname = W;
lastChange = "2018-05-14 12:07:51 +0000";
layers = (
{
anchors = (
{
name = bottom;
position = "{420, 0}";
},
{
name = top;
position = "{420, 700}";
}
);
background = {
paths = (
{
closed = 1;
nodes = (
"226 0 LINE",
"409 583 LINE",
"411 583 LINE",
"593 0 LINE",
"645 0 LINE",
"779 700 LINE",
"740 700 LINE",
"617 47 LINE",
"615 47 LINE",
"431 640 LINE",
"389 640 LINE",
"204 47 LINE",
"202 47 LINE",
"79 700 LINE",
"40 700 LINE",
"174 0 LINE"
);
}
);
};
layerId = "39D11A97-A6D9-4B52-A6F5-15D5E4373676";
paths = (
{
closed = 1;
nodes = (
"236 0 LINE",
"419 583 LINE",
"421 583 LINE",
"603 0 LINE",
"655 0 LINE",
"789 700 LINE",
"750 700 LINE",
"627 47 LINE",
"625 47 LINE",
"441 640 LINE",
"399 640 LINE",
"214 47 LINE",
"212 47 LINE",
"89 700 LINE",
"50 700 LINE",
"184 0 LINE"
);
}
);
width = 839;
},
{
anchors = (
{
name = bottom;
position = "{440, 0}";
},
{
name = top;
position = "{440, 700}";
}
);
background = {
paths = (
{
closed = 1;
nodes = (
"309 0 LINE",
"454 447 LINE",
"456 447 LINE",
"600 0 LINE",
"724 0 LINE",
"869 700 LINE",
"731 700 LINE",
"647 206 LINE",
"645 206 LINE",
"508 640 LINE",
"402 640 LINE",
"264 206 LINE",
"262 206 LINE",
"178 700 LINE",
"40 700 LINE",
"185 0 LINE"
);
}
);
};
layerId = "D6105F7E-CAE1-4F7B-A52E-8AA6E6082DF8";
paths = (
{
closed = 1;
nodes = (
"294 0 LINE",
"439 447 LINE",
"441 447 LINE",
"585 0 LINE",
"709 0 LINE",
"854 700 LINE",
"716 700 LINE",
"632 208 LINE",
"630 208 LINE",
"493 640 LINE",
"387 640 LINE",
"249 208 LINE",
"247 208 LINE",
"163 700 LINE",
"25 700 LINE",
"170 0 LINE"
);
}
);
width = 879;
},
{
anchors = (
{
name = bottom;
position = "{432, 0}";
},
{
name = top;
position = "{432, 700}";
}
);
layerId = "3C986DA2-2E28-42A4-B05D-29F449A87569";
paths = (
{
closed = 1;
nodes = (
"263 0 LINE",
"431 537 LINE",
"433 537 LINE",
"600 0 LINE",
"682 0 LINE",
"823 700 LINE",
"746 700 LINE",
"636 96 LINE",
"634 96 LINE",
"466 640 LINE",
"398 640 LINE",
"231 106 LINE",
"229 106 LINE",
"117 700 LINE",
"40 700 LINE",
"181 0 LINE"
);
}
);
width = 863;
}
);
leftKerningGroup = W;
note = W;
rightKerningGroup = W;
rightMetricsKey = "=|";
unicode = 0057;
},
{
glyphname = X;
lastChange = "2018-05-14 12:07:51 +0000";
layers = (
{
anchors = (
{
name = bottom;
position = "{280, 0}";
},
{
name = top;
position = "{280, 700}";
}
);
background = {
paths = (
{
closed = 1;
nodes = (
"520 0 LINE",
"71 700 LINE",
"30 700 LINE",
"479 0 LINE"
);
},
{
closed = 1;
nodes = (
"61 0 LINE",
"510 700 LINE",
"469 700 LINE",
"20 0 LINE"
);
}
);
};
layerId = "39D11A97-A6D9-4B52-A6F5-15D5E4373676";
paths = (
{
closed = 1;
nodes = (
"71 0 LINE",
"279 325 LINE",
"489 0 LINE",
"530 0 LINE",
"300 357 LINE",
"520 700 LINE",
"479 700 LINE",
"281 391 LINE",
"81 700 LINE",
"40 700 LINE",
"261 359 LINE",
"30 0 LINE"
);
}
);
width = 560;
},
{
anchors = (
{
name = bottom;
position = "{326, 0}";
},
{
name = top;
position = "{326, 700}";
}
);
background = {
paths = (
{
closed = 1;
nodes = (
"173 0 LINE",
"341 247 LINE",
"509 0 LINE",
"662 0 LINE",
"418 355 LINE",
"652 700 LINE",
"499 700 LINE",
"341 470 LINE",
"183 700 LINE",
"30 700 LINE",
"264 361 LINE",
"20 0 LINE"
);
}
);
};
layerId = "D6105F7E-CAE1-4F7B-A52E-8AA6E6082DF8";
paths = (
{
closed = 1;
nodes = (
"158 0 LINE",
"326 247 LINE",
"494 0 LINE",
"647 0 LINE",
"403 357 LINE",
"637 700 LINE",
"484 700 LINE",
"326 470 LINE",
"168 700 LINE",
"15 700 LINE",
"249 361 LINE",
"5 0 LINE"
);
}
);
width = 652;
},
{
anchors = (
{
name = bottom;
position = "{302, 0}";
},
{
name = top;
position = "{302, 700}";
}
);
layerId = "3C986DA2-2E28-42A4-B05D-29F449A87569";
paths = (
{
closed = 1;
nodes = (
"104 0 LINE",
"302 299 LINE",
"500 0 LINE",
"584 0 LINE",
"344 355 LINE",
"574 700 LINE",
"490 700 LINE",
"302 418 LINE",
"114 700 LINE",
"30 700 LINE",
"260 361 LINE",
"20 0 LINE"
);
}
);
width = 604;
}
);
note = X;
rightMetricsKey = "=|";
unicode = 0058;
},
{
glyphname = Y;
lastChange = "2018-05-14 12:07:51 +0000";
layers = (
{
anchors = (
{
name = bottom;
position = "{275, 0}";
},
{
name = top;
position = "{275, 700}";
},
{
name = topleft;
position = "{-19, 700}";
}
);
background = {
paths = (
{
closed = 1;
nodes = (
"285 0 LINE",
"285 296 LINE",
"517 700 LINE",
"475 700 LINE",
"266 332 LINE",
"264 332 LINE",
"57 700 LINE",
"15 700 LINE",
"246 296 LINE",
"246 0 LINE"
);
}
);
};
layerId = "39D11A97-A6D9-4B52-A6F5-15D5E4373676";
paths = (
{
closed = 1;
nodes = (
"295 0 LINE",
"295 296 LINE",
"527 700 LINE",
"485 700 LINE",
"276 332 LINE",
"274 332 LINE",
"67 700 LINE",
"25 700 LINE",
"256 296 LINE",
"256 0 LINE"
);
}
);
width = 552;
},
{
anchors = (
{
name = bottom;
position = "{317, 0}";
},
{
name = top;
position = "{317, 700}";
},
{
name = topleft;
position = "{26, 700}";
}
);
background = {
paths = (
{
closed = 1;
nodes = (
"400 0 LINE",
"400 286 LINE",
"649 700 LINE",
"500 700 LINE",
"333 413 LINE",
"331 413 LINE",
"164 700 LINE",
"15 700 LINE",
"264 286 LINE",
"264 0 LINE"
);
}
);
};
layerId = "D6105F7E-CAE1-4F7B-A52E-8AA6E6082DF8";
paths = (
{
closed = 1;
nodes = (
"385 0 LINE",
"385 286 LINE",
"634 700 LINE",
"485 700 LINE",
"318 413 LINE",
"316 413 LINE",
"149 700 LINE",
"0 700 LINE",
"249 286 LINE",
"249 0 LINE"
);
}
);
width = 634;
},
{
anchors = (
{
name = bottom;
position = "{296, 0}";
},
{
name = top;
position = "{296, 700}";
},
{
name = topleft;
position = "{1, 700}";
}
);
layerId = "3C986DA2-2E28-42A4-B05D-29F449A87569";
paths = (
{
closed = 1;
nodes = (
"334 0 LINE",
"334 292 LINE",
"577 700 LINE",
"495 700 LINE",
"297 361 LINE",
"295 361 LINE",
"97 700 LINE",
"15 700 LINE",
"258 292 LINE",
"258 0 LINE"
);
}
);
width = 592;
}
);
leftKerningGroup = Y;
note = Y;
rightKerningGroup = Y;
rightMetricsKey = "=|";
unicode = 0059;
},
{
glyphname = Z;
lastChange = "2018-05-14 12:07:51 +0000";
layers = (
{
anchors = (
{
name = bottom;
position = "{284, 0}";
},
{
name = top;
position = "{281, 700}";
}
);
background = {
paths = (
{
closed = 1;
nodes = (
"481 0 LINE",
"481 35 LINE",
"90 35 LINE",
"90 37 LINE",
"481 655 LINE",
"481 700 LINE",
"60 700 LINE",
"60 665 LINE",
"441 665 LINE",
"441 663 LINE",
"50 45 LINE",
"50 0 LINE"
);
}
);
};
layerId = "39D11A97-A6D9-4B52-A6F5-15D5E4373676";
paths = (
{
closed = 1;
nodes = (
"491 0 LINE",
"491 35 LINE",
"100 35 LINE",
"100 37 LINE",
"491 655 LINE",
"491 700 LINE",
"70 700 LINE",
"70 665 LINE",
"451 665 LINE",
"451 663 LINE",
"60 45 LINE",
"60 0 LINE"
);
}
);
width = 551;
},
{
anchors = (
{
name = bottom;
position = "{297, 0}";
},
{
name = top;
position = "{301, 700}";
}
);
background = {
paths = (
{
closed = 1;
nodes = (
"572 0 LINE",
"572 114 LINE",
"213 114 LINE",
"213 116 LINE",
"572 592 LINE",
"572 700 LINE",
"60 700 LINE",
"60 586 LINE",
"409 586 LINE",
"409 584 LINE",
"50 108 LINE",
"50 0 LINE"
);
}
);
};
layerId = "D6105F7E-CAE1-4F7B-A52E-8AA6E6082DF8";
paths = (
{
closed = 1;
nodes = (
"557 0 LINE",
"557 114 LINE",
"198 114 LINE",
"198 116 LINE",
"557 592 LINE",
"557 700 LINE",
"45 700 LINE",
"45 586 LINE",
"394 586 LINE",
"394 584 LINE",
"35 108 LINE",
"35 0 LINE"
);
}
);
width = 592;
},
{
anchors = (
{
name = bottom;
position = "{285, 0}";
},
{
name = top;
position = "{289, 700}";
}
);
layerId = "3C986DA2-2E28-42A4-B05D-29F449A87569";
paths = (
{
closed = 1;
nodes = (
"518 0 LINE",
"518 65 LINE",
"131 65 LINE",
"131 67 LINE",
"518 625 LINE",
"518 700 LINE",
"60 700 LINE",
"60 635 LINE",
"437 635 LINE",
"437 633 LINE",
"50 75 LINE",
"50 0 LINE"
);
}
);
width = 568;
}
);
leftKerningGroup = Z;
note = Z;
rightKerningGroup = Z;
unicode = 005A;
},
{
glyphname = a;
lastChange = "2018-05-14 14:25:14 +0000";
layers = (
{
anchors = (
{
name = bottom;
position = "{266, 0}";
},
{
name = ogonek;
position = "{454, 0}";
},
{
name = top;
position = "{273, 498}";
}
);
background = {
paths = (
{
closed = 1;
nodes = (
"310 0 LINE",
"416 104 LINE",
"416 0 LINE",
"454 0 LINE",
"454 416 LINE",
"372 498 LINE",
"156 498 LINE",
"74 416 LINE",
"74 353 LINE",
"112 353 LINE",
"112 402 LINE",
"174 462 LINE",
"355 462 LINE",
"416 402 LINE",
"416 276 LINE",
"142 276 LINE",
"70 206 LINE",
"70 72 LINE",
"142 0 LINE"
);
},
{
closed = 1;
nodes = (
"108 83 LINE",
"108 194 LINE",
"156 240 LINE",
"416 240 LINE",
"416 153 LINE",
"298 36 LINE",
"156 36 LINE"
);
}
);
};
layerId = "39D11A97-A6D9-4B52-A6F5-15D5E4373676";
paths = (
{
closed = 1;
nodes = (
"308 0 LINE",
"416 106 LINE",
"416 0 LINE",
"454 0 LINE",
"454 416 LINE",
"372 498 LINE",
"156 498 LINE",
"74 416 LINE",
"74 353 LINE",
"112 353 LINE",
"112 402 LINE",
"174 462 LINE",
"355 462 LINE",
"416 402 LINE",
"416 276 LINE",
"142 276 LINE",
"70 206 LINE",
"70 72 LINE",
"142 0 LINE"
);
},
{
closed = 1;
nodes = (
"108 84 LINE",
"108 194 LINE",
"156 240 LINE",
"416 240 LINE",
"416 154 LINE",
"296 36 LINE",
"156 36 LINE"
);
}
);
width = 534;
},
{
anchors = (
{
name = bottom;
position = "{290, 0}";
},
{
name = ogonek;
position = "{520, 0}";
},
{
name = top;
position = "{290, 498}";
}
);
background = {
paths = (
{
closed = 1;
nodes = (
"342 0 LINE",
"416 71 LINE",
"416 0 LINE",
"535 0 LINE",
"535 390 LINE",
"428 498 LINE",
"171 498 LINE",
"64 390 LINE",
"64 333 LINE",
"194 333 LINE",
"194 361 LINE",
"224 392 LINE",
"374 392 LINE",
"405 361 LINE",
"405 298 LINE",
"152 298 LINE",
"60 206 LINE",
"60 92 LINE",
"152 0 LINE"
);
},
{
closed = 1;
nodes = (
"190 127 LINE",
"190 177 LINE",
"217 204 LINE",
"405 204 LINE",
"405 171 LINE",
"333 102 LINE",
"215 102 LINE"
);
}
);
};
layerId = "D6105F7E-CAE1-4F7B-A52E-8AA6E6082DF8";
paths = (
{
closed = 1;
nodes = (
"327 0 LINE",
"401 71 LINE",
"401 0 LINE",
"520 0 LINE",
"520 390 LINE",
"413 498 LINE",
"156 498 LINE",
"49 390 LINE",
"49 333 LINE",
"179 333 LINE",
"179 361 LINE",
"209 392 LINE",
"359 392 LINE",
"390 361 LINE",
"390 298 LINE",
"137 298 LINE",
"45 206 LINE",
"45 92 LINE",
"137 0 LINE"
);
},
{
closed = 1;
nodes = (
"175 127 LINE",
"175 177 LINE",
"202 204 LINE",
"390 204 LINE",
"390 171 LINE",
"318 102 LINE",
"200 102 LINE"
);
}
);
width = 575;
},
{
anchors = (
{
name = bottom;
position = "{276, 0}";
},
{
name = ogonek;
position = "{481, 0}";
},
{
name = top;
position = "{276, 498}";
}
);
layerId = "3C986DA2-2E28-42A4-B05D-29F449A87569";
paths = (
{
closed = 1;
nodes = (
"318 0 LINE",
"410 88 LINE",
"410 0 LINE",
"481 0 LINE",
"481 406 LINE",
"389 498 LINE",
"156 498 LINE",
"64 406 LINE",
"64 344 LINE",
"138 344 LINE",
"138 385 LINE",
"188 434 LINE",
"358 434 LINE",
"408 385 LINE",
"408 290 LINE",
"142 290 LINE",
"60 209 LINE",
"60 82 LINE",
"142 0 LINE"
);
},
{
closed = 1;
nodes = (
"134 103 LINE",
"134 187 LINE",
"174 226 LINE",
"408 226 LINE",
"408 165 LINE",
"303 64 LINE",
"174 64 LINE"
);
}
);
width = 551;
}
);
leftKerningGroup = a;
note = a;
rightKerningGroup = n;
rightMetricsKey = n;
unicode = 0061;
},
{
glyphname = b;
lastChange = "2018-05-14 12:07:51 +0000";
layers = (
{
anchors = (
{
name = bottom;
position = "{281, 0}";
},
{
name = top;
position = "{281, 498}";
}
);
background = {
paths = (
{
closed = 1;
nodes = (
"394 0 LINE",
"476 82 LINE",
"476 416 LINE",
"394 498 LINE",
"231 498 LINE",
"113 380 LINE",
"113 714 LINE",
"75 714 LINE",
"75 82 LINE",
"157 0 LINE"
);
},
{
closed = 1;
nodes = (
"113 94 LINE",
"113 328 LINE",
"247 462 LINE",
"379 462 LINE",
"438 404 LINE",
"438 94 LINE",
"379 36 LINE",
"172 36 LINE"
);
}
);
};
layerId = "39D11A97-A6D9-4B52-A6F5-15D5E4373676";
paths = (
{
closed = 1;
nodes = (
"404 0 LINE",
"486 82 LINE",
"486 416 LINE",
"404 498 LINE",
"242 498 LINE",
"123 377 LINE",
"123 714 LINE",
"85 714 LINE",
"85 82 LINE",
"167 0 LINE"
);
},
{
closed = 1;
nodes = (
"123 94 LINE",
"123 328 LINE",
"257 462 LINE",
"389 462 LINE",
"448 404 LINE",
"448 94 LINE",
"389 36 LINE",
"182 36 LINE"
);
}
);
width = 561;
},
{
anchors = (
{
name = bottom;
position = "{301, 0}";
},
{
name = top;
position = "{301, 498}";
}
);
background = {
paths = (
{
closed = 1;
nodes = (
"460 0 LINE",
"567 108 LINE",
"567 390 LINE",
"460 498 LINE",
"274 498 LINE",
"207 431 LINE",
"207 714 LINE",
"75 714 LINE",
"75 108 LINE",
"182 0 LINE"
);
},
{
closed = 1;
nodes = (
"207 147 LINE",
"207 294 LINE",
"294 386 LINE",
"401 386 LINE",
"435 351 LINE",
"435 147 LINE",
"401 112 LINE",
"241 112 LINE"
);
}
);
};
layerId = "D6105F7E-CAE1-4F7B-A52E-8AA6E6082DF8";
paths = (
{
closed = 1;
nodes = (
"447 0 LINE",
"550 104 LINE",
"550 394 LINE",
"447 498 LINE",
"265 498 LINE",
"192 429 LINE",
"192 714 LINE",
"60 714 LINE",
"60 108 LINE",
"167 0 LINE"
);
},
{
closed = 1;
nodes = (
"192 151 LINE",
"192 296 LINE",
"282 386 LINE",
"380 386 LINE",
"418 347 LINE",
"418 151 LINE",
"380 112 LINE",
"230 112 LINE"
);
}
);
width = 600;
},
{
anchors = (
{
name = bottom;
position = "{289, 0}";
},
{
name = top;
position = "{289, 498}";
}
);
layerId = "3C986DA2-2E28-42A4-B05D-29F449A87569";
paths = (
{
closed = 1;
nodes = (
"421 0 LINE",
"513 92 LINE",
"513 406 LINE",
"421 498 LINE",
"246 498 LINE",
"149 401 LINE",
"149 714 LINE",
"75 714 LINE",
"75 92 LINE",
"167 0 LINE"
);
},
{
closed = 1;
nodes = (
"149 115 LINE",
"149 314 LINE",
"267 432 LINE",
"389 432 LINE",
"439 383 LINE",
"439 115 LINE",
"389 66 LINE",
"199 66 LINE"
);
}
);
width = 578;
}
);
leftMetricsKey = n;
note = b;
rightKerningGroup = o;
rightMetricsKey = o;
unicode = 0062;
},
{
glyphname = c;
lastChange = "2018-05-14 12:07:51 +0000";
layers = (
{
anchors = (
{
name = bottom;
position = "{271, 0}";
},
{
name = top;
position = "{268, 498}";
}
);
background = {
paths = (
{
closed = 1;
nodes = (
"370 0 LINE",
"452 82 LINE",
"452 123 LINE",
"414 123 LINE",
"414 94 LINE",
"355 36 LINE",
"162 36 LINE",
"103 94 LINE",
"103 404 LINE",
"162 462 LINE",
"355 462 LINE",
"414 404 LINE",
"414 375 LINE",
"452 375 LINE",
"452 416 LINE",
"370 498 LINE",
"147 498 LINE",
"65 416 LINE",
"65 82 LINE",
"147 0 LINE"
);
}
);
};
layerId = "39D11A97-A6D9-4B52-A6F5-15D5E4373676";
paths = (
{
closed = 1;
nodes = (
"380 0 LINE",
"462 82 LINE",
"462 123 LINE",
"424 123 LINE",
"424 94 LINE",
"365 36 LINE",
"172 36 LINE",
"113 94 LINE",
"113 404 LINE",
"172 462 LINE",
"365 462 LINE",
"424 404 LINE",
"424 375 LINE",
"462 375 LINE",
"462 416 LINE",
"380 498 LINE",
"157 498 LINE",
"75 416 LINE",
"75 82 LINE",
"157 0 LINE"
);
}
);
width = 517;
},
{
anchors = (
{
name = bottom;
position = "{293, 0}";
},
{
name = top;
position = "{288, 498}";
}
);
background = {
paths = (
{
closed = 1;
nodes = (
"440 0 LINE",
"543 104 LINE",
"543 196 LINE",
"411 196 LINE",
"411 147 LINE",
"376 112 LINE",
"232 112 LINE",
"197 147 LINE",
"197 351 LINE",
"232 386 LINE",
"376 386 LINE",
"411 351 LINE",
"411 302 LINE",
"543 302 LINE",
"543 394 LINE",
"440 498 LINE",
"166 498 LINE",
"65 396 LINE",
"65 102 LINE",
"166 0 LINE"
);
}
);
};
layerId = "D6105F7E-CAE1-4F7B-A52E-8AA6E6082DF8";
paths = (
{
closed = 1;
nodes = (
"425 0 LINE",
"528 104 LINE",
"528 196 LINE",
"396 196 LINE",
"396 147 LINE",
"361 112 LINE",
"217 112 LINE",
"182 147 LINE",
"182 351 LINE",
"217 386 LINE",
"361 386 LINE",
"396 351 LINE",
"396 302 LINE",
"528 302 LINE",
"528 394 LINE",
"425 498 LINE",
"151 498 LINE",
"50 396 LINE",
"50 102 LINE",
"151 0 LINE"
);
}
);
width = 558;
},
{
anchors = (
{
name = bottom;
position = "{282, 0}";
},
{
name = top;
position = "{277, 498}";
}
);
layerId = "3C986DA2-2E28-42A4-B05D-29F449A87569";
paths = (
{
closed = 1;
nodes = (
"397 0 LINE",
"489 92 LINE",
"489 153 LINE",
"415 153 LINE",
"415 115 LINE",
"365 66 LINE",
"189 66 LINE",
"139 115 LINE",
"139 383 LINE",
"189 432 LINE",
"365 432 LINE",
"415 383 LINE",
"415 345 LINE",
"489 345 LINE",
"489 406 LINE",
"397 498 LINE",
"157 498 LINE",
"65 406 LINE",
"65 92 LINE",
"157 0 LINE"
);
}
);
width = 534;
}
);
leftKerningGroup = o;
leftMetricsKey = o;
note = c;
rightKerningGroup = c;
unicode = 0063;
},
{
glyphname = d;
lastChange = "2018-05-14 12:43:54 +0000";
layers = (
{
anchors = (
{
name = bottom;
position = "{282, 0}";
},
{
name = center;
position = "{282, 249}";
},
{
name = top;
position = "{282, 498}";
},
{
name = topright;
position = "{552, 498}";
}
);
background = {
paths = (
{
closed = 1;
nodes = (
"326 0 LINE",
"428 103 LINE",
"428 0 LINE",
"468 0 LINE",
"468 714 LINE",
"430 714 LINE",
"430 411 LINE",
"329 498 LINE",
"147 498 LINE",
"65 416 LINE",
"65 82 LINE",
"147 0 LINE"
);
},
{
closed = 1;
nodes = (
"103 94 LINE",
"103 404 LINE",
"162 462 LINE",
"318 462 LINE",
"430 363 LINE",
"430 155 LINE",
"311 36 LINE",
"162 36 LINE"
);
}
);
};
layerId = "39D11A97-A6D9-4B52-A6F5-15D5E4373676";
paths = (
{
closed = 1;
nodes = (
"334 0 LINE",
"440 106 LINE",
"440 0 LINE",
"478 0 LINE",
"478 714 LINE",
"440 714 LINE",
"440 412 LINE",
"339 498 LINE",
"157 498 LINE",
"75 416 LINE",
"75 82 LINE",
"157 0 LINE"
);
},
{
closed = 1;
nodes = (
"113 94 LINE",
"113 404 LINE",
"172 462 LINE",
"326 462 LINE",
"440 365 LINE",
"440 155 LINE",
"321 36 LINE",
"172 36 LINE"
);
}
);
width = 563;
},
{
anchors = (
{
name = bottom;
position = "{300, 0}";
},
{
name = center;
position = "{300, 249}";
},
{
name = top;
position = "{300, 498}";
},
{
name = topright;
position = "{565, 498}";
}
);
background = {
paths = (
{
closed = 1;
nodes = (
"341 0 LINE",
"418 77 LINE",
"418 0 LINE",
"542 0 LINE",
"542 714 LINE",
"410 714 LINE",
"410 447 LINE",
"351 498 LINE",
"153 498 LINE",
"50 394 LINE",
"50 104 LINE",
"153 0 LINE"
);
},
{
closed = 1;
nodes = (
"182 151 LINE",
"182 347 LINE",
"220 386 LINE",
"342 386 LINE",
"410 325 LINE",
"410 195 LINE",
"329 112 LINE",
"220 112 LINE"
);
}
);
};
layerId = "D6105F7E-CAE1-4F7B-A52E-8AA6E6082DF8";
paths = (
{
closed = 1;
nodes = (
"341 0 LINE",
"418 77 LINE",
"418 0 LINE",
"542 0 LINE",
"542 714 LINE",
"410 714 LINE",
"410 447 LINE",
"351 498 LINE",
"153 498 LINE",
"50 394 LINE",
"50 104 LINE",
"153 0 LINE"
);
},
{
closed = 1;
nodes = (
"182 151 LINE",
"182 347 LINE",
"220 386 LINE",
"342 386 LINE",
"410 325 LINE",
"410 195 LINE",
"329 112 LINE",
"220 112 LINE"
);
}
);
width = 602;
},
{
anchors = (
{
name = bottom;
position = "{290, 0}";
},
{
name = center;
position = "{290, 249}";
},
{
name = top;
position = "{290, 498}";
},
{
name = topright;
position = "{560, 498}";
}
);
layerId = "3C986DA2-2E28-42A4-B05D-29F449A87569";
paths = (
{
closed = 1;
nodes = (
"342 0 LINE",
"433 91 LINE",
"433 0 LINE",
"505 0 LINE",
"505 714 LINE",
"431 714 LINE",
"431 426 LINE",
"349 498 LINE",
"157 498 LINE",
"65 406 LINE",
"65 92 LINE",
"157 0 LINE"
);
},
{
closed = 1;
nodes = (
"139 115 LINE",
"139 383 LINE",
"189 432 LINE",
"335 432 LINE",
"431 348 LINE",
"431 171 LINE",
"326 66 LINE",
"189 66 LINE"
);
}
);
width = 580;
}
);
leftKerningGroup = o;
leftMetricsKey = o;
note = d;
rightMetricsKey = u;
unicode = 0064;
},
{
glyphname = e;
lastChange = "2018-05-14 12:07:51 +0000";
layers = (
{
anchors = (
{
name = bottom;
position = "{274, 0}";
},
{
name = ogonek;
position = "{390, 0}";
},
{
name = top;
position = "{274, 498}";
}
);
background = {
paths = (
{
closed = 1;
nodes = (
"380 0 LINE",
"463 83 LINE",
"463 144 LINE",
"425 144 LINE",
"425 96 LINE",
"363 36 LINE",
"164 36 LINE",
"103 97 LINE",
"103 240 LINE",
"464 240 LINE",
"464 416 LINE",
"381 498 LINE",
"147 498 LINE",
"65 416 LINE",
"65 82 LINE",
"147 0 LINE"
);
},
{
closed = 1;
nodes = (
"103 402 LINE",
"163 462 LINE",
"366 462 LINE",
"426 402 LINE",
"426 275 LINE",
"103 275 LINE"
);
}
);
};
layerId = "39D11A97-A6D9-4B52-A6F5-15D5E4373676";
paths = (
{
closed = 1;
nodes = (
"390 0 LINE",
"473 83 LINE",
"473 144 LINE",
"435 144 LINE",
"435 96 LINE",
"373 36 LINE",
"174 36 LINE",
"113 97 LINE",
"113 240 LINE",
"474 240 LINE",
"474 416 LINE",
"391 498 LINE",
"157 498 LINE",
"75 416 LINE",
"75 82 LINE",
"157 0 LINE"
);
},
{
closed = 1;
nodes = (
"113 402 LINE",
"173 462 LINE",
"376 462 LINE",
"436 402 LINE",
"436 275 LINE",
"113 275 LINE"
);
}
);
width = 544;
},
{
anchors = (
{
name = bottom;
position = "{295, 0}";
},
{
name = ogonek;
position = "{438, 0}";
},
{
name = top;
position = "{295, 498}";
}
);
background = {
paths = (
{
closed = 1;
nodes = (
"449 0 LINE",
"554 106 LINE",
"554 171 LINE",
"422 171 LINE",
"422 141 LINE",
"392 110 LINE",
"229 110 LINE",
"197 143 LINE",
"197 206 LINE",
"555 206 LINE",
"555 390 LINE",
"447 498 LINE",
"172 498 LINE",
"65 390 LINE",
"65 108 LINE",
"172 0 LINE"
);
},
{
closed = 1;
nodes = (
"197 357 LINE",
"229 390 LINE",
"391 390 LINE",
"423 357 LINE",
"423 298 LINE",
"197 298 LINE"
);
}
);
};
layerId = "D6105F7E-CAE1-4F7B-A52E-8AA6E6082DF8";
paths = (
{
closed = 1;
nodes = (
"438 0 LINE",
"537 100 LINE",
"537 165 LINE",
"407 165 LINE",
"407 139 LINE",
"377 108 LINE",
"214 108 LINE",
"182 141 LINE",
"182 205 LINE",
"538 205 LINE",
"538 394 LINE",
"434 498 LINE",
"153 498 LINE",
"50 394 LINE",
"50 102 LINE",
"151 0 LINE"
);
},
{
closed = 1;
nodes = (
"182 355 LINE",
"216 390 LINE",
"372 390 LINE",
"406 355 LINE",
"406 297 LINE",
"182 297 LINE"
);
}
);
width = 583;
},
{
anchors = (
{
name = bottom;
position = "{283, 0}";
},
{
name = ogonek;
position = "{408, 0}";
},
{
name = top;
position = "{283, 498}";
}
);
layerId = "3C986DA2-2E28-42A4-B05D-29F449A87569";
paths = (
{
closed = 1;
nodes = (
"408 0 LINE",
"500 92 LINE",
"500 154 LINE",
"426 154 LINE",
"426 115 LINE",
"376 66 LINE",
"189 66 LINE",
"139 115 LINE",
"139 227 LINE",
"501 227 LINE",
"501 406 LINE",
"408 498 LINE",
"157 498 LINE",
"65 406 LINE",
"65 92 LINE",
"157 0 LINE"
);
},
{
closed = 1;
nodes = (
"139 383 LINE",
"189 432 LINE",
"377 432 LINE",
"427 383 LINE",
"427 291 LINE",
"139 291 LINE"
);
}
);
width = 561;
}
);
leftKerningGroup = o;
leftMetricsKey = o;
note = e;
rightKerningGroup = e;
unicode = 0065;
},
{
glyphname = f;
lastChange = "2018-05-14 12:07:51 +0000";
layers = (
{
anchors = (
{
name = bottom;
position = "{180, 0}";
},
{
name = top;
position = "{180, 498}";
}
);
background = {
paths = (
{
closed = 1;
nodes = (
"157 0 LINE",
"157 460 LINE",
"314 460 LINE",
"314 498 LINE",
"157 498 LINE",
"157 607 LINE",
"212 660 LINE",
"314 660 LINE",
"314 696 LINE",
"197 696 LINE",
"119 618 LINE",
"119 498 LINE",
"30 498 LINE",
"30 460 LINE",
"119 460 LINE",
"119 0 LINE"
);
}
);
};
layerId = "39D11A97-A6D9-4B52-A6F5-15D5E4373676";
paths = (
{
closed = 1;
nodes = (
"167 0 LINE",
"167 463 LINE",
"324 463 LINE",
"324 498 LINE",
"167 498 LINE",
"167 605 LINE",
"222 660 LINE",
"324 660 LINE",
"324 696 LINE",
"207 696 LINE",
"129 618 LINE",
"129 498 LINE",
"40 498 LINE",
"40 463 LINE",
"129 463 LINE",
"129 0 LINE"
);
}
);
width = 359;
},
{
anchors = (
{
name = bottom;
position = "{200, 0}";
},
{
name = top;
position = "{200, 498}";
}
);
background = {
paths = (
{
closed = 1;
nodes = (
"252 0 LINE",
"252 386 LINE",
"405 386 LINE",
"405 498 LINE",
"252 498 LINE",
"252 558 LINE",
"278 586 LINE",
"405 586 LINE",
"405 696 LINE",
"219 696 LINE",
"120 595 LINE",
"120 498 LINE",
"30 498 LINE",
"30 386 LINE",
"120 386 LINE",
"120 0 LINE"
);
}
);
};
layerId = "D6105F7E-CAE1-4F7B-A52E-8AA6E6082DF8";
paths = (
{
closed = 1;
nodes = (
"237 0 LINE",
"237 387 LINE",
"390 387 LINE",
"390 498 LINE",
"235 498 LINE",
"235 561 LINE",
"263 589 LINE",
"390 589 LINE",
"390 698 LINE",
"206 698 LINE",
"105 597 LINE",
"105 498 LINE",
"15 498 LINE",
"15 387 LINE",
"105 387 LINE",
"105 0 LINE"
);
}
);
width = 400;
},
{
anchors = (
{
name = bottom;
position = "{188, 0}";
},
{
name = top;
position = "{188, 498}";
}
);
layerId = "3C986DA2-2E28-42A4-B05D-29F449A87569";
paths = (
{
closed = 1;
nodes = (
"194 0 LINE",
"194 432 LINE",
"351 432 LINE",
"351 498 LINE",
"194 498 LINE",
"194 588 LINE",
"239 632 LINE",
"351 632 LINE",
"351 696 LINE",
"207 696 LINE",
"120 609 LINE",
"120 498 LINE",
"30 498 LINE",
"30 432 LINE",
"120 432 LINE",
"120 0 LINE"
);
}
);
width = 376;
}
);
leftKerningGroup = f;
note = f;
unicode = 0066;
},
{
glyphname = g;
lastChange = "2018-05-14 12:07:51 +0000";
layers = (
{
anchors = (
{
name = bottom;
position = "{280, 0}";
},
{
name = top;
position = "{280, 498}";
}
);
background = {
paths = (
{
closed = 1;
nodes = (
"388 -216 LINE",
"468 -135 LINE",
"468 498 LINE",
"428 498 LINE",
"428 399 LINE",
"330 498 LINE",
"147 498 LINE",
"65 416 LINE",
"65 82 LINE",
"147 0 LINE",
"322 0 LINE",
"430 97 LINE",
"430 -121 LINE",
"371 -179 LINE",
"149 -179 LINE",
"149 -216 LINE"
);
},
{
closed = 1;
nodes = (
"103 94 LINE",
"103 404 LINE",
"162 462 LINE",
"309 462 LINE",
"430 341 LINE",
"430 149 LINE",
"307 36 LINE",
"162 36 LINE"
);
}
);
};
layerId = "39D11A97-A6D9-4B52-A6F5-15D5E4373676";
paths = (
{
closed = 1;
nodes = (
"398 -216 LINE",
"478 -135 LINE",
"478 498 LINE",
"440 498 LINE",
"440 390 LINE",
"334 498 LINE",
"157 498 LINE",
"75 416 LINE",
"75 82 LINE",
"157 0 LINE",
"332 0 LINE",
"440 97 LINE",
"440 -121 LINE",
"381 -179 LINE",
"159 -179 LINE",
"159 -216 LINE"
);
},
{
closed = 1;
nodes = (
"113 94 LINE",
"113 404 LINE",
"172 462 LINE",
"319 462 LINE",
"440 341 LINE",
"440 146 LINE",
"319 36 LINE",
"172 36 LINE"
);
}
);
width = 563;
},
{
anchors = (
{
name = bottom;
position = "{298, 0}";
},
{
name = top;
position = "{298, 498}";
}
);
background = {
paths = (
{
closed = 1;
nodes = (
"449 -221 LINE",
"557 -114 LINE",
"557 498 LINE",
"433 498 LINE",
"433 430 LINE",
"366 498 LINE",
"170 498 LINE",
"63 390 LINE",
"63 108 LINE",
"170 0 LINE",
"361 0 LINE",
"425 60 LINE",
"425 -74 LINE",
"391 -109 LINE",
"146 -109 LINE",
"146 -221 LINE"
);
},
{
closed = 1;
nodes = (
"195 149 LINE",
"195 349 LINE",
"229 384 LINE",
"348 384 LINE",
"425 305 LINE",
"425 185 LINE",
"353 114 LINE",
"229 114 LINE"
);
}
);
};
layerId = "D6105F7E-CAE1-4F7B-A52E-8AA6E6082DF8";
paths = (
{
closed = 1;
nodes = (
"410 65 LINE",
"410 -74 LINE",
"376 -109 LINE",
"131 -109 LINE",
"131 -221 LINE",
"434 -221 LINE",
"542 -114 LINE",
"542 498 LINE",
"420 498 LINE",
"420 430 LINE",
"349 498 LINE",
"153 498 LINE",
"50 394 LINE",
"50 104 LINE",
"153 0 LINE",
"341 0 LINE"
);
},
{
closed = 1;
nodes = (
"182 151 LINE",
"182 347 LINE",
"220 386 LINE",
"342 386 LINE",
"410 325 LINE",
"410 195 LINE",
"329 112 LINE",
"220 112 LINE"
);
}
);
width = 602;
},
{
anchors = (
{
name = bottom;
position = "{288, 0}";
},
{
name = top;
position = "{288, 498}";
}
);
layerId = "3C986DA2-2E28-42A4-B05D-29F449A87569";
paths = (
{
closed = 1;
nodes = (
"414 -218 LINE",
"505 -127 LINE",
"505 498 LINE",
"433 498 LINE",
"433 411 LINE",
"346 498 LINE",
"157 498 LINE",
"65 406 LINE",
"65 92 LINE",
"157 0 LINE",
"339 0 LINE",
"431 83 LINE",
"431 -103 LINE",
"381 -152 LINE",
"149 -152 LINE",
"149 -218 LINE"
);
},
{
closed = 1;
nodes = (
"139 115 LINE",
"139 383 LINE",
"189 432 LINE",
"326 432 LINE",
"431 327 LINE",
"431 163 LINE",
"327 66 LINE",
"189 66 LINE"
);
}
);
width = 580;
}
);
leftKerningGroup = o;
leftMetricsKey = o;
note = g;
rightKerningGroup = u;
rightMetricsKey = u;
unicode = 0067;
},
{
glyphname = h;
lastChange = "2018-05-14 12:07:51 +0000";
layers = (
{
anchors = (
{
name = bottom;
position = "{279, 0}";
},
{
name = center;
position = "{279, 249}";
},
{
name = top;
position = "{281, 700}";
}
);
background = {
paths = (
{
closed = 1;
nodes = (
"113 0 LINE",
"113 322 LINE",
"253 462 LINE",
"366 462 LINE",
"425 404 LINE",
"425 0 LINE",
"463 0 LINE",
"463 416 LINE",
"381 498 LINE",
"237 498 LINE",
"113 374 LINE",
"113 724 LINE",
"75 724 LINE",
"75 0 LINE"
);
}
);
};
layerId = "39D11A97-A6D9-4B52-A6F5-15D5E4373676";
paths = (
{
closed = 1;
nodes = (
"123 0 LINE",
"123 323 LINE",
"263 462 LINE",
"376 462 LINE",
"435 404 LINE",
"435 0 LINE",
"473 0 LINE",
"473 416 LINE",
"391 498 LINE",
"248 498 LINE",
"123 372 LINE",
"123 724 LINE",
"85 724 LINE",
"85 0 LINE"
);
}
);
width = 553;
},
{
anchors = (
{
name = bottom;
position = "{300, 0}";
},
{
name = center;
position = "{300, 249}";
},
{
name = top;
position = "{302, 704}";
}
);
background = {
paths = (
{
closed = 1;
nodes = (
"207 0 LINE",
"207 290 LINE",
"302 386 LINE",
"388 386 LINE",
"422 351 LINE",
"422 0 LINE",
"554 0 LINE",
"554 387 LINE",
"443 498 LINE",
"284 498 LINE",
"207 421 LINE",
"207 714 LINE",
"75 714 LINE",
"75 0 LINE"
);
}
);
};
layerId = "D6105F7E-CAE1-4F7B-A52E-8AA6E6082DF8";
paths = (
{
closed = 1;
nodes = (
"192 0 LINE",
"192 290 LINE",
"287 386 LINE",
"373 386 LINE",
"407 351 LINE",
"407 0 LINE",
"539 0 LINE",
"539 387 LINE",
"428 498 LINE",
"269 498 LINE",
"192 421 LINE",
"192 714 LINE",
"60 714 LINE",
"60 0 LINE"
);
}
);
width = 594;
},
{
anchors = (
{
name = bottom;
position = "{287, 0}";
},
{
name = center;
position = "{287, 249}";
},
{
name = top;
position = "{289, 700}";
}
);
layerId = "3C986DA2-2E28-42A4-B05D-29F449A87569";
paths = (
{
closed = 1;
nodes = (
"149 0 LINE",
"149 308 LINE",
"273 432 LINE",
"376 432 LINE",
"426 383 LINE",
"426 0 LINE",
"500 0 LINE",
"500 406 LINE",
"408 498 LINE",
"253 498 LINE",
"149 394 LINE",
"149 724 LINE",
"75 724 LINE",
"75 0 LINE"
);
}
);
width = 570;
}
);
leftMetricsKey = n;
note = h;
rightKerningGroup = n;
rightMetricsKey = n;
unicode = 0068;
},
{
glyphname = i;
lastChange = "2018-05-14 12:07:51 +0000";
layers = (
{
anchors = (
{
name = bottom;
position = "{115, 0}";
},
{
name = ogonek;
position = "{133, 0}";
}
);
background = {
paths = (
{
closed = 1;
nodes = (
"135 0 LINE",
"135 498 LINE",
"61 498 LINE",
"61 0 LINE"
);
},
{
closed = 1;
nodes = (
"76 700 LINE",
"46 670 LINE",
"46 626 LINE",
"76 596 LINE",
"120 596 LINE",
"150 626 LINE",
"150 670 LINE",
"120 700 LINE"
);
}
);
};
layerId = "39D11A97-A6D9-4B52-A6F5-15D5E4373676";
paths = (
{
closed = 1;
nodes = (
"133 0 LINE",
"133 498 LINE",
"95 498 LINE",
"95 0 LINE"
);
},
{
closed = 1;
nodes = (
"128 598 LINE",
"148 618 LINE",
"148 650 LINE",
"128 670 LINE",
"100 670 LINE",
"80 650 LINE",
"80 618 LINE",
"100 598 LINE"
);
}
);
width = 228;
},
{
anchors = (
{
name = bottom;
position = "{135, 0}";
},
{
name = ogonek;
position = "{202, 0}";
}
);
background = {
paths = (
{
closed = 1;
nodes = (
"217 0 LINE",
"217 498 LINE",
"85 498 LINE",
"85 0 LINE"
);
},
{
closed = 1;
nodes = (
"186 556 LINE",
"232 602 LINE",
"232 666 LINE",
"186 712 LINE",
"116 712 LINE",
"70 666 LINE",
"70 602 LINE",
"116 556 LINE"
);
}
);
};
layerId = "D6105F7E-CAE1-4F7B-A52E-8AA6E6082DF8";
paths = (
{
closed = 1;
nodes = (
"202 0 LINE",
"202 498 LINE",
"70 498 LINE",
"70 0 LINE"
);
},
{
closed = 1;
nodes = (
"171 556 LINE",
"217 602 LINE",
"217 666 LINE",
"171 712 LINE",
"101 712 LINE",
"55 666 LINE",
"55 602 LINE",
"101 556 LINE"
);
}
);
width = 272;
},
{
anchors = (
{
name = bottom;
position = "{122, 0}";
},
{
name = ogonek;
position = "{159, 0}";
}
);
layerId = "3C986DA2-2E28-42A4-B05D-29F449A87569";
paths = (
{
closed = 1;
nodes = (
"159 0 LINE",
"159 498 LINE",
"85 498 LINE",
"85 0 LINE"
);
},
{
closed = 1;
nodes = (
"100 686 LINE",
"70 656 LINE",
"70 612 LINE",
"100 582 LINE",
"144 582 LINE",
"174 612 LINE",
"174 656 LINE",
"144 686 LINE"
);
}
);
width = 244;
}
);
note = i;
unicode = 0069;
},
{
glyphname = j;
lastChange = "2018-05-14 12:07:51 +0000";
layers = (
{
background = {
paths = (
{
closed = 1;
nodes = (
"57 -218 LINE",
"138 -137 LINE",
"138 498 LINE",
"100 498 LINE",
"100 -124 LINE",
"41 -182 LINE",
"-50 -182 LINE",
"-50 -218 LINE"
);
},
{
closed = 1;
nodes = (
"133 598 LINE",
"153 618 LINE",
"153 650 LINE",
"133 670 LINE",
"105 670 LINE",
"85 650 LINE",
"85 618 LINE",
"105 598 LINE"
);
}
);
};
layerId = "39D11A97-A6D9-4B52-A6F5-15D5E4373676";
paths = (
{
closed = 1;
nodes = (
"67 -218 LINE",
"148 -137 LINE",
"148 498 LINE",
"110 498 LINE",
"110 -122 LINE",
"50 -182 LINE",
"-40 -182 LINE",
"-40 -218 LINE"
);
},
{
closed = 1;
nodes = (
"143 598 LINE",
"163 618 LINE",
"163 650 LINE",
"143 670 LINE",
"115 670 LINE",
"95 650 LINE",
"95 618 LINE",
"115 598 LINE"
);
}
);
width = 243;
},
{
background = {
paths = (
{
closed = 1;
nodes = (
"125 -218 LINE",
"232 -111 LINE",
"232 498 LINE",
"100 498 LINE",
"100 -69 LINE",
"65 -104 LINE",
"-50 -104 LINE",
"-50 -218 LINE"
);
},
{
closed = 1;
nodes = (
"201 556 LINE",
"247 602 LINE",
"247 666 LINE",
"201 712 LINE",
"131 712 LINE",
"85 666 LINE",
"85 602 LINE",
"131 556 LINE"
);
}
);
};
layerId = "D6105F7E-CAE1-4F7B-A52E-8AA6E6082DF8";
paths = (
{
closed = 1;
nodes = (
"110 -218 LINE",
"217 -111 LINE",
"217 498 LINE",
"85 498 LINE",
"85 -71 LINE",
"50 -106 LINE",
"-65 -106 LINE",
"-65 -218 LINE"
);
},
{
closed = 1;
nodes = (
"186 556 LINE",
"232 602 LINE",
"232 666 LINE",
"186 712 LINE",
"116 712 LINE",
"70 666 LINE",
"70 602 LINE",
"116 556 LINE"
);
}
);
width = 287;
},
{
layerId = "3C986DA2-2E28-42A4-B05D-29F449A87569";
paths = (
{
closed = 1;
nodes = (
"83 -218 LINE",
"174 -127 LINE",
"174 498 LINE",
"100 498 LINE",
"100 -103 LINE",
"50 -152 LINE",
"-50 -152 LINE",
"-50 -218 LINE"
);
},
{
closed = 1;
nodes = (
"159 582 LINE",
"189 612 LINE",
"189 656 LINE",
"159 686 LINE",
"115 686 LINE",
"85 656 LINE",
"85 612 LINE",
"115 582 LINE"
);
}
);
width = 259;
}
);
leftKerningGroup = j;
note = j;
unicode = 006A;
},
{
glyphname = k;
lastChange = "2018-05-14 12:07:51 +0000";
layers = (
{
anchors = (
{
name = bottom;
position = "{255, 0}";
},
{
name = top;
position = "{259, 498}";
}
);
background = {
paths = (
{
closed = 1;
nodes = (
"113 0 LINE",
"113 241 LINE",
"247 241 LINE",
"412 0 LINE",
"453 0 LINE",
"277 258 LINE",
"443 498 LINE",
"402 498 LINE",
"245 277 LINE",
"113 277 LINE",
"113 724 LINE",
"75 724 LINE",
"75 0 LINE"
);
}
);
};
layerId = "39D11A97-A6D9-4B52-A6F5-15D5E4373676";
paths = (
{
closed = 1;
nodes = (
"123 0 LINE",
"123 241 LINE",
"254 241 LINE",
"419 0 LINE",
"463 0 LINE",
"287 258 LINE",
"453 498 LINE",
"409 498 LINE",
"256 277 LINE",
"123 277 LINE",
"123 724 LINE",
"85 724 LINE",
"85 0 LINE"
);
}
);
width = 493;
},
{
anchors = (
{
name = bottom;
position = "{294, 0}";
},
{
name = top;
position = "{279, 498}";
}
);
background = {
paths = (
{
closed = 1;
nodes = (
"207 0 LINE",
"207 203 LINE",
"292 203 LINE",
"431 0 LINE",
"577 0 LINE",
"402 258 LINE",
"567 498 LINE",
"421 498 LINE",
"295 315 LINE",
"207 315 LINE",
"207 724 LINE",
"75 724 LINE",
"75 0 LINE"
);
}
);
};
layerId = "D6105F7E-CAE1-4F7B-A52E-8AA6E6082DF8";
paths = (
{
closed = 1;
nodes = (
"192 0 LINE",
"192 203 LINE",
"276 203 LINE",
"416 0 LINE",
"562 0 LINE",
"386 258 LINE",
"552 498 LINE",
"406 498 LINE",
"279 315 LINE",
"192 315 LINE",
"192 724 LINE",
"60 724 LINE",
"60 0 LINE"
);
}
);
width = 567;
},
{
anchors = (
{
name = bottom;
position = "{269, 0}";
},
{
name = top;
position = "{262, 498}";
}
);
layerId = "3C986DA2-2E28-42A4-B05D-29F449A87569";
paths = (
{
closed = 1;
nodes = (
"149 0 LINE",
"149 226 LINE",
"266 226 LINE",
"422 0 LINE",
"504 0 LINE",
"326 258 LINE",
"494 498 LINE",
"412 498 LINE",
"266 292 LINE",
"149 292 LINE",
"149 724 LINE",
"75 724 LINE",
"75 0 LINE"
);
}
);
width = 524;
}
);
leftMetricsKey = n;
note = k;
rightKerningGroup = k;
unicode = 006B;
},
{
glyphname = l;
lastChange = "2018-05-14 12:07:51 +0000";
layers = (
{
anchors = (
{
name = bottom;
position = "{109, 0}";
},
{
name = center;
position = "{109, 249}";
},
{
name = top;
position = "{109, 724}";
},
{
name = topright;
position = "{212, 498}";
}
);
background = {
paths = (
{
closed = 1;
nodes = (
"118 0 LINE",
"118 724 LINE",
"80 724 LINE",
"80 0 LINE"
);
}
);
};
layerId = "39D11A97-A6D9-4B52-A6F5-15D5E4373676";
paths = (
{
closed = 1;
nodes = (
"128 0 LINE",
"128 724 LINE",
"90 724 LINE",
"90 0 LINE"
);
}
);
width = 218;
},
{
anchors = (
{
name = bottom;
position = "{131, 0}";
},
{
name = center;
position = "{130, 249}";
},
{
name = top;
position = "{131, 724}";
},
{
name = topright;
position = "{225, 498}";
}
);
background = {
paths = (
{
closed = 1;
nodes = (
"212 0 LINE",
"212 724 LINE",
"80 724 LINE",
"80 0 LINE"
);
}
);
};
layerId = "D6105F7E-CAE1-4F7B-A52E-8AA6E6082DF8";
paths = (
{
closed = 1;
nodes = (
"197 0 LINE",
"197 724 LINE",
"65 724 LINE",
"65 0 LINE"
);
}
);
width = 262;
},
{
anchors = (
{
name = bottom;
position = "{117, 0}";
},
{
name = center;
position = "{117, 249}";
},
{
name = top;
position = "{117, 724}";
},
{
name = topright;
position = "{219, 498}";
}
);
layerId = "3C986DA2-2E28-42A4-B05D-29F449A87569";
paths = (
{
closed = 1;
nodes = (
"154 0 LINE",
"154 724 LINE",
"80 724 LINE",
"80 0 LINE"
);
}
);
width = 234;
}
);
note = l;
unicode = 006C;
},
{
glyphname = m;
lastChange = "2018-05-14 12:07:51 +0000";
layers = (
{
anchors = (
{
name = bottom;
position = "{418, 0}";
},
{
name = top;
position = "{391, 498}";
}
);
background = {
paths = (
{
closed = 1;
nodes = (
"113 0 LINE",
"113 340 LINE",
"235 462 LINE",
"320 462 LINE",
"389 393 LINE",
"389 0 LINE",
"427 0 LINE",
"427 382 LINE",
"507 462 LINE",
"633 462 LINE",
"692 404 LINE",
"692 0 LINE",
"730 0 LINE",
"730 416 LINE",
"648 498 LINE",
"502 498 LINE",
"418 414 LINE",
"335 498 LINE",
"222 498 LINE",
"113 389 LINE",
"113 498 LINE",
"75 498 LINE",
"75 0 LINE"
);
}
);
};
layerId = "39D11A97-A6D9-4B52-A6F5-15D5E4373676";
paths = (
{
closed = 1;
nodes = (
"123 0 LINE",
"123 341 LINE",
"244 462 LINE",
"329 462 LINE",
"399 392 LINE",
"399 0 LINE",
"437 0 LINE",
"437 381 LINE",
"518 462 LINE",
"643 462 LINE",
"702 404 LINE",
"702 0 LINE",
"740 0 LINE",
"740 416 LINE",
"658 498 LINE",
"506 498 LINE",
"425 417 LINE",
"345 498 LINE",
"232 498 LINE",
"123 389 LINE",
"123 498 LINE",
"85 498 LINE",
"85 0 LINE"
);
}
);
width = 820;
},
{
anchors = (
{
name = bottom;
position = "{439, 0}";
},
{
name = top;
position = "{431, 498}";
}
);
background = {
paths = (
{
closed = 1;
nodes = (
"207 0 LINE",
"207 294 LINE",
"298 386 LINE",
"358 386 LINE",
"390 353 LINE",
"390 0 LINE",
"518 0 LINE",
"518 333 LINE",
"571 386 LINE",
"655 386 LINE",
"689 351 LINE",
"689 0 LINE",
"821 0 LINE",
"821 390 LINE",
"714 498 LINE",
"540 498 LINE",
"472 429 LINE",
"404 498 LINE",
"278 498 LINE",
"197 416 LINE",
"197 498 LINE",
"75 498 LINE",
"75 0 LINE"
);
}
);
};
layerId = "D6105F7E-CAE1-4F7B-A52E-8AA6E6082DF8";
paths = (
{
closed = 1;
nodes = (
"192 0 LINE",
"192 294 LINE",
"283 386 LINE",
"343 386 LINE",
"375 353 LINE",
"375 0 LINE",
"503 0 LINE",
"503 333 LINE",
"556 386 LINE",
"640 386 LINE",
"674 351 LINE",
"674 0 LINE",
"806 0 LINE",
"806 390 LINE",
"699 498 LINE",
"525 498 LINE",
"457 429 LINE",
"389 498 LINE",
"263 498 LINE",
"182 416 LINE",
"182 498 LINE",
"60 498 LINE",
"60 0 LINE"
);
}
);
width = 861;
},
{
anchors = (
{
name = bottom;
position = "{427, 0}";
},
{
name = top;
position = "{399, 498}";
}
);
layerId = "3C986DA2-2E28-42A4-B05D-29F449A87569";
paths = (
{
closed = 1;
nodes = (
"149 0 LINE",
"149 324 LINE",
"257 432 LINE",
"341 432 LINE",
"391 383 LINE",
"391 0 LINE",
"463 0 LINE",
"463 362 LINE",
"533 432 LINE",
"643 432 LINE",
"693 383 LINE",
"693 0 LINE",
"767 0 LINE",
"767 406 LINE",
"675 498 LINE",
"518 498 LINE",
"440 420 LINE",
"362 498 LINE",
"243 498 LINE",
"147 402 LINE",
"147 498 LINE",
"75 498 LINE",
"75 0 LINE"
);
}
);
width = 837;
}
);
leftKerningGroup = n;
leftMetricsKey = n;
note = m;
rightKerningGroup = n;
rightMetricsKey = n;
unicode = 006D;
},
{
glyphname = n;
lastChange = "2018-05-14 12:09:12 +0000";
layers = (
{
anchors = (
{
name = bottom;
position = "{278, 0}";
},
{
name = top;
position = "{281, 498}";
}
);
background = {
paths = (
{
closed = 1;
nodes = (
"113 0 LINE",
"113 322 LINE",
"253 462 LINE",
"364 462 LINE",
"423 404 LINE",
"423 0 LINE",
"461 0 LINE",
"461 416 LINE",
"379 498 LINE",
"238 498 LINE",
"115 375 LINE",
"115 498 LINE",
"75 498 LINE",
"75 0 LINE"
);
}
);
};
layerId = "39D11A97-A6D9-4B52-A6F5-15D5E4373676";
paths = (
{
closed = 1;
nodes = (
"123 0 LINE",
"123 323 LINE",
"263 462 LINE",
"374 462 LINE",
"433 404 LINE",
"433 0 LINE",
"471 0 LINE",
"471 416 LINE",
"389 498 LINE",
"248 498 LINE",
"123 372 LINE",
"123 498 LINE",
"85 498 LINE",
"85 0 LINE"
);
}
);
width = 551;
},
{
anchors = (
{
name = bottom;
position = "{299, 0}";
},
{
name = top;
position = "{302, 498}";
}
);
background = {
paths = (
{
closed = 1;
nodes = (
"192 0 LINE",
"192 290 LINE",
"287 386 LINE",
"371 386 LINE",
"405 351 LINE",
"405 0 LINE",
"537 0 LINE",
"537 387 LINE",
"426 498 LINE",
"265 498 LINE",
"182 415 LINE",
"182 498 LINE",
"60 498 LINE",
"60 0 LINE"
);
}
);
};
layerId = "D6105F7E-CAE1-4F7B-A52E-8AA6E6082DF8";
paths = (
{
closed = 1;
nodes = (
"192 0 LINE",
"192 290 LINE",
"287 386 LINE",
"371 386 LINE",
"405 351 LINE",
"405 0 LINE",
"537 0 LINE",
"537 387 LINE",
"426 498 LINE",
"265 498 LINE",
"182 415 LINE",
"182 498 LINE",
"60 498 LINE",
"60 0 LINE"
);
}
);
width = 592;
},
{
anchors = (
{
name = bottom;
position = "{286, 0}";
},
{
name = top;
position = "{289, 498}";
}
);
layerId = "3C986DA2-2E28-42A4-B05D-29F449A87569";
paths = (
{
closed = 1;
nodes = (
"149 0 LINE",
"149 308 LINE",
"273 432 LINE",
"374 432 LINE",
"424 383 LINE",
"424 0 LINE",
"498 0 LINE",
"498 406 LINE",
"406 498 LINE",
"253 498 LINE",
"147 392 LINE",
"147 498 LINE",
"75 498 LINE",
"75 0 LINE"
);
}
);
width = 568;
}
);
leftKerningGroup = n;
note = n;
rightKerningGroup = n;
unicode = 006E;
},
{
glyphname = o;
lastChange = "2018-05-14 12:07:51 +0000";
layers = (
{
anchors = (
{
name = bottom;
position = "{277, 0}";
},
{
name = center;
position = "{277, 249}";
},
{
name = ogonek;
position = "{505, 10}";
},
{
name = top;
position = "{277, 498}";
},
{
name = topright;
position = "{511, 322}";
}
);
background = {
paths = (
{
closed = 1;
nodes = (
"386 0 LINE",
"468 82 LINE",
"468 416 LINE",
"386 498 LINE",
"147 498 LINE",
"65 416 LINE",
"65 82 LINE",
"147 0 LINE"
);
},
{
closed = 1;
nodes = (
"103 94 LINE",
"103 404 LINE",
"162 462 LINE",
"371 462 LINE",
"430 404 LINE",
"430 94 LINE",
"371 36 LINE",
"162 36 LINE"
);
}
);
};
layerId = "39D11A97-A6D9-4B52-A6F5-15D5E4373676";
paths = (
{
closed = 1;
nodes = (
"396 0 LINE",
"478 82 LINE",
"478 416 LINE",
"396 498 LINE",
"157 498 LINE",
"75 416 LINE",
"75 82 LINE",
"157 0 LINE"
);
},
{
closed = 1;
nodes = (
"113 94 LINE",
"113 404 LINE",
"172 462 LINE",
"381 462 LINE",
"440 404 LINE",
"440 94 LINE",
"381 36 LINE",
"172 36 LINE"
);
}
);
width = 553;
},
{
anchors = (
{
name = bottom;
position = "{297, 0}";
},
{
name = center;
position = "{297, 249}";
},
{
name = ogonek;
position = "{521, 10}";
},
{
name = top;
position = "{297, 498}";
},
{
name = topright;
position = "{524, 317}";
}
);
background = {
paths = (
{
closed = 1;
nodes = (
"460 0 LINE",
"559 100 LINE",
"559 398 LINE",
"460 498 LINE",
"164 498 LINE",
"65 398 LINE",
"65 100 LINE",
"164 0 LINE"
);
},
{
closed = 1;
nodes = (
"197 145 LINE",
"197 353 LINE",
"232 388 LINE",
"392 388 LINE",
"427 353 LINE",
"427 145 LINE",
"392 110 LINE",
"232 110 LINE"
);
}
);
};
layerId = "D6105F7E-CAE1-4F7B-A52E-8AA6E6082DF8";
paths = (
{
closed = 1;
nodes = (
"439 0 LINE",
"542 104 LINE",
"542 394 LINE",
"439 498 LINE",
"153 498 LINE",
"50 394 LINE",
"50 104 LINE",
"153 0 LINE"
);
},
{
closed = 1;
nodes = (
"182 145 LINE",
"182 353 LINE",
"217 388 LINE",
"375 388 LINE",
"410 353 LINE",
"410 145 LINE",
"375 110 LINE",
"217 110 LINE"
);
}
);
width = 592;
},
{
anchors = (
{
name = bottom;
position = "{285, 0}";
},
{
name = center;
position = "{285, 249}";
},
{
name = ogonek;
position = "{513, 10}";
},
{
name = top;
position = "{285, 498}";
},
{
name = topright;
position = "{520, 297}";
}
);
layerId = "3C986DA2-2E28-42A4-B05D-29F449A87569";
paths = (
{
closed = 1;
nodes = (
"413 0 LINE",
"505 92 LINE",
"505 406 LINE",
"413 498 LINE",
"157 498 LINE",
"65 406 LINE",
"65 92 LINE",
"157 0 LINE"
);
},
{
closed = 1;
nodes = (
"139 115 LINE",
"139 383 LINE",
"189 432 LINE",
"381 432 LINE",
"431 383 LINE",
"431 115 LINE",
"381 66 LINE",
"189 66 LINE"
);
}
);
width = 570;
}
);
leftKerningGroup = o;
note = o;
rightKerningGroup = o;
rightMetricsKey = "=|";
unicode = 006F;
},
{
glyphname = p;
lastChange = "2018-05-14 12:07:51 +0000";
layers = (
{
anchors = (
{
name = bottom;
position = "{282, 0}";
},
{
name = top;
position = "{282, 498}";
}
);
background = {
paths = (
{
closed = 1;
nodes = (
"113 -212 LINE",
"113 84 LINE",
"206 0 LINE",
"396 0 LINE",
"478 82 LINE",
"478 416 LINE",
"396 498 LINE",
"215 498 LINE",
"113 395 LINE",
"113 498 LINE",
"75 498 LINE",
"75 -212 LINE"
);
},
{
closed = 1;
nodes = (
"113 133 LINE",
"113 345 LINE",
"230 462 LINE",
"381 462 LINE",
"440 404 LINE",
"440 95 LINE",
"381 36 LINE",
"219 36 LINE"
);
}
);
};
layerId = "39D11A97-A6D9-4B52-A6F5-15D5E4373676";
paths = (
{
closed = 1;
nodes = (
"123 -212 LINE",
"123 84 LINE",
"216 0 LINE",
"406 0 LINE",
"488 82 LINE",
"488 416 LINE",
"406 498 LINE",
"225 498 LINE",
"123 395 LINE",
"123 498 LINE",
"85 498 LINE",
"85 -212 LINE"
);
},
{
closed = 1;
nodes = (
"123 133 LINE",
"123 345 LINE",
"240 462 LINE",
"391 462 LINE",
"450 404 LINE",
"450 95 LINE",
"391 36 LINE",
"229 36 LINE"
);
}
);
width = 563;
},
{
anchors = (
{
name = bottom;
position = "{305, 0}";
},
{
name = top;
position = "{305, 498}";
}
);
background = {
paths = (
{
closed = 1;
nodes = (
"207 -212 LINE",
"207 53 LINE",
"271 0 LINE",
"461 0 LINE",
"569 108 LINE",
"569 390 LINE",
"461 498 LINE",
"270 498 LINE",
"199 427 LINE",
"199 498 LINE",
"75 498 LINE",
"75 -212 LINE"
);
},
{
closed = 1;
nodes = (
"207 185 LINE",
"207 303 LINE",
"288 384 LINE",
"402 384 LINE",
"437 349 LINE",
"437 149 LINE",
"402 114 LINE",
"286 114 LINE"
);
}
);
};
layerId = "D6105F7E-CAE1-4F7B-A52E-8AA6E6082DF8";
paths = (
{
closed = 1;
nodes = (
"192 -212 LINE",
"192 53 LINE",
"256 0 LINE",
"449 0 LINE",
"552 104 LINE",
"552 394 LINE",
"449 498 LINE",
"255 498 LINE",
"182 425 LINE",
"182 498 LINE",
"60 498 LINE",
"60 -212 LINE"
);
},
{
closed = 1;
nodes = (
"192 183 LINE",
"192 305 LINE",
"272 386 LINE",
"385 386 LINE",
"420 351 LINE",
"420 147 LINE",
"385 112 LINE",
"271 112 LINE"
);
}
);
width = 602;
},
{
anchors = (
{
name = bottom;
position = "{290, 0}";
},
{
name = top;
position = "{290, 498}";
}
);
layerId = "3C986DA2-2E28-42A4-B05D-29F449A87569";
paths = (
{
closed = 1;
nodes = (
"147 498 LINE",
"75 498 LINE",
"75 -212 LINE",
"149 -212 LINE",
"149 72 LINE",
"231 0 LINE",
"423 0 LINE",
"515 92 LINE",
"515 406 LINE",
"423 498 LINE",
"236 498 LINE",
"147 409 LINE"
);
},
{
closed = 1;
nodes = (
"256 432 LINE",
"391 432 LINE",
"441 383 LINE",
"441 115 LINE",
"391 66 LINE",
"245 66 LINE",
"149 153 LINE",
"149 325 LINE"
);
}
);
width = 580;
}
);
leftKerningGroup = n;
leftMetricsKey = n;
note = p;
rightKerningGroup = o;
rightMetricsKey = o;
unicode = 0070;
},
{
glyphname = q;
lastChange = "2018-05-14 12:07:51 +0000";
layers = (
{
anchors = (
{
name = bottom;
position = "{279, 0}";
},
{
name = top;
position = "{279, 498}";
}
);
background = {
paths = (
{
closed = 1;
nodes = (
"466 -212 LINE",
"466 416 LINE",
"384 498 LINE",
"147 498 LINE",
"65 416 LINE",
"65 82 LINE",
"147 0 LINE",
"315 0 LINE",
"429 114 LINE",
"429 -212 LINE"
);
},
{
closed = 1;
nodes = (
"103 94 LINE",
"103 404 LINE",
"162 462 LINE",
"369 462 LINE",
"428 404 LINE",
"428 168 LINE",
"300 36 LINE",
"162 36 LINE"
);
}
);
};
layerId = "39D11A97-A6D9-4B52-A6F5-15D5E4373676";
paths = (
{
closed = 1;
nodes = (
"476 -212 LINE",
"476 416 LINE",
"394 498 LINE",
"157 498 LINE",
"75 416 LINE",
"75 82 LINE",
"157 0 LINE",
"324 0 LINE",
"438 115 LINE",
"438 -212 LINE"
);
},
{
closed = 1;
nodes = (
"113 94 LINE",
"113 404 LINE",
"172 462 LINE",
"379 462 LINE",
"438 404 LINE",
"438 165 LINE",
"310 36 LINE",
"172 36 LINE"
);
}
);
width = 556;
},
{
anchors = (
{
name = bottom;
position = "{299, 0}";
},
{
name = top;
position = "{299, 498}";
}
);
background = {
paths = (
{
closed = 1;
nodes = (
"555 -212 LINE",
"555 390 LINE",
"448 498 LINE",
"168 498 LINE",
"65 394 LINE",
"65 104 LINE",
"168 0 LINE",
"352 0 LINE",
"421 69 LINE",
"421 -212 LINE"
);
},
{
closed = 1;
nodes = (
"197 147 LINE",
"197 351 LINE",
"231 386 LINE",
"389 386 LINE",
"423 351 LINE",
"423 208 LINE",
"332 112 LINE",
"231 112 LINE"
);
}
);
};
layerId = "D6105F7E-CAE1-4F7B-A52E-8AA6E6082DF8";
paths = (
{
closed = 1;
nodes = (
"540 -212 LINE",
"540 390 LINE",
"433 498 LINE",
"153 498 LINE",
"50 394 LINE",
"50 104 LINE",
"153 0 LINE",
"337 0 LINE",
"408 71 LINE",
"408 -212 LINE"
);
},
{
closed = 1;
nodes = (
"182 147 LINE",
"182 351 LINE",
"216 386 LINE",
"374 386 LINE",
"408 351 LINE",
"408 207 LINE",
"319 112 LINE",
"216 112 LINE"
);
}
);
width = 595;
},
{
anchors = (
{
name = bottom;
position = "{287, 0}";
},
{
name = top;
position = "{287, 498}";
}
);
layerId = "3C986DA2-2E28-42A4-B05D-29F449A87569";
paths = (
{
closed = 1;
nodes = (
"503 -212 LINE",
"503 406 LINE",
"411 498 LINE",
"157 498 LINE",
"65 406 LINE",
"65 92 LINE",
"157 0 LINE",
"332 0 LINE",
"429 97 LINE",
"429 -212 LINE"
);
},
{
closed = 1;
nodes = (
"139 115 LINE",
"139 383 LINE",
"189 432 LINE",
"379 432 LINE",
"429 383 LINE",
"429 184 LINE",
"314 66 LINE",
"189 66 LINE"
);
}
);
width = 573;
}
);
leftKerningGroup = o;
leftMetricsKey = o;
note = q;
rightKerningGroup = n;
unicode = 0071;
},
{
glyphname = r;
lastChange = "2018-05-14 12:07:51 +0000";
layers = (
{
anchors = (
{
name = bottom;
position = "{106, 0}";
},
{
name = top;
position = "{206, 498}";
}
);
background = {
paths = (
{
closed = 1;
nodes = (
"113 0 LINE",
"113 351 LINE",
"224 462 LINE",
"328 462 LINE",
"328 498 LINE",
"211 498 LINE",
"115 402 LINE",
"115 498 LINE",
"75 498 LINE",
"75 0 LINE"
);
}
);
};
layerId = "39D11A97-A6D9-4B52-A6F5-15D5E4373676";
paths = (
{
closed = 1;
nodes = (
"123 0 LINE",
"123 351 LINE",
"235 462 LINE",
"338 462 LINE",
"338 498 LINE",
"221 498 LINE",
"123 400 LINE",
"123 498 LINE",
"85 498 LINE",
"85 0 LINE"
);
}
);
width = 368;
},
{
anchors = (
{
name = bottom;
position = "{126, 0}";
},
{
name = top;
position = "{227, 498}";
}
);
background = {
paths = (
{
closed = 1;
nodes = (
"207 0 LINE",
"207 288 LINE",
"302 386 LINE",
"419 386 LINE",
"419 498 LINE",
"277 498 LINE",
"197 415 LINE",
"197 498 LINE",
"75 498 LINE",
"75 0 LINE"
);
}
);
};
layerId = "D6105F7E-CAE1-4F7B-A52E-8AA6E6082DF8";
paths = (
{
closed = 1;
nodes = (
"192 0 LINE",
"192 286 LINE",
"289 386 LINE",
"404 386 LINE",
"404 498 LINE",
"262 498 LINE",
"182 415 LINE",
"182 498 LINE",
"60 498 LINE",
"60 0 LINE"
);
}
);
width = 409;
},
{
anchors = (
{
name = bottom;
position = "{112, 0}";
},
{
name = top;
position = "{217, 498}";
}
);
layerId = "3C986DA2-2E28-42A4-B05D-29F449A87569";
paths = (
{
closed = 1;
nodes = (
"149 0 LINE",
"149 326 LINE",
"255 432 LINE",
"365 432 LINE",
"365 498 LINE",
"236 498 LINE",
"147 409 LINE",
"147 498 LINE",
"75 498 LINE",
"75 0 LINE"
);
}
);
width = 385;
}
);
leftKerningGroup = n;
leftMetricsKey = n;
note = r;
rightKerningGroup = r;
unicode = 0072;
},
{
glyphname = s;
lastChange = "2018-05-14 12:07:51 +0000";
layers = (
{
anchors = (
{
name = bottom;
position = "{252, 0}";
},
{
name = top;
position = "{245, 498}";
}
);
background = {
paths = (
{
closed = 1;
nodes = (
"352 0 LINE",
"425 73 LINE",
"425 194 LINE",
"351 268 LINE",
"143 268 LINE",
"92 318 LINE",
"92 412 LINE",
"144 462 LINE",
"326 462 LINE",
"377 414 LINE",
"377 364 LINE",
"415 364 LINE",
"415 426 LINE",
"343 498 LINE",
"127 498 LINE",
"54 425 LINE",
"54 303 LINE",
"123 234 LINE",
"337 234 LINE",
"387 184 LINE",
"387 85 LINE",
"336 36 LINE",
"139 36 LINE",
"88 85 LINE",
"88 134 LINE",
"50 134 LINE",
"50 72 LINE",
"122 0 LINE"
);
}
);
};
layerId = "39D11A97-A6D9-4B52-A6F5-15D5E4373676";
paths = (
{
closed = 1;
nodes = (
"362 0 LINE",
"435 73 LINE",
"435 194 LINE",
"361 268 LINE",
"153 268 LINE",
"102 318 LINE",
"102 412 LINE",
"154 462 LINE",
"336 462 LINE",
"387 414 LINE",
"387 364 LINE",
"425 364 LINE",
"425 426 LINE",
"353 498 LINE",
"137 498 LINE",
"64 425 LINE",
"64 303 LINE",
"133 234 LINE",
"347 234 LINE",
"397 184 LINE",
"397 85 LINE",
"346 36 LINE",
"149 36 LINE",
"98 85 LINE",
"98 134 LINE",
"60 134 LINE",
"60 72 LINE",
"132 0 LINE"
);
}
);
width = 495;
},
{
anchors = (
{
name = bottom;
position = "{276, 0}";
},
{
name = top;
position = "{264, 498}";
}
);
background = {
paths = (
{
closed = 1;
nodes = (
"421 0 LINE",
"516 96 LINE",
"516 209 LINE",
"422 304 LINE",
"207 304 LINE",
"184 328 LINE",
"184 365 LINE",
"206 388 LINE",
"354 388 LINE",
"376 365 LINE",
"376 337 LINE",
"506 337 LINE",
"506 400 LINE",
"409 498 LINE",
"149 498 LINE",
"54 402 LINE",
"54 293 LINE",
"148 198 LINE",
"363 198 LINE",
"386 174 LINE",
"386 133 LINE",
"364 110 LINE",
"202 110 LINE",
"180 133 LINE",
"180 161 LINE",
"50 161 LINE",
"50 98 LINE",
"147 0 LINE"
);
}
);
};
layerId = "D6105F7E-CAE1-4F7B-A52E-8AA6E6082DF8";
paths = (
{
closed = 1;
nodes = (
"406 0 LINE",
"501 96 LINE",
"501 209 LINE",
"407 304 LINE",
"192 304 LINE",
"169 328 LINE",
"169 367 LINE",
"191 390 LINE",
"339 390 LINE",
"361 367 LINE",
"361 339 LINE",
"491 339 LINE",
"491 400 LINE",
"394 498 LINE",
"134 498 LINE",
"39 402 LINE",
"39 293 LINE",
"133 198 LINE",
"348 198 LINE",
"371 174 LINE",
"371 131 LINE",
"349 108 LINE",
"187 108 LINE",
"165 131 LINE",
"165 159 LINE",
"35 159 LINE",
"35 98 LINE",
"132 0 LINE"
);
}
);
width = 536;
},
{
anchors = (
{
name = bottom;
position = "{260, 0}";
},
{
name = top;
position = "{251, 498}";
}
);
layerId = "3C986DA2-2E28-42A4-B05D-29F449A87569";
paths = (
{
closed = 1;
nodes = (
"380 0 LINE",
"462 82 LINE",
"462 200 LINE",
"380 282 LINE",
"168 282 LINE",
"128 322 LINE",
"128 395 LINE",
"168 434 LINE",
"338 434 LINE",
"378 395 LINE",
"378 354 LINE",
"452 354 LINE",
"452 416 LINE",
"370 498 LINE",
"136 498 LINE",
"54 416 LINE",
"54 299 LINE",
"133 220 LINE",
"348 220 LINE",
"388 180 LINE",
"388 103 LINE",
"348 64 LINE",
"164 64 LINE",
"124 103 LINE",
"124 144 LINE",
"50 144 LINE",
"50 82 LINE",
"132 0 LINE"
);
}
);
width = 512;
}
);
leftKerningGroup = s;
note = s;
rightKerningGroup = s;
unicode = 0073;
},
{
glyphname = t;
lastChange = "2018-05-14 12:59:08 +0000";
layers = (
{
anchors = (
{
name = bottom;
position = "{214, 0}";
},
{
name = center;
position = "{184, 249}";
},
{
name = top;
position = "{159, 638}";
},
{
name = topright;
position = "{357, 498}";
}
);
background = {
paths = (
{
closed = 1;
nodes = (
"313 0 LINE",
"313 35 LINE",
"216 35 LINE",
"157 93 LINE",
"157 462 LINE",
"313 462 LINE",
"313 498 LINE",
"157 498 LINE",
"157 660 LINE",
"121 660 LINE",
"121 498 LINE",
"30 498 LINE",
"30 463 LINE",
"119 463 LINE",
"119 82 LINE",
"201 0 LINE"
);
}
);
};
layerId = "39D11A97-A6D9-4B52-A6F5-15D5E4373676";
paths = (
{
closed = 1;
nodes = (
"323 0 LINE",
"323 35 LINE",
"227 35 LINE",
"167 95 LINE",
"167 462 LINE",
"323 462 LINE",
"323 498 LINE",
"167 498 LINE",
"167 660 LINE",
"131 660 LINE",
"131 498 LINE",
"40 498 LINE",
"40 463 LINE",
"129 463 LINE",
"129 82 LINE",
"211 0 LINE"
);
}
);
width = 373;
},
{
anchors = (
{
name = bottom;
position = "{233, 0}";
},
{
name = center;
position = "{205, 249}";
},
{
name = top;
position = "{179, 648}";
},
{
name = topright;
position = "{373, 498}";
}
);
background = {
paths = (
{
closed = 1;
nodes = (
"404 0 LINE",
"404 114 LINE",
"286 114 LINE",
"252 150 LINE",
"252 383 LINE",
"404 383 LINE",
"404 498 LINE",
"252 498 LINE",
"252 660 LINE",
"122 660 LINE",
"122 498 LINE",
"30 498 LINE",
"30 384 LINE",
"120 384 LINE",
"120 108 LINE",
"226 0 LINE"
);
}
);
};
layerId = "D6105F7E-CAE1-4F7B-A52E-8AA6E6082DF8";
paths = (
{
closed = 1;
nodes = (
"389 0 LINE",
"389 112 LINE",
"271 112 LINE",
"237 145 LINE",
"237 386 LINE",
"389 386 LINE",
"389 498 LINE",
"237 498 LINE",
"237 660 LINE",
"107 660 LINE",
"107 498 LINE",
"15 498 LINE",
"15 387 LINE",
"105 387 LINE",
"105 102 LINE",
"208 0 LINE"
);
}
);
width = 414;
},
{
anchors = (
{
name = bottom;
position = "{222, 0}";
},
{
name = center;
position = "{193, 249}";
},
{
name = top;
position = "{166, 638}";
},
{
name = topright;
position = "{365, 498}";
}
);
layerId = "3C986DA2-2E28-42A4-B05D-29F449A87569";
paths = (
{
closed = 1;
nodes = (
"350 0 LINE",
"350 65 LINE",
"244 65 LINE",
"194 115 LINE",
"194 432 LINE",
"350 432 LINE",
"350 498 LINE",
"194 498 LINE",
"194 660 LINE",
"122 660 LINE",
"122 498 LINE",
"30 498 LINE",
"30 433 LINE",
"120 433 LINE",
"120 92 LINE",
"212 0 LINE"
);
}
);
width = 390;
}
);
leftKerningGroup = t;
note = t;
rightKerningGroup = t;
unicode = 0074;
},
{
glyphname = u;
lastChange = "2018-05-14 12:59:43 +0000";
layers = (
{
anchors = (
{
name = bottom;
position = "{274, 0}";
},
{
name = ogonek;
position = "{465, 0}";
},
{
name = top;
position = "{272, 498}";
},
{
name = topright;
position = "{511, 322}";
}
);
background = {
paths = (
{
closed = 1;
nodes = (
"294 0 LINE",
"415 121 LINE",
"415 0 LINE",
"455 0 LINE",
"455 498 LINE",
"417 498 LINE",
"417 176 LINE",
"277 36 LINE",
"167 36 LINE",
"108 94 LINE",
"108 498 LINE",
"70 498 LINE",
"70 82 LINE",
"152 0 LINE"
);
}
);
};
layerId = "39D11A97-A6D9-4B52-A6F5-15D5E4373676";
paths = (
{
closed = 1;
nodes = (
"302 0 LINE",
"427 125 LINE",
"427 0 LINE",
"465 0 LINE",
"465 498 LINE",
"427 498 LINE",
"427 176 LINE",
"288 36 LINE",
"177 36 LINE",
"118 94 LINE",
"118 498 LINE",
"80 498 LINE",
"80 82 LINE",
"162 0 LINE"
);
}
);
width = 550;
},
{
anchors = (
{
name = bottom;
position = "{295, 0}";
},
{
name = ogonek;
position = "{531, 0}";
},
{
name = top;
position = "{293, 498}";
},
{
name = topright;
position = "{529, 317}";
}
);
background = {
paths = (
{
closed = 1;
nodes = (
"338 0 LINE",
"424 85 LINE",
"424 0 LINE",
"546 0 LINE",
"546 498 LINE",
"414 498 LINE",
"414 210 LINE",
"316 112 LINE",
"236 112 LINE",
"202 146 LINE",
"202 498 LINE",
"70 498 LINE",
"70 105 LINE",
"175 0 LINE"
);
}
);
};
layerId = "D6105F7E-CAE1-4F7B-A52E-8AA6E6082DF8";
paths = (
{
closed = 1;
nodes = (
"323 0 LINE",
"409 85 LINE",
"409 0 LINE",
"531 0 LINE",
"531 498 LINE",
"399 498 LINE",
"399 210 LINE",
"301 112 LINE",
"221 112 LINE",
"187 146 LINE",
"187 498 LINE",
"55 498 LINE",
"55 105 LINE",
"160 0 LINE"
);
}
);
width = 591;
},
{
anchors = (
{
name = bottom;
position = "{285, 0}";
},
{
name = ogonek;
position = "{492, 0}";
},
{
name = top;
position = "{283, 498}";
},
{
name = topright;
position = "{520, 297}";
}
);
layerId = "3C986DA2-2E28-42A4-B05D-29F449A87569";
paths = (
{
closed = 1;
nodes = (
"314 0 LINE",
"420 106 LINE",
"420 0 LINE",
"492 0 LINE",
"492 498 LINE",
"418 498 LINE",
"418 190 LINE",
"294 66 LINE",
"194 66 LINE",
"144 115 LINE",
"144 498 LINE",
"70 498 LINE",
"70 92 LINE",
"162 0 LINE"
);
}
);
width = 567;
}
);
leftKerningGroup = u;
note = u;
rightKerningGroup = u;
unicode = 0075;
},
{
glyphname = v;
lastChange = "2018-05-14 12:07:51 +0000";
layers = (
{
anchors = (
{
name = bottom;
position = "{229, 0}";
},
{
name = top;
position = "{229, 498}";
}
);
background = {
paths = (
{
closed = 1;
nodes = (
"257 0 LINE",
"428 498 LINE",
"388 498 LINE",
"231 34 LINE",
"227 34 LINE",
"68 498 LINE",
"28 498 LINE",
"201 0 LINE"
);
}
);
};
layerId = "39D11A97-A6D9-4B52-A6F5-15D5E4373676";
paths = (
{
closed = 1;
nodes = (
"257 0 LINE",
"431 498 LINE",
"390 498 LINE",
"231 34 LINE",
"227 34 LINE",
"66 498 LINE",
"25 498 LINE",
"201 0 LINE"
);
}
);
width = 456;
},
{
anchors = (
{
name = bottom;
position = "{255, 0}";
},
{
name = top;
position = "{255, 498}";
}
);
background = {
paths = (
{
closed = 1;
nodes = (
"334 0 LINE",
"523 498 LINE",
"386 498 LINE",
"272 151 LINE",
"268 151 LINE",
"154 498 LINE",
"17 498 LINE",
"206 0 LINE"
);
}
);
};
layerId = "D6105F7E-CAE1-4F7B-A52E-8AA6E6082DF8";
paths = (
{
closed = 1;
nodes = (
"319 0 LINE",
"510 498 LINE",
"373 498 LINE",
"257 151 LINE",
"253 151 LINE",
"137 498 LINE",
"0 498 LINE",
"191 0 LINE"
);
}
);
width = 510;
},
{
anchors = (
{
name = bottom;
position = "{241, 0}";
},
{
name = top;
position = "{241, 498}";
}
);
layerId = "3C986DA2-2E28-42A4-B05D-29F449A87569";
paths = (
{
closed = 1;
nodes = (
"284 0 LINE",
"467 498 LINE",
"391 498 LINE",
"243 74 LINE",
"239 74 LINE",
"91 498 LINE",
"15 498 LINE",
"198 0 LINE"
);
}
);
width = 482;
}
);
note = v;
rightMetricsKey = "=|";
unicode = 0076;
},
{
glyphname = w;
lastChange = "2018-05-14 12:07:51 +0000";
layers = (
{
anchors = (
{
name = bottom;
position = "{341, 0}";
},
{
name = top;
position = "{341, 498}";
}
);
background = {
paths = (
{
closed = 1;
nodes = (
"214 0 LINE",
"339 438 LINE",
"343 438 LINE",
"458 0 LINE",
"514 0 LINE",
"636 498 LINE",
"598 498 LINE",
"487 35 LINE",
"483 35 LINE",
"367 478 LINE",
"315 478 LINE",
"189 35 LINE",
"185 35 LINE",
"83 498 LINE",
"45 498 LINE",
"158 0 LINE"
);
}
);
};
layerId = "39D11A97-A6D9-4B52-A6F5-15D5E4373676";
paths = (
{
closed = 1;
nodes = (
"215 0 LINE",
"339 438 LINE",
"343 438 LINE",
"457 0 LINE",
"514 0 LINE",
"636 498 LINE",
"597 498 LINE",
"487 34 LINE",
"483 34 LINE",
"367 478 LINE",
"315 478 LINE",
"189 34 LINE",
"185 34 LINE",
"84 498 LINE",
"45 498 LINE",
"158 0 LINE"
);
}
);
width = 681;
},
{
anchors = (
{
name = bottom;
position = "{363, 0}";
},
{
name = top;
position = "{363, 498}";
}
);
background = {
paths = (
{
closed = 1;
nodes = (
"277 0 LINE",
"376 316 LINE",
"380 316 LINE",
"472 0 LINE",
"595 0 LINE",
"724 498 LINE",
"590 498 LINE",
"525 184 LINE",
"521 184 LINE",
"440 478 LINE",
"320 478 LINE",
"232 184 LINE",
"228 184 LINE",
"169 498 LINE",
"35 498 LINE",
"155 0 LINE"
);
}
);
};
layerId = "D6105F7E-CAE1-4F7B-A52E-8AA6E6082DF8";
paths = (
{
closed = 1;
nodes = (
"262 0 LINE",
"361 316 LINE",
"365 316 LINE",
"457 0 LINE",
"580 0 LINE",
"709 498 LINE",
"575 498 LINE",
"510 184 LINE",
"506 184 LINE",
"425 478 LINE",
"305 478 LINE",
"217 184 LINE",
"213 184 LINE",
"154 498 LINE",
"20 498 LINE",
"140 0 LINE"
);
}
);
width = 729;
},
{
anchors = (
{
name = bottom;
position = "{354, 0}";
},
{
name = top;
position = "{354, 498}";
}
);
layerId = "3C986DA2-2E28-42A4-B05D-29F449A87569";
paths = (
{
closed = 1;
nodes = (
"237 0 LINE",
"352 394 LINE",
"356 394 LINE",
"459 0 LINE",
"545 0 LINE",
"672 498 LINE",
"598 498 LINE",
"503 84 LINE",
"499 84 LINE",
"395 478 LINE",
"313 478 LINE",
"200 84 LINE",
"196 84 LINE",
"109 498 LINE",
"35 498 LINE",
"153 0 LINE"
);
}
);
width = 707;
}
);
leftKerningGroup = w;
note = w;
rightKerningGroup = w;
rightMetricsKey = "=|";
unicode = 0077;
},
{
glyphname = x;
lastChange = "2018-05-14 12:07:51 +0000";
layers = (
{
anchors = (
{
name = bottom;
position = "{235, 0}";
},
{
name = top;
position = "{235, 498}";
}
);
background = {
paths = (
{
closed = 1;
nodes = (
"439 0 LINE",
"78 498 LINE",
"35 498 LINE",
"396 0 LINE"
);
},
{
closed = 1;
nodes = (
"73 0 LINE",
"434 498 LINE",
"391 498 LINE",
"30 0 LINE"
);
}
);
};
layerId = "39D11A97-A6D9-4B52-A6F5-15D5E4373676";
paths = (
{
closed = 1;
nodes = (
"439 0 LINE",
"78 498 LINE",
"35 498 LINE",
"396 0 LINE"
);
},
{
closed = 1;
nodes = (
"73 0 LINE",
"434 498 LINE",
"391 498 LINE",
"30 0 LINE"
);
}
);
width = 469;
},
{
anchors = (
{
name = bottom;
position = "{264, 0}";
},
{
name = top;
position = "{264, 498}";
}
);
background = {
paths = (
{
closed = 1;
nodes = (
"540 0 LINE",
"173 498 LINE",
"23 498 LINE",
"390 0 LINE"
);
},
{
closed = 1;
nodes = (
"168 0 LINE",
"535 498 LINE",
"385 498 LINE",
"18 0 LINE"
);
}
);
};
layerId = "D6105F7E-CAE1-4F7B-A52E-8AA6E6082DF8";
paths = (
{
closed = 1;
nodes = (
"523 0 LINE",
"159 498 LINE",
"10 498 LINE",
"374 0 LINE"
);
},
{
closed = 1;
nodes = (
"154 0 LINE",
"518 498 LINE",
"369 498 LINE",
"5 0 LINE"
);
}
);
width = 528;
},
{
anchors = (
{
name = bottom;
position = "{244, 0}";
},
{
name = top;
position = "{244, 498}";
}
);
layerId = "3C986DA2-2E28-42A4-B05D-29F449A87569";
paths = (
{
closed = 1;
nodes = (
"386 0 LINE",
"468 0 LINE",
"107 498 LINE",
"25 498 LINE"
);
},
{
closed = 1;
nodes = (
"381 498 LINE",
"20 0 LINE",
"102 0 LINE",
"463 498 LINE"
);
}
);
width = 488;
}
);
note = x;
rightMetricsKey = "=|";
unicode = 0078;
},
{
glyphname = y;
lastChange = "2018-05-14 12:07:51 +0000";
layers = (
{
anchors = (
{
name = bottom;
position = "{279, -218}";
},
{
name = top;
position = "{275, 498}";
}
);
background = {
paths = (
{
closed = 1;
nodes = (
"385 -216 LINE",
"467 -135 LINE",
"467 498 LINE",
"429 498 LINE",
"429 180 LINE",
"286 36 LINE",
"177 36 LINE",
"118 94 LINE",
"118 498 LINE",
"80 498 LINE",
"80 82 LINE",
"162 0 LINE",
"300 0 LINE",
"429 129 LINE",
"429 -122 LINE",
"370 -180 LINE",
"149 -180 LINE",
"149 -216 LINE"
);
}
);
};
layerId = "39D11A97-A6D9-4B52-A6F5-15D5E4373676";
paths = (
{
closed = 1;
nodes = (
"385 -216 LINE",
"467 -135 LINE",
"467 498 LINE",
"429 498 LINE",
"429 180 LINE",
"286 36 LINE",
"177 36 LINE",
"118 94 LINE",
"118 498 LINE",
"80 498 LINE",
"80 82 LINE",
"162 0 LINE",
"300 0 LINE",
"429 129 LINE",
"429 -122 LINE",
"370 -180 LINE",
"149 -180 LINE",
"149 -216 LINE"
);
}
);
width = 552;
},
{
anchors = (
{
name = bottom;
position = "{300, -221}";
},
{
name = top;
position = "{295, 498}";
}
);
background = {
paths = (
{
closed = 1;
nodes = (
"442 -221 LINE",
"550 -114 LINE",
"550 498 LINE",
"418 498 LINE",
"418 210 LINE",
"323 112 LINE",
"236 112 LINE",
"202 147 LINE",
"202 498 LINE",
"70 498 LINE",
"70 108 LINE",
"177 0 LINE",
"347 0 LINE",
"418 74 LINE",
"418 -74 LINE",
"384 -109 LINE",
"138 -109 LINE",
"138 -221 LINE"
);
}
);
};
layerId = "D6105F7E-CAE1-4F7B-A52E-8AA6E6082DF8";
paths = (
{
closed = 1;
nodes = (
"425 -221 LINE",
"533 -114 LINE",
"533 498 LINE",
"401 498 LINE",
"401 211 LINE",
"308 112 LINE",
"221 112 LINE",
"187 147 LINE",
"187 498 LINE",
"55 498 LINE",
"55 108 LINE",
"162 0 LINE",
"327 0 LINE",
"401 74 LINE",
"401 -74 LINE",
"367 -109 LINE",
"123 -109 LINE",
"123 -221 LINE"
);
}
);
width = 593;
},
{
anchors = (
{
name = bottom;
position = "{288, -218}";
},
{
name = top;
position = "{284, 498}";
}
);
background = {
paths = (
{
closed = 1;
nodes = (
"404 -218 LINE",
"496 -127 LINE",
"496 498 LINE",
"422 498 LINE",
"422 192 LINE",
"296 66 LINE",
"194 66 LINE",
"144 115 LINE",
"144 498 LINE",
"70 498 LINE",
"70 92 LINE",
"162 0 LINE",
"316 0 LINE",
"422 106 LINE",
"422 -103 LINE",
"372 -152 LINE",
"139 -152 LINE",
"139 -218 LINE"
);
}
);
};
layerId = "3C986DA2-2E28-42A4-B05D-29F449A87569";
paths = (
{
closed = 1;
nodes = (
"402 -218 LINE",
"494 -127 LINE",
"494 498 LINE",
"420 498 LINE",
"420 192 LINE",
"294 66 LINE",
"194 66 LINE",
"144 115 LINE",
"144 498 LINE",
"70 498 LINE",
"70 92 LINE",
"162 0 LINE",
"314 0 LINE",
"420 106 LINE",
"420 -103 LINE",
"370 -152 LINE",
"139 -152 LINE",
"139 -218 LINE"
);
}
);
width = 569;
}
);
leftKerningGroup = u;
leftMetricsKey = u;
note = y;
rightKerningGroup = u;
rightMetricsKey = u;
unicode = 0079;
},
{
glyphname = z;
lastChange = "2018-05-14 12:07:51 +0000";
layers = (
{
anchors = (
{
name = bottom;
position = "{235, 0}";
},
{
name = top;
position = "{234, 498}";
}
);
background = {
paths = (
{
closed = 1;
nodes = (
"397 0 LINE",
"397 34 LINE",
"72 34 LINE",
"72 36 LINE",
"397 450 LINE",
"397 498 LINE",
"50 498 LINE",
"50 464 LINE",
"365 464 LINE",
"365 462 LINE",
"40 48 LINE",
"40 0 LINE"
);
}
);
};
layerId = "39D11A97-A6D9-4B52-A6F5-15D5E4373676";
paths = (
{
closed = 1;
nodes = (
"407 0 LINE",
"407 34 LINE",
"90 34 LINE",
"90 36 LINE",
"407 455 LINE",
"407 498 LINE",
"60 498 LINE",
"60 464 LINE",
"367 464 LINE",
"367 462 LINE",
"50 43 LINE",
"50 0 LINE"
);
}
);
width = 457;
},
{
anchors = (
{
name = bottom;
position = "{252, 0}";
},
{
name = top;
position = "{254, 498}";
}
);
background = {
paths = (
{
closed = 1;
nodes = (
"50 388 LINE",
"319 388 LINE",
"319 386 LINE",
"40 103 LINE",
"40 0 LINE",
"494 0 LINE",
"494 110 LINE",
"215 110 LINE",
"215 112 LINE",
"494 395 LINE",
"494 498 LINE",
"50 498 LINE"
);
}
);
};
layerId = "D6105F7E-CAE1-4F7B-A52E-8AA6E6082DF8";
paths = (
{
closed = 1;
nodes = (
"473 0 LINE",
"473 107 LINE",
"196 107 LINE",
"196 109 LINE",
"473 396 LINE",
"473 498 LINE",
"35 498 LINE",
"35 391 LINE",
"302 391 LINE",
"302 389 LINE",
"25 102 LINE",
"25 0 LINE"
);
}
);
width = 498;
},
{
anchors = (
{
name = bottom;
position = "{241, 0}";
},
{
name = top;
position = "{241, 498}";
}
);
layerId = "3C986DA2-2E28-42A4-B05D-29F449A87569";
paths = (
{
closed = 1;
nodes = (
"434 0 LINE",
"434 62 LINE",
"125 62 LINE",
"125 64 LINE",
"434 429 LINE",
"434 498 LINE",
"50 498 LINE",
"50 436 LINE",
"349 436 LINE",
"349 434 LINE",
"40 69 LINE",
"40 0 LINE"
);
}
);
width = 474;
}
);
leftKerningGroup = z;
note = z;
rightKerningGroup = z;
unicode = 007A;
},
{
glyphname = AE;
lastChange = "2018-05-14 13:02:05 +0000";
layers = (
{
anchors = (
{
name = bottom;
position = "{460, 0}";
},
{
name = top;
position = "{486, 700}";
}
);
background = {
paths = (
{
closed = 1;
nodes = (
"458 195 LINE",
"458 232 LINE",
"136 232 LINE",
"136 195 LINE"
);
},
{
closed = 1;
nodes = (
"845 37 LINE",
"487 37 LINE",
"487 333 LINE",
"816 333 LINE",
"816 370 LINE",
"487 370 LINE",
"487 663 LINE",
"845 663 LINE",
"845 700 LINE",
"333 700 LINE",
"25 0 LINE",
"66 0 LINE",
"357 663 LINE",
"448 663 LINE",
"448 0 LINE",
"845 0 LINE"
);
}
);
};
layerId = "39D11A97-A6D9-4B52-A6F5-15D5E4373676";
paths = (
{
closed = 1;
nodes = (
"66 0 LINE",
"357 663 LINE",
"448 663 LINE",
"448 0 LINE",
"845 0 LINE",
"845 37 LINE",
"487 37 LINE",
"487 333 LINE",
"816 333 LINE",
"816 370 LINE",
"487 370 LINE",
"487 663 LINE",
"845 663 LINE",
"845 700 LINE",
"333 700 LINE",
"25 0 LINE"
);
},
{
closed = 1;
nodes = (
"458 195 LINE",
"458 232 LINE",
"136 232 LINE",
"136 195 LINE"
);
}
);
width = 905;
},
{
anchors = (
{
name = bottom;
position = "{488, 0}";
},
{
name = top;
position = "{532, 700}";
}
);
background = {
paths = (
{
closed = 1;
nodes = (
"142 0 LINE",
"395 580 LINE",
"428 580 LINE",
"428 0 LINE",
"922 0 LINE",
"922 118 LINE",
"546 118 LINE",
"546 294 LINE",
"893 294 LINE",
"893 410 LINE",
"546 410 LINE",
"546 582 LINE",
"922 582 LINE",
"922 700 LINE",
"310 700 LINE",
"0 0 LINE"
);
},
{
closed = 1;
nodes = (
"535 179 LINE",
"535 293 LINE",
"167 293 LINE",
"167 179 LINE"
);
}
);
};
layerId = "D6105F7E-CAE1-4F7B-A52E-8AA6E6082DF8";
paths = (
{
closed = 1;
nodes = (
"142 0 LINE",
"395 582 LINE",
"428 582 LINE",
"428 0 LINE",
"922 0 LINE",
"922 118 LINE",
"564 118 LINE",
"564 294 LINE",
"893 294 LINE",
"893 410 LINE",
"564 410 LINE",
"564 582 LINE",
"922 582 LINE",
"922 700 LINE",
"313 700 LINE",
"0 0 LINE"
);
},
{
closed = 1;
nodes = (
"535 179 LINE",
"535 293 LINE",
"167 293 LINE",
"167 179 LINE"
);
}
);
width = 957;
},
{
anchors = (
{
name = bottom;
position = "{470, 0}";
},
{
name = top;
position = "{504, 700}";
}
);
layerId = "3C986DA2-2E28-42A4-B05D-29F449A87569";
paths = (
{
closed = 1;
nodes = (
"95 0 LINE",
"370 632 LINE",
"440 632 LINE",
"440 0 LINE",
"874 0 LINE",
"874 68 LINE",
"516 68 LINE",
"516 316 LINE",
"845 316 LINE",
"845 384 LINE",
"516 384 LINE",
"516 632 LINE",
"874 632 LINE",
"874 700 LINE",
"324 700 LINE",
"15 0 LINE"
);
},
{
closed = 1;
nodes = (
"487 189 LINE",
"487 257 LINE",
"129 257 LINE",
"129 189 LINE"
);
}
);
width = 924;
}
);
leftKerningGroup = A;
note = AE;
rightKerningGroup = E;
rightMetricsKey = E;
unicode = 00C6;
},
{
glyphname = Eth;
lastChange = "2018-05-14 13:02:05 +0000";
layers = (
{
components = (
{
name = D;
transform = "{1, 0, 0, 1, 40, 0}";
}
);
layerId = "39D11A97-A6D9-4B52-A6F5-15D5E4373676";
paths = (
{
closed = 1;
nodes = (
"346 332 LINE",
"346 368 LINE",
"35 368 LINE",
"35 332 LINE"
);
}
);
width = 687;
},
{
background = {
paths = (
{
closed = 1;
nodes = (
"405 292 LINE",
"405 410 LINE",
"10 410 LINE",
"10 292 LINE"
);
}
);
};
components = (
{
name = D;
transform = "{1, 0, 0, 1, 50, 0}";
}
);
layerId = "D6105F7E-CAE1-4F7B-A52E-8AA6E6082DF8";
paths = (
{
closed = 1;
nodes = (
"405 292 LINE",
"405 410 LINE",
"10 410 LINE",
"10 292 LINE"
);
}
);
width = 738;
},
{
components = (
{
name = D;
transform = "{1, 0, 0, 1, 40, 0}";
}
);
layerId = "3C986DA2-2E28-42A4-B05D-29F449A87569";
paths = (
{
closed = 1;
nodes = (
"25 318 LINE",
"365 318 LINE",
"365 384 LINE",
"25 384 LINE"
);
}
);
width = 704;
}
);
note = Eth;
rightKerningGroup = O;
rightMetricsKey = D;
unicode = 00D0;
},
{
glyphname = Dcroat;
lastChange = "2018-05-14 13:02:05 +0000";
layers = (
{
background = {
paths = (
{
closed = 1;
nodes = (
"352 332 LINE",
"352 368 LINE",
"54 368 LINE",
"54 332 LINE"
);
}
);
};
components = (
{
name = D;
transform = "{1, 0, 0, 1, 40, 0}";
}
);
layerId = "39D11A97-A6D9-4B52-A6F5-15D5E4373676";
paths = (
{
closed = 1;
nodes = (
"346 332 LINE",
"346 368 LINE",
"35 368 LINE",
"35 332 LINE"
);
}
);
width = 687;
},
{
components = (
{
name = D;
transform = "{1, 0, 0, 1, 50, 0}";
}
);
layerId = "D6105F7E-CAE1-4F7B-A52E-8AA6E6082DF8";
paths = (
{
closed = 1;
nodes = (
"405 292 LINE",
"405 410 LINE",
"10 410 LINE",
"10 292 LINE"
);
}
);
width = 738;
},
{
components = (
{
name = D;
transform = "{1, 0, 0, 1, 40, 0}";
}
);
layerId = "3C986DA2-2E28-42A4-B05D-29F449A87569";
paths = (
{
closed = 1;
nodes = (
"25 318 LINE",
"365 318 LINE",
"365 384 LINE",
"25 384 LINE"
);
}
);
width = 704;
}
);
note = Dcroat;
rightKerningGroup = O;
rightMetricsKey = D;
unicode = 0110;
},
{
glyphname = Hbar;
lastChange = "2018-05-14 13:02:05 +0000";
layers = (
{
background = {
paths = (
{
closed = 1;
nodes = (
"732 514 LINE",
"732 550 LINE",
"25 550 LINE",
"25 514 LINE"
);
}
);
};
components = (
{
name = H;
transform = "{1, 0, 0, 1, 50, 0}";
}
);
layerId = "39D11A97-A6D9-4B52-A6F5-15D5E4373676";
paths = (
{
closed = 1;
nodes = (
"722 517 LINE",
"722 552 LINE",
"35 552 LINE",
"35 517 LINE"
);
}
);
width = 757;
},
{
background = {
paths = (
{
closed = 1;
nodes = (
"743 497 LINE",
"743 594 LINE",
"5 594 LINE",
"5 497 LINE"
);
}
);
};
components = (
{
name = H;
transform = "{1, 0, 0, 1, 34, 0}";
}
);
layerId = "D6105F7E-CAE1-4F7B-A52E-8AA6E6082DF8";
paths = (
{
closed = 1;
nodes = (
"757 494 LINE",
"757 594 LINE",
"10 594 LINE",
"10 494 LINE"
);
}
);
width = 767;
},
{
components = (
{
name = H;
transform = "{1, 0, 0, 1, 45, 0}";
}
);
layerId = "3C986DA2-2E28-42A4-B05D-29F449A87569";
paths = (
{
closed = 1;
nodes = (
"739 509 LINE",
"739 569 LINE",
"25 569 LINE",
"25 509 LINE"
);
}
);
width = 764;
}
);
note = Hbar;
unicode = 0126;
},
{
glyphname = Lslash;
lastChange = "2018-05-14 13:02:05 +0000";
layers = (
{
background = {
paths = (
{
closed = 1;
nodes = (
"321 404 LINE",
"321 445 LINE",
"25 245 LINE",
"25 204 LINE"
);
}
);
};
components = (
{
name = L;
transform = "{1, 0, 0, 1, 45, 0}";
}
);
layerId = "39D11A97-A6D9-4B52-A6F5-15D5E4373676";
paths = (
{
closed = 1;
nodes = (
"321 403 LINE",
"321 446 LINE",
"25 246 LINE",
"25 203 LINE"
);
}
);
width = 565;
},
{
background = {
paths = (
{
closed = 1;
nodes = (
"366 390 LINE",
"366 507 LINE",
"10 297 LINE",
"10 180 LINE"
);
}
);
};
components = (
{
name = L;
transform = "{1, 0, 0, 1, 30, 0}";
}
);
layerId = "D6105F7E-CAE1-4F7B-A52E-8AA6E6082DF8";
paths = (
{
closed = 1;
nodes = (
"366 390 LINE",
"366 507 LINE",
"0 291 LINE",
"0 174 LINE"
);
}
);
width = 591;
},
{
components = (
{
name = L;
transform = "{1, 0, 0, 1, 35, 0}";
}
);
layerId = "3C986DA2-2E28-42A4-B05D-29F449A87569";
paths = (
{
closed = 1;
nodes = (
"15 210 LINE",
"311 410 LINE",
"311 480 LINE",
"15 280 LINE"
);
}
);
width = 572;
}
);
note = Lslash;
rightKerningGroup = L;
rightMetricsKey = L;
unicode = 0141;
},
{
glyphname = Eng;
lastChange = "2018-05-14 13:02:05 +0000";
layers = (
{
layerId = "39D11A97-A6D9-4B52-A6F5-15D5E4373676";
paths = (
{
closed = 1;
nodes = (
"126 0 LINE",
"126 639 LINE",
"128 639 LINE",
"517 0 LINE",
"561 0 LINE",
"561 700 LINE",
"526 700 LINE",
"526 62 LINE",
"524 62 LINE",
"134 700 LINE",
"90 700 LINE",
"90 0 LINE"
);
},
{
closed = 1;
nodes = (
"480 -218 LINE",
"561 -137 LINE",
"561 28 LINE",
"523 28 LINE",
"523 -122 LINE",
"463 -182 LINE",
"373 -182 LINE",
"373 -218 LINE"
);
}
);
width = 651;
},
{
background = {
paths = (
{
closed = 1;
nodes = (
"507 225 LINE",
"505 225 LINE",
"187 700 LINE",
"65 700 LINE",
"65 0 LINE",
"196 0 LINE",
"196 474 LINE",
"198 474 LINE",
"516 0 LINE",
"638 0 LINE",
"638 700 LINE",
"507 700 LINE"
);
},
{
closed = 1;
nodes = (
"531 -218 LINE",
"638 -111 LINE",
"638 498 LINE",
"507 498 LINE",
"507 -69 LINE",
"472 -104 LINE",
"357 -104 LINE",
"357 -218 LINE"
);
}
);
};
layerId = "D6105F7E-CAE1-4F7B-A52E-8AA6E6082DF8";
paths = (
{
closed = 1;
nodes = (
"196 0 LINE",
"196 474 LINE",
"198 474 LINE",
"516 0 LINE",
"638 0 LINE",
"638 700 LINE",
"507 700 LINE",
"507 225 LINE",
"505 225 LINE",
"187 700 LINE",
"65 700 LINE",
"65 0 LINE"
);
},
{
closed = 1;
nodes = (
"531 -218 LINE",
"638 -111 LINE",
"638 498 LINE",
"507 498 LINE",
"507 -69 LINE",
"472 -104 LINE",
"357 -104 LINE",
"357 -218 LINE"
);
}
);
width = 703;
},
{
layerId = "3C986DA2-2E28-42A4-B05D-29F449A87569";
paths = (
{
closed = 1;
nodes = (
"518 124 LINE",
"516 124 LINE",
"154 700 LINE",
"80 700 LINE",
"80 0 LINE",
"152 0 LINE",
"152 576 LINE",
"154 576 LINE",
"516 0 LINE",
"590 0 LINE",
"590 700 LINE",
"518 700 LINE"
);
},
{
closed = 1;
nodes = (
"499 -218 LINE",
"590 -127 LINE",
"590 98 LINE",
"516 98 LINE",
"516 -103 LINE",
"466 -152 LINE",
"366 -152 LINE",
"366 -218 LINE"
);
}
);
width = 670;
}
);
leftMetricsKey = N;
note = Eng;
rightMetricsKey = N;
unicode = 014A;
},
{
glyphname = Oslash;
lastChange = "2018-05-14 13:02:05 +0000";
layers = (
{
background = {
paths = (
{
closed = 1;
nodes = (
"90 -30 LINE",
"612 730 LINE",
"569 730 LINE",
"47 -30 LINE"
);
}
);
};
components = (
{
name = O;
}
);
layerId = "39D11A97-A6D9-4B52-A6F5-15D5E4373676";
paths = (
{
closed = 1;
nodes = (
"93 -30 LINE",
"610 730 LINE",
"566 730 LINE",
"49 -30 LINE"
);
}
);
width = 659;
},
{
background = {
paths = (
{
closed = 1;
nodes = (
"96 -40 LINE",
"701 740 LINE",
"592 740 LINE",
"-13 -40 LINE"
);
}
);
};
components = (
{
name = O;
}
);
layerId = "D6105F7E-CAE1-4F7B-A52E-8AA6E6082DF8";
paths = (
{
closed = 1;
nodes = (
"96 -40 LINE",
"701 740 LINE",
"592 740 LINE",
"-13 -40 LINE"
);
}
);
width = 700;
},
{
background = {
paths = (
{
closed = 1;
nodes = (
"30 -30 LINE",
"108 -30 LINE",
"648 730 LINE",
"570 730 LINE"
);
}
);
};
components = (
{
name = O;
}
);
layerId = "3C986DA2-2E28-42A4-B05D-29F449A87569";
paths = (
{
closed = 1;
nodes = (
"28 -30 LINE",
"106 -30 LINE",
"648 730 LINE",
"570 730 LINE"
);
}
);
width = 676;
}
);
leftKerningGroup = O;
widthMetricsKey = O;
note = Oslash;
rightKerningGroup = O;
unicode = 00D8;
},
{
glyphname = OE;
lastChange = "2018-05-14 13:02:05 +0000";
layers = (
{
background = {
paths = (
{
closed = 1;
nodes = (
"467 0 LINE",
"587 120 LINE",
"587 580 LINE",
"467 700 LINE",
"179 700 LINE",
"79 600 LINE",
"79 100 LINE",
"179 0 LINE"
);
},
{
closed = 1;
nodes = (
"118 113 LINE",
"118 587 LINE",
"195 663 LINE",
"449 663 LINE",
"542 571 LINE",
"542 129 LINE",
"449 37 LINE",
"195 37 LINE"
);
},
{
closed = 1;
nodes = (
"928 0 LINE",
"928 37 LINE",
"581 37 LINE",
"581 330 LINE",
"899 330 LINE",
"899 368 LINE",
"581 368 LINE",
"581 663 LINE",
"928 663 LINE",
"928 700 LINE",
"534 700 LINE",
"534 585 LINE",
"536 569 LINE",
"536 71 LINE",
"534 72 LINE",
"534 0 LINE"
);
}
);
};
layerId = "39D11A97-A6D9-4B52-A6F5-15D5E4373676";
paths = (
{
closed = 1;
nodes = (
"461 0 LINE",
"579 118 LINE",
"579 582 LINE",
"461 700 LINE",
"180 700 LINE",
"80 600 LINE",
"80 100 LINE",
"180 0 LINE"
);
},
{
closed = 1;
nodes = (
"119 113 LINE",
"119 587 LINE",
"196 663 LINE",
"445 663 LINE",
"540 569 LINE",
"540 131 LINE",
"445 37 LINE",
"196 37 LINE"
);
},
{
closed = 1;
nodes = (
"937 0 LINE",
"937 37 LINE",
"579 37 LINE",
"579 333 LINE",
"908 333 LINE",
"908 370 LINE",
"579 370 LINE",
"579 663 LINE",
"937 663 LINE",
"937 700 LINE",
"540 700 LINE",
"540 602 LINE",
"540 594 LINE",
"540 104 LINE",
"540 98 LINE",
"540 0 LINE"
);
}
);
width = 997;
},
{
background = {
paths = (
{
closed = 1;
nodes = (
"507 0 LINE",
"653 146 LINE",
"653 554 LINE",
"507 700 LINE",
"181 700 LINE",
"55 574 LINE",
"55 126 LINE",
"181 0 LINE"
);
},
{
closed = 1;
nodes = (
"191 171 LINE",
"191 529 LINE",
"242 580 LINE",
"456 580 LINE",
"517 519 LINE",
"517 181 LINE",
"456 120 LINE",
"242 120 LINE"
);
},
{
closed = 1;
nodes = (
"1011 0 LINE",
"1011 120 LINE",
"653 120 LINE",
"653 290 LINE",
"982 290 LINE",
"982 410 LINE",
"653 410 LINE",
"653 580 LINE",
"1011 580 LINE",
"1011 700 LINE",
"527 700 LINE",
"527 583 LINE",
"517 565 LINE",
"517 105 LINE",
"527 94 LINE",
"527 0 LINE"
);
}
);
};
layerId = "D6105F7E-CAE1-4F7B-A52E-8AA6E6082DF8";
paths = (
{
closed = 1;
nodes = (
"495 0 LINE",
"641 146 LINE",
"641 554 LINE",
"495 700 LINE",
"181 700 LINE",
"55 574 LINE",
"55 126 LINE",
"181 0 LINE"
);
},
{
closed = 1;
nodes = (
"191 171 LINE",
"191 529 LINE",
"245 582 LINE",
"461 582 LINE",
"515 529 LINE",
"515 171 LINE",
"461 118 LINE",
"245 118 LINE"
);
},
{
closed = 1;
nodes = (
"1027 0 LINE",
"1027 118 LINE",
"651 118 LINE",
"651 294 LINE",
"998 294 LINE",
"998 410 LINE",
"651 410 LINE",
"651 582 LINE",
"1027 582 LINE",
"1027 700 LINE",
"555 700 LINE",
"555 633 LINE",
"525 611 LINE",
"525 115 LINE",
"555 85 LINE",
"555 0 LINE"
);
}
);
width = 1062;
},
{
layerId = "3C986DA2-2E28-42A4-B05D-29F449A87569";
paths = (
{
closed = 1;
nodes = (
"478 0 LINE",
"608 130 LINE",
"608 570 LINE",
"478 700 LINE",
"180 700 LINE",
"70 590 LINE",
"70 110 LINE",
"180 0 LINE"
);
},
{
closed = 1;
nodes = (
"146 135 LINE",
"146 565 LINE",
"214 632 LINE",
"454 632 LINE",
"532 555 LINE",
"532 145 LINE",
"454 68 LINE",
"214 68 LINE"
);
},
{
closed = 1;
nodes = (
"966 0 LINE",
"966 68 LINE",
"608 68 LINE",
"608 316 LINE",
"937 316 LINE",
"937 384 LINE",
"608 384 LINE",
"608 632 LINE",
"966 632 LINE",
"966 700 LINE",
"542 700 LINE",
"542 603 LINE",
"532 585 LINE",
"532 88 LINE",
"542 77 LINE",
"542 0 LINE"
);
}
);
width = 1016;
}
);
leftKerningGroup = O;
leftMetricsKey = O;
note = OE;
rightKerningGroup = E;
rightMetricsKey = E;
unicode = 0152;
},
{
glyphname = Thorn;
lastChange = "2018-05-14 13:02:05 +0000";
layers = (
{
background = {
paths = (
{
closed = 1;
nodes = (
"129 495 LINE",
"129 700 LINE",
"90 700 LINE",
"90 495 LINE"
);
},
{
closed = 1;
nodes = (
"129 0 LINE",
"129 161 LINE",
"462 161 LINE",
"545 244 LINE",
"545 457 LINE",
"463 539 LINE",
"90 539 LINE",
"90 0 LINE"
);
},
{
closed = 1;
nodes = (
"129 502 LINE",
"447 502 LINE",
"506 444 LINE",
"506 256 LINE",
"447 198 LINE",
"129 198 LINE"
);
}
);
};
layerId = "39D11A97-A6D9-4B52-A6F5-15D5E4373676";
paths = (
{
closed = 1;
nodes = (
"129 0 LINE",
"129 161 LINE",
"462 161 LINE",
"545 244 LINE",
"545 457 LINE",
"463 539 LINE",
"90 539 LINE",
"90 0 LINE"
);
},
{
closed = 1;
nodes = (
"129 502 LINE",
"447 502 LINE",
"506 444 LINE",
"506 256 LINE",
"447 198 LINE",
"129 198 LINE"
);
},
{
closed = 1;
nodes = (
"129 495 LINE",
"129 700 LINE",
"90 700 LINE",
"90 495 LINE"
);
}
);
width = 605;
},
{
background = {
paths = (
{
closed = 1;
nodes = (
"201 0 LINE",
"201 119 LINE",
"508 119 LINE",
"617 228 LINE",
"617 473 LINE",
"509 581 LINE",
"65 581 LINE",
"65 0 LINE"
);
},
{
closed = 1;
nodes = (
"201 465 LINE",
"447 465 LINE",
"483 430 LINE",
"483 270 LINE",
"447 235 LINE",
"201 235 LINE"
);
},
{
closed = 1;
nodes = (
"201 453 LINE",
"201 700 LINE",
"65 700 LINE",
"65 453 LINE"
);
}
);
};
layerId = "D6105F7E-CAE1-4F7B-A52E-8AA6E6082DF8";
paths = (
{
closed = 1;
nodes = (
"201 0 LINE",
"201 119 LINE",
"503 119 LINE",
"611 228 LINE",
"611 473 LINE",
"504 581 LINE",
"65 581 LINE",
"65 0 LINE"
);
},
{
closed = 1;
nodes = (
"201 467 LINE",
"442 467 LINE",
"477 432 LINE",
"477 268 LINE",
"442 233 LINE",
"201 233 LINE"
);
},
{
closed = 1;
nodes = (
"201 453 LINE",
"201 700 LINE",
"65 700 LINE",
"65 453 LINE"
);
}
);
width = 646;
},
{
layerId = "3C986DA2-2E28-42A4-B05D-29F449A87569";
paths = (
{
closed = 1;
nodes = (
"156 0 LINE",
"156 145 LINE",
"479 145 LINE",
"572 238 LINE",
"572 463 LINE",
"480 555 LINE",
"80 555 LINE",
"80 0 LINE"
);
},
{
closed = 1;
nodes = (
"156 489 LINE",
"448 489 LINE",
"498 440 LINE",
"498 260 LINE",
"448 211 LINE",
"156 211 LINE"
);
},
{
closed = 1;
nodes = (
"156 479 LINE",
"156 700 LINE",
"80 700 LINE",
"80 479 LINE"
);
}
);
width = 622;
}
);
leftMetricsKey = P;
note = Thorn;
rightMetricsKey = P;
unicode = 00DE;
},
{
glyphname = Germandbls;
lastChange = "2018-05-14 13:02:05 +0000";
layers = (
{
background = {
paths = (
{
closed = 1;
nodes = (
"129 0 LINE",
"129 609 LINE",
"184 663 LINE",
"527 663 LINE",
"527 700 LINE",
"167 700 LINE",
"90 623 LINE",
"90 0 LINE"
);
},
{
closed = 1;
nodes = (
"512 0 LINE",
"584 72 LINE",
"584 309 LINE",
"512 381 LINE",
"389 381 LINE",
"527 663 LINE",
"486 663 LINE",
"359 401 LINE",
"359 342 LINE",
"494 342 LINE",
"544 292 LINE",
"544 84 LINE",
"493 35 LINE",
"349 35 LINE",
"299 84 LINE",
"299 119 LINE",
"260 119 LINE",
"260 70 LINE",
"330 0 LINE"
);
}
);
};
layerId = "39D11A97-A6D9-4B52-A6F5-15D5E4373676";
paths = (
{
closed = 1;
nodes = (
"129 0 LINE",
"129 609 LINE",
"184 663 LINE",
"527 663 LINE",
"527 700 LINE",
"167 700 LINE",
"90 623 LINE",
"90 0 LINE"
);
},
{
closed = 1;
nodes = (
"512 0 LINE",
"584 72 LINE",
"584 309 LINE",
"514 379 LINE",
"389 379 LINE",
"527 663 LINE",
"486 663 LINE",
"354 389 LINE",
"354 343 LINE",
"495 343 LINE",
"545 293 LINE",
"545 85 LINE",
"494 36 LINE",
"349 36 LINE",
"299 85 LINE",
"299 119 LINE",
"260 119 LINE",
"260 70 LINE",
"330 0 LINE"
);
}
);
width = 644;
},
{
background = {
paths = (
{
closed = 1;
nodes = (
"201 0 LINE",
"201 554 LINE",
"229 582 LINE",
"599 582 LINE",
"599 700 LINE",
"168 700 LINE",
"65 597 LINE",
"65 0 LINE"
);
},
{
closed = 1;
nodes = (
"558 0 LINE",
"656 98 LINE",
"656 312 LINE",
"558 410 LINE",
"479 410 LINE",
"599 582 LINE",
"455 582 LINE",
"334 404 LINE",
"334 300 LINE",
"498 300 LINE",
"522 276 LINE",
"522 139 LINE",
"499 116 LINE",
"413 116 LINE",
"390 139 LINE",
"390 184 LINE",
"258 184 LINE",
"258 96 LINE",
"354 0 LINE"
);
}
);
};
layerId = "D6105F7E-CAE1-4F7B-A52E-8AA6E6082DF8";
paths = (
{
closed = 1;
nodes = (
"201 0 LINE",
"201 554 LINE",
"229 582 LINE",
"599 582 LINE",
"599 700 LINE",
"168 700 LINE",
"65 597 LINE",
"65 0 LINE"
);
},
{
closed = 1;
nodes = (
"558 0 LINE",
"656 98 LINE",
"656 310 LINE",
"558 408 LINE",
"473 408 LINE",
"599 582 LINE",
"461 582 LINE",
"334 402 LINE",
"334 300 LINE",
"498 300 LINE",
"522 276 LINE",
"522 139 LINE",
"499 116 LINE",
"413 116 LINE",
"390 139 LINE",
"390 184 LINE",
"258 184 LINE",
"258 96 LINE",
"354 0 LINE"
);
}
);
width = 691;
},
{
layerId = "3C986DA2-2E28-42A4-B05D-29F449A87569";
paths = (
{
closed = 1;
nodes = (
"156 0 LINE",
"156 588 LINE",
"201 632 LINE",
"554 632 LINE",
"554 700 LINE",
"167 700 LINE",
"80 613 LINE",
"80 0 LINE"
);
},
{
closed = 1;
nodes = (
"529 392 LINE",
"423 392 LINE",
"554 632 LINE",
"474 632 LINE",
"349 402 LINE",
"349 326 LINE",
"495 326 LINE",
"535 286 LINE",
"535 105 LINE",
"495 66 LINE",
"373 66 LINE",
"333 105 LINE",
"333 144 LINE",
"259 144 LINE",
"259 80 LINE",
"339 0 LINE",
"529 0 LINE",
"611 82 LINE",
"611 310 LINE"
);
}
);
width = 661;
}
);
leftMetricsKey = H;
note = uni1E9E;
unicode = 1E9E;
},
{
glyphname = Schwa;
lastChange = "2018-05-14 13:02:05 +0000";
layers = (
{
background = {
paths = (
{
closed = 1;
nodes = (
"187 700 LINE",
"58 571 LINE",
"58 483 LINE",
"134 483 LINE",
"134 563 LINE",
"204 632 LINE",
"463 632 LINE",
"533 563 LINE",
"533 381 LINE",
"58 381 LINE",
"58 129 LINE",
"187 0 LINE",
"480 0 LINE",
"609 129 LINE",
"609 571 LINE",
"480 700 LINE"
);
},
{
closed = 1;
nodes = (
"533 137 LINE",
"463 68 LINE",
"204 68 LINE",
"134 137 LINE",
"134 315 LINE",
"533 315 LINE"
);
}
);
};
layerId = "39D11A97-A6D9-4B52-A6F5-15D5E4373676";
paths = (
{
closed = 1;
nodes = (
"482 0 LINE",
"601 119 LINE",
"601 581 LINE",
"482 700 LINE",
"199 700 LINE",
"80 581 LINE",
"80 498 LINE",
"119 498 LINE",
"119 566 LINE",
"217 663 LINE",
"464 663 LINE",
"562 566 LINE",
"562 367 LINE",
"80 367 LINE",
"80 119 LINE",
"199 0 LINE"
);
},
{
closed = 1;
nodes = (
"119 136 LINE",
"119 329 LINE",
"562 329 LINE",
"562 136 LINE",
"462 37 LINE",
"219 37 LINE"
);
}
);
width = 681;
},
{
background = {
paths = (
{
closed = 1;
nodes = (
"200 700 LINE",
"55 555 LINE",
"55 457 LINE",
"191 457 LINE",
"191 509 LINE",
"262 580 LINE",
"466 580 LINE",
"537 509 LINE",
"537 408 LINE",
"55 408 LINE",
"55 145 LINE",
"200 0 LINE",
"528 0 LINE",
"673 145 LINE",
"673 555 LINE",
"528 700 LINE"
);
},
{
closed = 1;
nodes = (
"537 193 LINE",
"464 120 LINE",
"264 120 LINE",
"191 193 LINE",
"191 288 LINE",
"537 288 LINE"
);
}
);
};
layerId = "D6105F7E-CAE1-4F7B-A52E-8AA6E6082DF8";
paths = (
{
closed = 1;
nodes = (
"528 0 LINE",
"673 145 LINE",
"673 555 LINE",
"528 700 LINE",
"200 700 LINE",
"55 555 LINE",
"55 459 LINE",
"191 459 LINE",
"191 511 LINE",
"262 582 LINE",
"466 582 LINE",
"537 511 LINE",
"537 407 LINE",
"55 407 LINE",
"55 145 LINE",
"200 0 LINE"
);
},
{
closed = 1;
nodes = (
"191 191 LINE",
"191 289 LINE",
"537 289 LINE",
"537 191 LINE",
"464 118 LINE",
"264 118 LINE"
);
}
);
width = 728;
},
{
layerId = "3C986DA2-2E28-42A4-B05D-29F449A87569";
paths = (
{
closed = 1;
nodes = (
"199 700 LINE",
"70 571 LINE",
"70 483 LINE",
"146 483 LINE",
"146 545 LINE",
"234 632 LINE",
"464 632 LINE",
"552 545 LINE",
"552 382 LINE",
"70 382 LINE",
"70 129 LINE",
"199 0 LINE",
"499 0 LINE",
"628 129 LINE",
"628 571 LINE",
"499 700 LINE"
);
},
{
closed = 1;
nodes = (
"552 157 LINE",
"462 68 LINE",
"236 68 LINE",
"146 157 LINE",
"146 314 LINE",
"552 314 LINE"
);
}
);
width = 698;
}
);
note = uni018F;
unicode = 018F;
},
{
glyphname = Tbar;
lastChange = "2018-05-14 13:02:05 +0000";
layers = (
{
components = (
{
name = T;
}
);
layerId = "39D11A97-A6D9-4B52-A6F5-15D5E4373676";
paths = (
{
closed = 1;
nodes = (
"461 311 LINE",
"461 347 LINE",
"82 347 LINE",
"82 311 LINE"
);
}
);
width = 543;
},
{
associatedMasterId = "39D11A97-A6D9-4B52-A6F5-15D5E4373676";
layerId = "8AF6BA7E-4672-4BE4-A9AE-4DB948958C2C";
name = "new Layer";
width = 600;
},
{
associatedMasterId = "39D11A97-A6D9-4B52-A6F5-15D5E4373676";
layerId = "7F6AF056-48B6-4F53-BC9A-D34BFBE15044";
name = "new Layer";
width = 600;
},
{
associatedMasterId = "39D11A97-A6D9-4B52-A6F5-15D5E4373676";
layerId = "F73E8325-8E12-4C51-8F58-F416F66A4A1B";
name = "new Layer";
width = 600;
},
{
background = {
paths = (
{
closed = 1;
nodes = (
"513 275 LINE",
"513 389 LINE",
"77 389 LINE",
"77 275 LINE"
);
}
);
};
components = (
{
name = T;
}
);
layerId = "D6105F7E-CAE1-4F7B-A52E-8AA6E6082DF8";
paths = (
{
closed = 1;
nodes = (
"513 275 LINE",
"513 385 LINE",
"77 385 LINE",
"77 275 LINE"
);
}
);
width = 584;
},
{
associatedMasterId = "D6105F7E-CAE1-4F7B-A52E-8AA6E6082DF8";
layerId = "CCEC87D2-BDDB-4BB0-836F-89AA69FD70A4";
name = "new Layer";
width = 600;
},
{
associatedMasterId = "D6105F7E-CAE1-4F7B-A52E-8AA6E6082DF8";
layerId = "77C5EE56-9A9F-49D7-8F19-2FEEB456554D";
name = "new Layer";
width = 600;
},
{
associatedMasterId = "D6105F7E-CAE1-4F7B-A52E-8AA6E6082DF8";
layerId = "E3B642DC-BD26-4568-8D17-3487E48E46DF";
name = "new Layer";
width = 600;
},
{
components = (
{
name = T;
}
);
layerId = "3C986DA2-2E28-42A4-B05D-29F449A87569";
paths = (
{
closed = 1;
nodes = (
"493 301 LINE",
"493 363 LINE",
"79 363 LINE",
"79 301 LINE"
);
}
);
width = 560;
}
);
leftKerningGroup = T;
leftMetricsKey = T;
note = Tbar;
rightKerningGroup = T;
rightMetricsKey = T;
unicode = 0166;
},
{
glyphname = "alpha-latin";
lastChange = "2018-05-14 13:02:05 +0000";
layers = (
{
background = {
paths = (
{
closed = 1;
nodes = (
"336 0 LINE",
"432 97 LINE",
"432 48 LINE",
"471 0 LINE",
"548 0 LINE",
"548 32 LINE",
"478 32 LINE",
"478 498 LINE",
"437 498 LINE",
"437 426 LINE",
"351 498 LINE",
"157 498 LINE",
"75 416 LINE",
"75 82 LINE",
"157 0 LINE"
);
},
{
closed = 1;
nodes = (
"113 94 LINE",
"113 404 LINE",
"172 462 LINE",
"336 462 LINE",
"440 373 LINE",
"440 155 LINE",
"321 36 LINE",
"172 36 LINE"
);
}
);
};
layerId = "39D11A97-A6D9-4B52-A6F5-15D5E4373676";
paths = (
{
closed = 1;
nodes = (
"334 0 LINE",
"440 106 LINE",
"440 26 LINE",
"466 0 LINE",
"548 0 LINE",
"548 32 LINE",
"478 32 LINE",
"478 498 LINE",
"440 498 LINE",
"440 412 LINE",
"339 498 LINE",
"157 498 LINE",
"75 416 LINE",
"75 82 LINE",
"157 0 LINE"
);
},
{
closed = 1;
nodes = (
"113 94 LINE",
"113 404 LINE",
"172 462 LINE",
"326 462 LINE",
"440 365 LINE",
"440 155 LINE",
"321 36 LINE",
"172 36 LINE"
);
}
);
width = 578;
},
{
background = {
paths = (
{
closed = 1;
nodes = (
"345 0 LINE",
"428 81 LINE",
"428 50 LINE",
"478 0 LINE",
"612 0 LINE",
"612 110 LINE",
"542 110 LINE",
"542 498 LINE",
"420 498 LINE",
"420 441 LINE",
"358 498 LINE",
"153 498 LINE",
"50 394 LINE",
"50 104 LINE",
"153 0 LINE"
);
},
{
closed = 1;
nodes = (
"182 151 LINE",
"182 347 LINE",
"220 386 LINE",
"340 386 LINE",
"410 325 LINE",
"410 195 LINE",
"327 112 LINE",
"220 112 LINE"
);
}
);
};
layerId = "D6105F7E-CAE1-4F7B-A52E-8AA6E6082DF8";
paths = (
{
closed = 1;
nodes = (
"345 0 LINE",
"428 81 LINE",
"428 50 LINE",
"478 0 LINE",
"612 0 LINE",
"612 110 LINE",
"542 110 LINE",
"542 498 LINE",
"420 498 LINE",
"420 440 LINE",
"354 498 LINE",
"153 498 LINE",
"50 394 LINE",
"50 104 LINE",
"153 0 LINE"
);
},
{
closed = 1;
nodes = (
"182 151 LINE",
"182 347 LINE",
"220 386 LINE",
"340 386 LINE",
"410 325 LINE",
"410 195 LINE",
"327 112 LINE",
"220 112 LINE"
);
}
);
width = 620;
},
{
layerId = "3C986DA2-2E28-42A4-B05D-29F449A87569";
paths = (
{
closed = 1;
nodes = (
"505 498 LINE",
"433 498 LINE",
"433 432 LINE",
"356 498 LINE",
"157 498 LINE",
"65 406 LINE",
"65 92 LINE",
"157 0 LINE",
"342 0 LINE",
"433 91 LINE",
"433 49 LINE",
"476 0 LINE",
"575 0 LINE",
"575 62 LINE",
"505 62 LINE"
);
},
{
closed = 1;
nodes = (
"326 66 LINE",
"189 66 LINE",
"139 115 LINE",
"139 383 LINE",
"189 432 LINE",
"340 432 LINE",
"431 354 LINE",
"431 171 LINE"
);
}
);
width = 595;
}
);
leftKerningGroup = o;
leftMetricsKey = d;
note = ascript;
unicode = 0251;
},
{
glyphname = ae;
lastChange = "2018-05-14 13:02:05 +0000";
layers = (
{
anchors = (
{
name = bottom;
position = "{434, 0}";
},
{
name = top;
position = "{441, 498}";
}
);
background = {
paths = (
{
closed = 1;
nodes = (
"721 0 LINE",
"804 83 LINE",
"804 144 LINE",
"766 144 LINE",
"766 96 LINE",
"704 36 LINE",
"515 36 LINE",
"454 97 LINE",
"454 240 LINE",
"805 240 LINE",
"805 416 LINE",
"722 498 LINE",
"498 498 LINE",
"416 416 LINE",
"416 92 LINE",
"498 0 LINE"
);
},
{
closed = 1;
nodes = (
"108 84 LINE",
"108 194 LINE",
"156 240 LINE",
"416 240 LINE",
"416 124 LINE",
"326 36 LINE",
"156 36 LINE"
);
},
{
closed = 1;
nodes = (
"338 0 LINE",
"454 113 LINE",
"454 416 LINE",
"372 498 LINE",
"156 498 LINE",
"74 416 LINE",
"74 353 LINE",
"112 353 LINE",
"112 402 LINE",
"174 462 LINE",
"355 462 LINE",
"416 402 LINE",
"416 276 LINE",
"142 276 LINE",
"70 206 LINE",
"70 72 LINE",
"142 0 LINE"
);
},
{
closed = 1;
nodes = (
"454 402 LINE",
"514 462 LINE",
"707 462 LINE",
"767 402 LINE",
"767 275 LINE",
"454 275 LINE"
);
}
);
};
layerId = "39D11A97-A6D9-4B52-A6F5-15D5E4373676";
paths = (
{
closed = 1;
nodes = (
"713 0 LINE",
"796 83 LINE",
"796 144 LINE",
"758 144 LINE",
"758 96 LINE",
"696 36 LINE",
"515 36 LINE",
"454 97 LINE",
"454 240 LINE",
"797 240 LINE",
"797 416 LINE",
"714 498 LINE",
"498 498 LINE",
"416 416 LINE",
"416 85 LINE",
"501 0 LINE"
);
},
{
closed = 1;
nodes = (
"108 84 LINE",
"108 194 LINE",
"156 240 LINE",
"416 240 LINE",
"416 124 LINE",
"326 36 LINE",
"156 36 LINE"
);
},
{
closed = 1;
nodes = (
"338 0 LINE",
"454 113 LINE",
"454 416 LINE",
"372 498 LINE",
"156 498 LINE",
"74 416 LINE",
"74 353 LINE",
"112 353 LINE",
"112 402 LINE",
"174 462 LINE",
"355 462 LINE",
"416 402 LINE",
"416 276 LINE",
"142 276 LINE",
"70 206 LINE",
"70 72 LINE",
"142 0 LINE"
);
},
{
closed = 1;
nodes = (
"454 402 LINE",
"514 462 LINE",
"699 462 LINE",
"759 402 LINE",
"759 275 LINE",
"454 275 LINE"
);
}
);
width = 867;
},
{
anchors = (
{
name = bottom;
position = "{457, 0}";
},
{
name = top;
position = "{464, 498}";
}
);
background = {
paths = (
{
closed = 1;
nodes = (
"772 0 LINE",
"878 106 LINE",
"878 171 LINE",
"746 171 LINE",
"746 141 LINE",
"715 110 LINE",
"561 110 LINE",
"528 143 LINE",
"528 206 LINE",
"879 206 LINE",
"879 390 LINE",
"770 498 LINE",
"516 498 LINE",
"398 380 LINE",
"398 108 LINE",
"506 0 LINE"
);
},
{
closed = 1;
nodes = (
"177 131 LINE",
"177 176 LINE",
"204 203 LINE",
"396 203 LINE",
"396 167 LINE",
"333 104 LINE",
"204 104 LINE"
);
},
{
closed = 1;
nodes = (
"375 0 LINE",
"526 151 LINE",
"526 380 LINE",
"408 498 LINE",
"157 498 LINE",
"49 390 LINE",
"49 331 LINE",
"181 331 LINE",
"181 359 LINE",
"212 390 LINE",
"364 390 LINE",
"396 359 LINE",
"396 299 LINE",
"144 299 LINE",
"45 202 LINE",
"45 98 LINE",
"143 0 LINE"
);
},
{
closed = 1;
nodes = (
"528 357 LINE",
"561 390 LINE",
"714 390 LINE",
"747 357 LINE",
"747 298 LINE",
"528 298 LINE"
);
}
);
};
layerId = "D6105F7E-CAE1-4F7B-A52E-8AA6E6082DF8";
paths = (
{
closed = 1;
nodes = (
"764 0 LINE",
"870 106 LINE",
"870 171 LINE",
"738 171 LINE",
"738 141 LINE",
"707 110 LINE",
"561 110 LINE",
"528 143 LINE",
"528 206 LINE",
"871 206 LINE",
"871 390 LINE",
"762 498 LINE",
"516 498 LINE",
"398 380 LINE",
"398 108 LINE",
"506 0 LINE"
);
},
{
closed = 1;
nodes = (
"177 131 LINE",
"177 176 LINE",
"204 203 LINE",
"396 203 LINE",
"396 167 LINE",
"333 104 LINE",
"204 104 LINE"
);
},
{
closed = 1;
nodes = (
"375 0 LINE",
"526 151 LINE",
"526 380 LINE",
"408 498 LINE",
"157 498 LINE",
"49 390 LINE",
"49 331 LINE",
"181 331 LINE",
"181 359 LINE",
"212 390 LINE",
"364 390 LINE",
"396 359 LINE",
"396 299 LINE",
"144 299 LINE",
"45 202 LINE",
"45 98 LINE",
"143 0 LINE"
);
},
{
closed = 1;
nodes = (
"528 357 LINE",
"561 390 LINE",
"706 390 LINE",
"739 357 LINE",
"739 298 LINE",
"528 298 LINE"
);
}
);
width = 916;
},
{
anchors = (
{
name = bottom;
position = "{442, 0}";
},
{
name = top;
position = "{447, 498}";
}
);
layerId = "3C986DA2-2E28-42A4-B05D-29F449A87569";
paths = (
{
closed = 1;
nodes = (
"734 0 LINE",
"826 92 LINE",
"826 154 LINE",
"752 154 LINE",
"752 115 LINE",
"702 66 LINE",
"532 66 LINE",
"482 115 LINE",
"482 227 LINE",
"826 227 LINE",
"826 406 LINE",
"734 498 LINE",
"500 498 LINE",
"408 406 LINE",
"408 92 LINE",
"500 0 LINE"
);
},
{
closed = 1;
nodes = (
"134 103 LINE",
"134 187 LINE",
"174 226 LINE",
"408 226 LINE",
"408 159 LINE",
"313 64 LINE",
"174 64 LINE"
);
},
{
closed = 1;
nodes = (
"338 0 LINE",
"482 144 LINE",
"482 406 LINE",
"390 498 LINE",
"156 498 LINE",
"64 406 LINE",
"64 344 LINE",
"138 344 LINE",
"138 385 LINE",
"188 434 LINE",
"358 434 LINE",
"408 385 LINE",
"408 290 LINE",
"142 290 LINE",
"60 209 LINE",
"60 82 LINE",
"142 0 LINE"
);
},
{
closed = 1;
nodes = (
"482 383 LINE",
"532 432 LINE",
"702 432 LINE",
"752 383 LINE",
"752 291 LINE",
"482 291 LINE"
);
}
);
width = 886;
}
);
leftKerningGroup = a;
leftMetricsKey = a;
note = ae;
rightKerningGroup = e;
rightMetricsKey = e;
unicode = 00E6;
},
{
glyphname = eth;
lastChange = "2018-05-14 13:02:05 +0000";
layers = (
{
background = {
paths = (
{
closed = 1;
nodes = (
"500 617 LINE",
"481 649 LINE",
"287 536 LINE",
"305 504 LINE"
);
},
{
closed = 1;
nodes = (
"222 700 LINE",
"222 663 LINE",
"325 663 LINE",
"457 427 LINE",
"457 339 LINE",
"362 423 LINE",
"157 423 LINE",
"75 341 LINE",
"75 82 LINE",
"157 0 LINE",
"414 0 LINE",
"496 82 LINE",
"496 433 LINE",
"347 700 LINE"
);
},
{
closed = 1;
nodes = (
"398 37 LINE",
"173 37 LINE",
"114 95 LINE",
"114 328 LINE",
"173 386 LINE",
"350 386 LINE",
"457 290 LINE",
"457 95 LINE"
);
}
);
};
layerId = "39D11A97-A6D9-4B52-A6F5-15D5E4373676";
paths = (
{
closed = 1;
nodes = (
"414 0 LINE",
"496 82 LINE",
"496 433 LINE",
"347 700 LINE",
"222 700 LINE",
"222 663 LINE",
"325 663 LINE",
"458 426 LINE",
"458 338 LINE",
"363 423 LINE",
"157 423 LINE",
"75 341 LINE",
"75 82 LINE",
"157 0 LINE"
);
},
{
closed = 1;
nodes = (
"113 95 LINE",
"113 328 LINE",
"172 386 LINE",
"351 386 LINE",
"458 290 LINE",
"458 95 LINE",
"399 37 LINE",
"172 37 LINE"
);
},
{
closed = 1;
nodes = (
"500 617 LINE",
"481 649 LINE",
"287 536 LINE",
"305 504 LINE"
);
}
);
width = 555;
},
{
background = {
paths = (
{
closed = 1;
nodes = (
"454 0 LINE",
"562 108 LINE",
"562 505 LINE",
"418 700 LINE",
"197 700 LINE",
"197 604 LINE",
"339 604 LINE",
"428 485 LINE",
"428 396 LINE",
"367 448 LINE",
"158 448 LINE",
"50 340 LINE",
"50 108 LINE",
"158 0 LINE"
);
},
{
closed = 1;
nodes = (
"184 153 LINE",
"184 299 LINE",
"219 334 LINE",
"349 334 LINE",
"428 264 LINE",
"428 153 LINE",
"393 118 LINE",
"219 118 LINE"
);
},
{
closed = 1;
nodes = (
"587 625 LINE",
"542 704 LINE",
"265 544 LINE",
"310 465 LINE"
);
}
);
};
layerId = "D6105F7E-CAE1-4F7B-A52E-8AA6E6082DF8";
paths = (
{
closed = 1;
nodes = (
"454 0 LINE",
"562 108 LINE",
"562 505 LINE",
"418 700 LINE",
"197 700 LINE",
"197 604 LINE",
"339 604 LINE",
"428 485 LINE",
"428 396 LINE",
"367 448 LINE",
"158 448 LINE",
"50 340 LINE",
"50 108 LINE",
"158 0 LINE"
);
},
{
closed = 1;
nodes = (
"184 153 LINE",
"184 299 LINE",
"219 334 LINE",
"349 334 LINE",
"428 264 LINE",
"428 153 LINE",
"393 118 LINE",
"219 118 LINE"
);
},
{
closed = 1;
nodes = (
"587 625 LINE",
"542 704 LINE",
"265 544 LINE",
"310 465 LINE"
);
}
);
width = 617;
},
{
background = {
paths = (
{
closed = 1;
nodes = (
"431 0 LINE",
"523 92 LINE",
"523 459 LINE",
"376 700 LINE",
"212 700 LINE",
"212 638 LINE",
"331 638 LINE",
"447 449 LINE",
"447 367 LINE",
"366 438 LINE",
"157 438 LINE",
"65 346 LINE",
"65 92 LINE",
"157 0 LINE"
);
},
{
closed = 1;
nodes = (
"141 117 LINE",
"141 321 LINE",
"191 370 LINE",
"351 370 LINE",
"447 284 LINE",
"447 117 LINE",
"397 68 LINE",
"191 68 LINE"
);
},
{
closed = 1;
nodes = (
"535 620 LINE",
"505 672 LINE",
"279 541 LINE",
"309 489 LINE"
);
}
);
};
layerId = "3C986DA2-2E28-42A4-B05D-29F449A87569";
paths = (
{
closed = 1;
nodes = (
"431 0 LINE",
"523 92 LINE",
"523 459 LINE",
"376 700 LINE",
"212 700 LINE",
"212 638 LINE",
"333 638 LINE",
"449 450 LINE",
"449 366 LINE",
"368 438 LINE",
"157 438 LINE",
"65 346 LINE",
"65 92 LINE",
"157 0 LINE"
);
},
{
closed = 1;
nodes = (
"139 115 LINE",
"139 323 LINE",
"189 372 LINE",
"352 372 LINE",
"449 286 LINE",
"449 115 LINE",
"399 66 LINE",
"189 66 LINE"
);
},
{
closed = 1;
nodes = (
"535 620 LINE",
"505 672 LINE",
"279 541 LINE",
"309 489 LINE"
);
}
);
width = 580;
}
);
note = eth;
unicode = 00F0;
},
{
glyphname = dcroat;
lastChange = "2018-05-14 13:02:05 +0000";
layers = (
{
components = (
{
name = d;
}
);
layerId = "39D11A97-A6D9-4B52-A6F5-15D5E4373676";
paths = (
{
closed = 1;
nodes = (
"563 597 LINE",
"563 631 LINE",
"273 631 LINE",
"273 597 LINE"
);
}
);
width = 583;
},
{
background = {
paths = (
{
closed = 1;
nodes = (
"625 550 LINE",
"625 644 LINE",
"253 644 LINE",
"253 550 LINE"
);
}
);
};
components = (
{
name = d;
}
);
layerId = "D6105F7E-CAE1-4F7B-A52E-8AA6E6082DF8";
paths = (
{
closed = 1;
nodes = (
"625 550 LINE",
"625 644 LINE",
"258 644 LINE",
"258 550 LINE"
);
}
);
width = 620;
},
{
components = (
{
name = d;
}
);
layerId = "3C986DA2-2E28-42A4-B05D-29F449A87569";
paths = (
{
closed = 1;
nodes = (
"585 572 LINE",
"585 632 LINE",
"295 632 LINE",
"295 572 LINE"
);
}
);
width = 595;
}
);
leftKerningGroup = o;
leftMetricsKey = d;
note = dcroat;
unicode = 0111;
},
{
glyphname = hbar;
lastChange = "2018-05-14 13:02:05 +0000";
layers = (
{
background = {
paths = (
{
closed = 1;
nodes = (
"314 572 LINE",
"314 632 LINE",
"10 632 LINE",
"10 572 LINE"
);
}
);
};
components = (
{
name = h;
transform = "{1, 0, 0, 1, 25, 0}";
}
);
layerId = "39D11A97-A6D9-4B52-A6F5-15D5E4373676";
paths = (
{
closed = 1;
nodes = (
"310 597 LINE",
"310 631 LINE",
"20 631 LINE",
"20 597 LINE"
);
}
);
width = 578;
},
{
associatedMasterId = "39D11A97-A6D9-4B52-A6F5-15D5E4373676";
layerId = "8AF6BA7E-4672-4BE4-A9AE-4DB948958C2C";
name = "new Layer";
width = 600;
},
{
associatedMasterId = "39D11A97-A6D9-4B52-A6F5-15D5E4373676";
layerId = "95E7B70C-3955-4FF0-933E-B9872947184D";
name = "new Layer";
width = 600;
},
{
associatedMasterId = "39D11A97-A6D9-4B52-A6F5-15D5E4373676";
layerId = "909C3EF5-11EB-4157-886C-15B61D145ECE";
name = "new Layer";
width = 600;
},
{
components = (
{
name = h;
transform = "{1, 0, 0, 1, 25, 0}";
}
);
layerId = "D6105F7E-CAE1-4F7B-A52E-8AA6E6082DF8";
paths = (
{
closed = 1;
nodes = (
"318 552 LINE",
"318 646 LINE",
"-5 646 LINE",
"-5 552 LINE"
);
}
);
width = 619;
},
{
associatedMasterId = "D6105F7E-CAE1-4F7B-A52E-8AA6E6082DF8";
layerId = "B2961D78-ABA6-48CD-AD05-392B8BC589EE";
name = "new Layer";
width = 600;
},
{
associatedMasterId = "D6105F7E-CAE1-4F7B-A52E-8AA6E6082DF8";
layerId = "830110E6-9AFB-4BCD-AD3E-56001C317DD6";
name = "new Layer";
width = 600;
},
{
associatedMasterId = "D6105F7E-CAE1-4F7B-A52E-8AA6E6082DF8";
layerId = "493F2C31-5D28-44F2-82C9-2DCFC4F89F06";
name = "new Layer";
width = 600;
},
{
components = (
{
name = h;
transform = "{1, 0, 0, 1, 25, 0}";
}
);
layerId = "3C986DA2-2E28-42A4-B05D-29F449A87569";
paths = (
{
closed = 1;
nodes = (
"314 572 LINE",
"314 632 LINE",
"10 632 LINE",
"10 572 LINE"
);
}
);
width = 595;
}
);
note = hbar;
rightKerningGroup = n;
rightMetricsKey = n;
unicode = 0127;
},
{
glyphname = idotless;
lastChange = "2018-05-14 13:02:05 +0000";
layers = (
{
anchors = (
{
name = bottom;
position = "{114, 0}";
},
{
name = ogonek;
position = "{133, 0}";
},
{
name = top;
position = "{114, 498}";
}
);
background = {
paths = (
{
closed = 1;
nodes = (
"133 0 LINE",
"133 498 LINE",
"95 498 LINE",
"95 0 LINE"
);
}
);
};
layerId = "39D11A97-A6D9-4B52-A6F5-15D5E4373676";
paths = (
{
closed = 1;
nodes = (
"133 0 LINE",
"133 498 LINE",
"95 498 LINE",
"95 0 LINE"
);
}
);
width = 228;
},
{
anchors = (
{
name = bottom;
position = "{136, 0}";
},
{
name = ogonek;
position = "{202, 0}";
},
{
name = top;
position = "{136, 498}";
}
);
background = {
paths = (
{
closed = 1;
nodes = (
"202 0 LINE",
"202 498 LINE",
"70 498 LINE",
"70 0 LINE"
);
}
);
};
layerId = "D6105F7E-CAE1-4F7B-A52E-8AA6E6082DF8";
paths = (
{
closed = 1;
nodes = (
"202 0 LINE",
"202 498 LINE",
"70 498 LINE",
"70 0 LINE"
);
}
);
width = 272;
},
{
anchors = (
{
name = bottom;
position = "{122, 0}";
},
{
name = ogonek;
position = "{159, 0}";
},
{
name = top;
position = "{122, 498}";
}
);
layerId = "3C986DA2-2E28-42A4-B05D-29F449A87569";
paths = (
{
closed = 1;
nodes = (
"159 0 LINE",
"159 498 LINE",
"85 498 LINE",
"85 0 LINE"
);
}
);
width = 244;
}
);
note = dotlessi;
unicode = 0131;
},
{
glyphname = jdotless;
lastChange = "2018-05-14 13:02:05 +0000";
layers = (
{
anchors = (
{
name = bottom;
position = "{155, 0}";
},
{
name = top;
position = "{124, 498}";
}
);
layerId = "39D11A97-A6D9-4B52-A6F5-15D5E4373676";
paths = (
{
closed = 1;
nodes = (
"62 -218 LINE",
"143 -137 LINE",
"143 498 LINE",
"105 498 LINE",
"105 -124 LINE",
"46 -182 LINE",
"-45 -182 LINE",
"-45 -218 LINE"
);
}
);
width = 238;
},
{
anchors = (
{
name = bottom;
position = "{151, 0}";
},
{
name = top;
position = "{151, 498}";
}
);
background = {
paths = (
{
closed = 1;
nodes = (
"110 -218 LINE",
"217 -111 LINE",
"217 498 LINE",
"85 498 LINE",
"85 -69 LINE",
"50 -104 LINE",
"-65 -104 LINE",
"-65 -218 LINE"
);
}
);
};
layerId = "D6105F7E-CAE1-4F7B-A52E-8AA6E6082DF8";
paths = (
{
closed = 1;
nodes = (
"110 -218 LINE",
"217 -111 LINE",
"217 498 LINE",
"85 498 LINE",
"85 -69 LINE",
"50 -104 LINE",
"-65 -104 LINE",
"-65 -218 LINE"
);
}
);
width = 287;
},
{
anchors = (
{
name = bottom;
position = "{151, 0}";
},
{
name = top;
position = "{132, 498}";
}
);
layerId = "3C986DA2-2E28-42A4-B05D-29F449A87569";
paths = (
{
closed = 1;
nodes = (
"78 -218 LINE",
"169 -127 LINE",
"169 498 LINE",
"95 498 LINE",
"95 -103 LINE",
"45 -152 LINE",
"-55 -152 LINE",
"-55 -218 LINE"
);
}
);
width = 254;
}
);
leftKerningGroup = j;
note = dotlessj;
unicode = 0237;
},
{
glyphname = kgreenlandic;
lastChange = "2018-05-14 13:02:05 +0000";
layers = (
{
background = {
paths = (
{
closed = 0;
nodes = (
"302 282 LINE",
"152 282 LINE"
);
},
{
closed = 0;
nodes = (
"152 214 LINE",
"303 214 LINE"
);
},
{
closed = 0;
nodes = (
"365 250 LINE"
);
}
);
};
layerId = "39D11A97-A6D9-4B52-A6F5-15D5E4373676";
paths = (
{
closed = 1;
nodes = (
"124 0 LINE",
"124 229 LINE",
"306 229 LINE",
"470 0 LINE",
"513 0 LINE",
"338 251 LINE",
"499 498 LINE",
"455 498 LINE",
"305 267 LINE",
"124 267 LINE",
"124 498 LINE",
"85 498 LINE",
"85 0 LINE"
);
}
);
width = 545;
},
{
background = {
paths = (
{
closed = 1;
nodes = (
"308 307 LINE",
"196 307 LINE",
"196 498 LINE",
"60 498 LINE",
"60 0 LINE",
"196 0 LINE",
"196 189 LINE",
"307 189 LINE",
"447 0 LINE",
"601 0 LINE",
"401 250 LINE",
"584 498 LINE",
"432 498 LINE"
);
}
);
};
layerId = "D6105F7E-CAE1-4F7B-A52E-8AA6E6082DF8";
paths = (
{
closed = 1;
nodes = (
"196 0 LINE",
"196 189 LINE",
"296 189 LINE",
"435 0 LINE",
"591 0 LINE",
"408 248 LINE",
"574 498 LINE",
"420 498 LINE",
"295 307 LINE",
"196 307 LINE",
"196 498 LINE",
"60 498 LINE",
"60 0 LINE"
);
}
);
width = 596;
},
{
layerId = "3C986DA2-2E28-42A4-B05D-29F449A87569";
paths = (
{
closed = 1;
nodes = (
"301 282 LINE",
"151 282 LINE",
"151 498 LINE",
"75 498 LINE",
"75 0 LINE",
"151 0 LINE",
"151 214 LINE",
"302 214 LINE",
"456 0 LINE",
"542 0 LINE",
"364 250 LINE",
"527 498 LINE",
"441 498 LINE"
);
}
);
width = 562;
}
);
leftMetricsKey = k;
note = kgreenlandic;
rightKerningGroup = k;
unicode = 0138;
},
{
glyphname = lslash;
lastChange = "2018-05-14 13:02:05 +0000";
layers = (
{
background = {
paths = (
{
closed = 1;
nodes = (
"304 418 LINE",
"304 488 LINE",
"30 288 LINE",
"30 218 LINE"
);
}
);
};
components = (
{
name = l;
transform = "{1, 0, 0, 1, 50, 0}";
}
);
layerId = "39D11A97-A6D9-4B52-A6F5-15D5E4373676";
paths = (
{
closed = 1;
nodes = (
"293 414 LINE",
"293 457 LINE",
"25 261 LINE",
"25 218 LINE"
);
}
);
width = 318;
},
{
background = {
paths = (
{
closed = 1;
nodes = (
"332 390 LINE",
"332 507 LINE",
"0 287 LINE",
"0 170 LINE"
);
}
);
};
components = (
{
name = l;
transform = "{1, 0, 0, 1, 35, 0}";
}
);
layerId = "D6105F7E-CAE1-4F7B-A52E-8AA6E6082DF8";
paths = (
{
closed = 1;
nodes = (
"332 390 LINE",
"332 507 LINE",
"0 287 LINE",
"0 170 LINE"
);
}
);
width = 332;
},
{
components = (
{
name = l;
transform = "{1, 0, 0, 1, 35, 0}";
}
);
layerId = "3C986DA2-2E28-42A4-B05D-29F449A87569";
paths = (
{
closed = 1;
nodes = (
"15 218 LINE",
"289 418 LINE",
"289 488 LINE",
"15 288 LINE"
);
}
);
width = 304;
}
);
note = lslash;
unicode = 0142;
},
{
glyphname = eng;
lastChange = "2018-05-14 13:02:05 +0000";
layers = (
{
layerId = "39D11A97-A6D9-4B52-A6F5-15D5E4373676";
paths = (
{
closed = 1;
nodes = (
"123 0 LINE",
"123 322 LINE",
"263 462 LINE",
"372 462 LINE",
"431 404 LINE",
"431 0 LINE",
"469 0 LINE",
"469 416 LINE",
"387 498 LINE",
"248 498 LINE",
"125 375 LINE",
"125 498 LINE",
"85 498 LINE",
"85 0 LINE"
);
},
{
closed = 1;
nodes = (
"388 -218 LINE",
"469 -137 LINE",
"469 198 LINE",
"431 198 LINE",
"431 -124 LINE",
"372 -182 LINE",
"281 -182 LINE",
"281 -218 LINE"
);
}
);
width = 549;
},
{
background = {
paths = (
{
closed = 1;
nodes = (
"192 0 LINE",
"192 286 LINE",
"290 384 LINE",
"376 384 LINE",
"411 349 LINE",
"411 0 LINE",
"543 0 LINE",
"543 390 LINE",
"435 498 LINE",
"262 498 LINE",
"184 420 LINE",
"184 498 LINE",
"60 498 LINE",
"60 0 LINE"
);
},
{
closed = 1;
nodes = (
"436 -218 LINE",
"543 -111 LINE",
"543 198 LINE",
"411 198 LINE",
"411 -69 LINE",
"376 -104 LINE",
"261 -104 LINE",
"261 -218 LINE"
);
}
);
};
layerId = "D6105F7E-CAE1-4F7B-A52E-8AA6E6082DF8";
paths = (
{
closed = 1;
nodes = (
"192 0 LINE",
"192 286 LINE",
"290 384 LINE",
"376 384 LINE",
"411 349 LINE",
"411 0 LINE",
"543 0 LINE",
"543 390 LINE",
"435 498 LINE",
"262 498 LINE",
"184 420 LINE",
"184 498 LINE",
"60 498 LINE",
"60 0 LINE"
);
},
{
closed = 1;
nodes = (
"436 -218 LINE",
"543 -111 LINE",
"543 198 LINE",
"411 198 LINE",
"411 -69 LINE",
"376 -104 LINE",
"261 -104 LINE",
"261 -218 LINE"
);
}
);
width = 598;
},
{
layerId = "3C986DA2-2E28-42A4-B05D-29F449A87569";
paths = (
{
closed = 1;
nodes = (
"149 0 LINE",
"149 308 LINE",
"273 432 LINE",
"373 432 LINE",
"423 383 LINE",
"423 0 LINE",
"497 0 LINE",
"497 406 LINE",
"405 498 LINE",
"253 498 LINE",
"147 392 LINE",
"147 498 LINE",
"75 498 LINE",
"75 0 LINE"
);
},
{
closed = 1;
nodes = (
"406 -218 LINE",
"497 -127 LINE",
"497 198 LINE",
"423 198 LINE",
"423 -103 LINE",
"373 -152 LINE",
"273 -152 LINE",
"273 -218 LINE"
);
}
);
width = 567;
}
);
leftKerningGroup = n;
leftMetricsKey = n;
note = eng;
rightKerningGroup = n;
rightMetricsKey = n;
unicode = 014B;
},
{
glyphname = oslash;
lastChange = "2018-05-14 13:02:05 +0000";
layers = (
{
background = {
paths = (
{
closed = 1;
nodes = (
"69 -40 LINE",
"528 538 LINE",
"469 538 LINE",
"10 -40 LINE"
);
}
);
};
components = (
{
name = o;
}
);
layerId = "39D11A97-A6D9-4B52-A6F5-15D5E4373676";
paths = (
{
closed = 1;
nodes = (
"69 -40 LINE",
"528 538 LINE",
"484 538 LINE",
"25 -40 LINE"
);
}
);
width = 553;
},
{
background = {
paths = (
{
closed = 1;
nodes = (
"136 -40 LINE",
"584 538 LINE",
"475 538 LINE",
"27 -40 LINE"
);
}
);
};
components = (
{
name = o;
}
);
layerId = "D6105F7E-CAE1-4F7B-A52E-8AA6E6082DF8";
paths = (
{
closed = 1;
nodes = (
"132 -40 LINE",
"580 538 LINE",
"471 538 LINE",
"23 -40 LINE"
);
}
);
width = 592;
},
{
components = (
{
name = o;
}
);
layerId = "3C986DA2-2E28-42A4-B05D-29F449A87569";
paths = (
{
closed = 1;
nodes = (
"15 -40 LINE",
"93 -40 LINE",
"548 538 LINE",
"470 538 LINE"
);
}
);
width = 570;
}
);
leftKerningGroup = o;
widthMetricsKey = o;
note = oslash;
rightKerningGroup = o;
unicode = 00F8;
},
{
glyphname = oe;
lastChange = "2018-05-14 13:02:05 +0000";
layers = (
{
background = {
paths = (
{
closed = 1;
nodes = (
"403 0 LINE",
"479 76 LINE",
"479 422 LINE",
"403 498 LINE",
"157 498 LINE",
"75 416 LINE",
"75 82 LINE",
"157 0 LINE"
);
},
{
closed = 1;
nodes = (
"113 94 LINE",
"113 404 LINE",
"172 462 LINE",
"381 462 LINE",
"440 404 LINE",
"440 94 LINE",
"381 36 LINE",
"172 36 LINE"
);
},
{
closed = 1;
nodes = (
"746 0 LINE",
"830 83 LINE",
"830 144 LINE",
"791 144 LINE",
"791 99 LINE",
"730 39 LINE",
"540 39 LINE",
"479 98 LINE",
"479 240 LINE",
"829 240 LINE",
"829 416 LINE",
"747 498 LINE",
"522 498 LINE",
"440 416 LINE",
"440 82 LINE",
"522 0 LINE"
);
},
{
closed = 1;
nodes = (
"479 399 LINE",
"540 458 LINE",
"730 458 LINE",
"791 399 LINE",
"791 287 LINE",
"479 287 LINE"
);
}
);
};
layerId = "39D11A97-A6D9-4B52-A6F5-15D5E4373676";
paths = (
{
closed = 1;
nodes = (
"396 0 LINE",
"478 82 LINE",
"478 416 LINE",
"396 498 LINE",
"157 498 LINE",
"75 416 LINE",
"75 82 LINE",
"157 0 LINE"
);
},
{
closed = 1;
nodes = (
"113 94 LINE",
"113 404 LINE",
"172 462 LINE",
"381 462 LINE",
"440 404 LINE",
"440 94 LINE",
"381 36 LINE",
"172 36 LINE"
);
},
{
closed = 1;
nodes = (
"745 0 LINE",
"828 83 LINE",
"828 144 LINE",
"790 144 LINE",
"790 96 LINE",
"728 36 LINE",
"539 36 LINE",
"478 97 LINE",
"478 240 LINE",
"829 240 LINE",
"829 416 LINE",
"746 498 LINE",
"522 498 LINE",
"440 416 LINE",
"440 82 LINE",
"522 0 LINE"
);
},
{
closed = 1;
nodes = (
"478 402 LINE",
"538 462 LINE",
"731 462 LINE",
"791 402 LINE",
"791 275 LINE",
"478 275 LINE"
);
}
);
width = 899;
},
{
background = {
paths = (
{
closed = 1;
nodes = (
"430 0 LINE",
"548 118 LINE",
"548 380 LINE",
"430 498 LINE",
"158 498 LINE",
"50 390 LINE",
"50 108 LINE",
"158 0 LINE"
);
},
{
closed = 1;
nodes = (
"182 149 LINE",
"182 349 LINE",
"217 384 LINE",
"383 384 LINE",
"418 349 LINE",
"418 149 LINE",
"383 114 LINE",
"217 114 LINE"
);
},
{
closed = 1;
nodes = (
"794 0 LINE",
"900 106 LINE",
"900 171 LINE",
"768 171 LINE",
"768 141 LINE",
"737 110 LINE",
"581 110 LINE",
"548 143 LINE",
"548 206 LINE",
"901 206 LINE",
"901 390 LINE",
"792 498 LINE",
"526 498 LINE",
"418 390 LINE",
"418 108 LINE",
"526 0 LINE"
);
},
{
closed = 1;
nodes = (
"548 357 LINE",
"581 390 LINE",
"736 390 LINE",
"769 357 LINE",
"769 298 LINE",
"548 298 LINE"
);
}
);
};
layerId = "D6105F7E-CAE1-4F7B-A52E-8AA6E6082DF8";
paths = (
{
closed = 1;
nodes = (
"430 0 LINE",
"548 118 LINE",
"548 380 LINE",
"430 498 LINE",
"158 498 LINE",
"50 390 LINE",
"50 108 LINE",
"158 0 LINE"
);
},
{
closed = 1;
nodes = (
"182 149 LINE",
"182 349 LINE",
"217 384 LINE",
"383 384 LINE",
"418 349 LINE",
"418 149 LINE",
"383 114 LINE",
"217 114 LINE"
);
},
{
closed = 1;
nodes = (
"794 0 LINE",
"900 106 LINE",
"900 171 LINE",
"768 171 LINE",
"768 141 LINE",
"737 110 LINE",
"581 110 LINE",
"548 143 LINE",
"548 206 LINE",
"901 206 LINE",
"901 390 LINE",
"792 498 LINE",
"526 498 LINE",
"418 390 LINE",
"418 108 LINE",
"526 0 LINE"
);
},
{
closed = 1;
nodes = (
"548 357 LINE",
"581 390 LINE",
"736 390 LINE",
"769 357 LINE",
"769 298 LINE",
"548 298 LINE"
);
}
);
width = 946;
},
{
layerId = "3C986DA2-2E28-42A4-B05D-29F449A87569";
paths = (
{
closed = 1;
nodes = (
"413 0 LINE",
"505 92 LINE",
"505 406 LINE",
"413 498 LINE",
"157 498 LINE",
"65 406 LINE",
"65 92 LINE",
"157 0 LINE"
);
},
{
closed = 1;
nodes = (
"139 115 LINE",
"139 383 LINE",
"189 432 LINE",
"381 432 LINE",
"431 383 LINE",
"431 115 LINE",
"381 66 LINE",
"189 66 LINE"
);
},
{
closed = 1;
nodes = (
"764 0 LINE",
"856 92 LINE",
"856 154 LINE",
"782 154 LINE",
"782 115 LINE",
"732 66 LINE",
"555 66 LINE",
"505 115 LINE",
"505 227 LINE",
"856 227 LINE",
"856 406 LINE",
"764 498 LINE",
"523 498 LINE",
"431 406 LINE",
"431 92 LINE",
"523 0 LINE"
);
},
{
closed = 1;
nodes = (
"505 383 LINE",
"555 432 LINE",
"732 432 LINE",
"782 383 LINE",
"782 291 LINE",
"505 291 LINE"
);
}
);
width = 916;
}
);
leftKerningGroup = o;
leftMetricsKey = o;
note = oe;
rightKerningGroup = e;
rightMetricsKey = e;
unicode = 0153;
},
{
glyphname = thorn;
lastChange = "2018-05-14 13:02:05 +0000";
layers = (
{
background = {
paths = (
{
closed = 1;
nodes = (
"123 -212 LINE",
"123 84 LINE",
"216 0 LINE",
"406 0 LINE",
"488 82 LINE",
"488 416 LINE",
"406 498 LINE",
"225 498 LINE",
"123 395 LINE",
"123 710 LINE",
"85 710 LINE",
"85 -212 LINE"
);
},
{
closed = 1;
nodes = (
"123 133 LINE",
"123 345 LINE",
"240 462 LINE",
"391 462 LINE",
"450 404 LINE",
"450 95 LINE",
"391 36 LINE",
"229 36 LINE"
);
}
);
};
layerId = "39D11A97-A6D9-4B52-A6F5-15D5E4373676";
paths = (
{
closed = 1;
nodes = (
"123 -212 LINE",
"123 84 LINE",
"216 0 LINE",
"406 0 LINE",
"488 82 LINE",
"488 416 LINE",
"406 498 LINE",
"225 498 LINE",
"123 395 LINE",
"123 710 LINE",
"85 710 LINE",
"85 -212 LINE"
);
},
{
closed = 1;
nodes = (
"123 133 LINE",
"123 345 LINE",
"240 462 LINE",
"391 462 LINE",
"450 404 LINE",
"450 95 LINE",
"391 36 LINE",
"229 36 LINE"
);
}
);
width = 563;
},
{
background = {
paths = (
{
closed = 1;
nodes = (
"192 -212 LINE",
"192 53 LINE",
"256 0 LINE",
"449 0 LINE",
"552 104 LINE",
"552 394 LINE",
"449 498 LINE",
"255 498 LINE",
"192 437 LINE",
"192 710 LINE",
"60 710 LINE",
"60 -212 LINE"
);
},
{
closed = 1;
nodes = (
"192 183 LINE",
"192 305 LINE",
"272 386 LINE",
"385 386 LINE",
"420 351 LINE",
"420 147 LINE",
"385 112 LINE",
"271 112 LINE"
);
}
);
};
layerId = "D6105F7E-CAE1-4F7B-A52E-8AA6E6082DF8";
paths = (
{
closed = 1;
nodes = (
"192 -212 LINE",
"192 53 LINE",
"256 0 LINE",
"449 0 LINE",
"552 104 LINE",
"552 394 LINE",
"449 498 LINE",
"255 498 LINE",
"192 437 LINE",
"192 710 LINE",
"60 710 LINE",
"60 -212 LINE"
);
},
{
closed = 1;
nodes = (
"192 183 LINE",
"192 305 LINE",
"272 386 LINE",
"385 386 LINE",
"420 351 LINE",
"420 147 LINE",
"385 112 LINE",
"271 112 LINE"
);
}
);
width = 602;
},
{
layerId = "3C986DA2-2E28-42A4-B05D-29F449A87569";
paths = (
{
closed = 1;
nodes = (
"147 710 LINE",
"75 710 LINE",
"75 -212 LINE",
"149 -212 LINE",
"149 72 LINE",
"231 0 LINE",
"423 0 LINE",
"515 92 LINE",
"515 406 LINE",
"423 498 LINE",
"236 498 LINE",
"147 409 LINE"
);
},
{
closed = 1;
nodes = (
"256 432 LINE",
"391 432 LINE",
"441 383 LINE",
"441 115 LINE",
"391 66 LINE",
"245 66 LINE",
"149 153 LINE",
"149 325 LINE"
);
}
);
width = 580;
}
);
leftMetricsKey = p;
note = thorn;
rightKerningGroup = o;
rightMetricsKey = p;
unicode = 00FE;
},
{
glyphname = germandbls;
lastChange = "2018-05-14 13:02:05 +0000";
layers = (
{
layerId = "39D11A97-A6D9-4B52-A6F5-15D5E4373676";
paths = (
{
closed = 1;
nodes = (
"128 0 LINE",
"128 605 LINE",
"184 659 LINE",
"374 659 LINE",
"430 605 LINE",
"430 522 LINE",
"350 402 LINE",
"350 337 LINE",
"399 288 LINE",
"475 288 LINE",
"525 238 LINE",
"525 83 LINE",
"474 34 LINE",
"363 34 LINE",
"312 83 LINE",
"312 128 LINE",
"273 128 LINE",
"273 72 LINE",
"345 0 LINE",
"491 0 LINE",
"563 72 LINE",
"563 250 LINE",
"491 322 LINE",
"416 322 LINE",
"387 351 LINE",
"387 395 LINE",
"468 517 LINE",
"468 616 LINE",
"391 694 LINE",
"167 694 LINE",
"90 616 LINE",
"90 0 LINE"
);
}
);
width = 608;
},
{
background = {
paths = (
{
closed = 1;
nodes = (
"465 361 LINE",
"459 367 LINE",
"459 385 LINE",
"540 475 LINE",
"540 597 LINE",
"437 700 LINE",
"168 700 LINE",
"65 597 LINE",
"65 0 LINE",
"197 0 LINE",
"197 558 LINE",
"225 586 LINE",
"380 586 LINE",
"408 558 LINE",
"408 493 LINE",
"325 403 LINE",
"325 324 LINE",
"400 249 LINE",
"479 249 LINE",
"503 225 LINE",
"503 135 LINE",
"480 112 LINE",
"404 112 LINE",
"381 135 LINE",
"381 170 LINE",
"251 170 LINE",
"251 98 LINE",
"349 0 LINE",
"537 0 LINE",
"635 98 LINE",
"635 263 LINE",
"537 361 LINE"
);
}
);
};
layerId = "D6105F7E-CAE1-4F7B-A52E-8AA6E6082DF8";
paths = (
{
closed = 1;
nodes = (
"197 0 LINE",
"197 560 LINE",
"225 588 LINE",
"380 588 LINE",
"408 560 LINE",
"408 494 LINE",
"325 400 LINE",
"325 324 LINE",
"400 249 LINE",
"479 249 LINE",
"503 225 LINE",
"503 133 LINE",
"480 110 LINE",
"404 110 LINE",
"381 133 LINE",
"381 170 LINE",
"251 170 LINE",
"251 98 LINE",
"349 0 LINE",
"537 0 LINE",
"635 98 LINE",
"635 263 LINE",
"539 359 LINE",
"463 359 LINE",
"457 365 LINE",
"457 385 LINE",
"540 475 LINE",
"540 597 LINE",
"437 700 LINE",
"168 700 LINE",
"65 597 LINE",
"65 0 LINE"
);
}
);
width = 655;
},
{
layerId = "3C986DA2-2E28-42A4-B05D-29F449A87569";
paths = (
{
closed = 1;
nodes = (
"434 335 LINE",
"414 355 LINE",
"414 390 LINE",
"495 500 LINE",
"495 609 LINE",
"408 696 LINE",
"167 696 LINE",
"80 609 LINE",
"80 0 LINE",
"154 0 LINE",
"154 588 LINE",
"199 632 LINE",
"376 632 LINE",
"421 588 LINE",
"421 510 LINE",
"340 400 LINE",
"340 332 LINE",
"399 273 LINE",
"476 273 LINE",
"516 233 LINE",
"516 103 LINE",
"476 64 LINE",
"378 64 LINE",
"338 103 LINE",
"338 144 LINE",
"264 144 LINE",
"264 82 LINE",
"346 0 LINE",
"508 0 LINE",
"590 82 LINE",
"590 253 LINE",
"508 335 LINE"
);
}
);
width = 625;
}
);
note = uni00DF;
unicode = 00DF;
},
{
glyphname = tbar;
lastChange = "2018-05-14 13:02:05 +0000";
layers = (
{
components = (
{
name = t;
}
);
layerId = "39D11A97-A6D9-4B52-A6F5-15D5E4373676";
paths = (
{
closed = 1;
nodes = (
"323 227 LINE",
"323 262 LINE",
"40 262 LINE",
"40 227 LINE"
);
}
);
width = 373;
},
{
associatedMasterId = "39D11A97-A6D9-4B52-A6F5-15D5E4373676";
layerId = "8AF6BA7E-4672-4BE4-A9AE-4DB948958C2C";
name = "new Layer";
width = 600;
},
{
associatedMasterId = "39D11A97-A6D9-4B52-A6F5-15D5E4373676";
layerId = "26E13327-8330-4649-BEE6-6EB9E5BC37E6";
name = "new Layer";
width = 600;
},
{
associatedMasterId = "39D11A97-A6D9-4B52-A6F5-15D5E4373676";
layerId = "76AC1F11-46C0-40E2-AD3B-1629C40F4BEF";
name = "new Layer";
width = 600;
},
{
components = (
{
name = t;
}
);
layerId = "D6105F7E-CAE1-4F7B-A52E-8AA6E6082DF8";
paths = (
{
closed = 1;
nodes = (
"389 199 LINE",
"389 309 LINE",
"15 309 LINE",
"15 199 LINE"
);
}
);
width = 414;
},
{
associatedMasterId = "D6105F7E-CAE1-4F7B-A52E-8AA6E6082DF8";
layerId = "B402E141-6F24-483E-92B0-664B470D6612";
name = "new Layer";
width = 600;
},
{
associatedMasterId = "D6105F7E-CAE1-4F7B-A52E-8AA6E6082DF8";
layerId = "9311D43C-E83C-4FBC-B6EF-152230D48143";
name = "new Layer";
width = 600;
},
{
associatedMasterId = "D6105F7E-CAE1-4F7B-A52E-8AA6E6082DF8";
layerId = "52E62A53-9BC1-47FF-8362-2E585943DF25";
name = "new Layer";
width = 600;
},
{
components = (
{
name = t;
}
);
layerId = "3C986DA2-2E28-42A4-B05D-29F449A87569";
paths = (
{
closed = 1;
nodes = (
"350 212 LINE",
"350 272 LINE",
"30 272 LINE",
"30 212 LINE"
);
}
);
width = 390;
}
);
leftKerningGroup = t;
leftMetricsKey = t;
note = tbar;
rightKerningGroup = t;
rightMetricsKey = t;
unicode = 0167;
},
{
glyphname = fi;
lastChange = "2018-05-14 13:02:05 +0000";
layers = (
{
background = {
paths = (
{
closed = 1;
nodes = (
"166 0 LINE",
"166 460 LINE",
"422 460 LINE",
"422 498 LINE",
"166 498 LINE",
"166 628 LINE",
"221 683 LINE",
"323 683 LINE",
"323 719 LINE",
"206 719 LINE",
"128 640 LINE",
"128 498 LINE",
"39 498 LINE",
"39 460 LINE",
"128 460 LINE",
"128 0 LINE"
);
},
{
closed = 1;
nodes = (
"471 0 LINE",
"471 498 LINE",
"433 498 LINE",
"433 0 LINE"
);
}
);
};
layerId = "39D11A97-A6D9-4B52-A6F5-15D5E4373676";
paths = (
{
closed = 1;
nodes = (
"167 0 LINE",
"167 463 LINE",
"426 463 LINE",
"426 498 LINE",
"167 498 LINE",
"167 605 LINE",
"222 660 LINE",
"324 660 LINE",
"324 696 LINE",
"207 696 LINE",
"129 618 LINE",
"129 498 LINE",
"40 498 LINE",
"40 463 LINE",
"129 463 LINE",
"129 0 LINE"
);
},
{
closed = 1;
nodes = (
"455 0 LINE",
"455 498 LINE",
"417 498 LINE",
"417 0 LINE"
);
}
);
width = 540;
},
{
background = {
paths = (
{
closed = 1;
nodes = (
"239 0 LINE",
"239 386 LINE",
"498 386 LINE",
"498 498 LINE",
"239 498 LINE",
"239 558 LINE",
"267 586 LINE",
"396 586 LINE",
"396 696 LINE",
"208 696 LINE",
"107 595 LINE",
"107 498 LINE",
"15 498 LINE",
"15 386 LINE",
"107 386 LINE",
"107 0 LINE"
);
},
{
closed = 1;
nodes = (
"560 0 LINE",
"560 498 LINE",
"428 498 LINE",
"428 0 LINE"
);
}
);
};
layerId = "D6105F7E-CAE1-4F7B-A52E-8AA6E6082DF8";
paths = (
{
closed = 1;
nodes = (
"239 0 LINE",
"239 386 LINE",
"498 386 LINE",
"498 498 LINE",
"239 498 LINE",
"239 558 LINE",
"267 586 LINE",
"396 586 LINE",
"396 696 LINE",
"208 696 LINE",
"107 595 LINE",
"107 498 LINE",
"15 498 LINE",
"15 386 LINE",
"107 386 LINE",
"107 0 LINE"
);
},
{
closed = 1;
nodes = (
"560 0 LINE",
"560 498 LINE",
"428 498 LINE",
"428 0 LINE"
);
}
);
width = 620;
},
{
layerId = "3C986DA2-2E28-42A4-B05D-29F449A87569";
paths = (
{
closed = 1;
nodes = (
"194 0 LINE",
"194 432 LINE",
"451 432 LINE",
"451 498 LINE",
"194 498 LINE",
"194 601 LINE",
"239 646 LINE",
"351 646 LINE",
"351 710 LINE",
"207 710 LINE",
"120 623 LINE",
"120 498 LINE",
"30 498 LINE",
"30 432 LINE",
"120 432 LINE",
"120 0 LINE"
);
},
{
closed = 1;
nodes = (
"505 0 LINE",
"505 498 LINE",
"431 498 LINE",
"431 0 LINE"
);
}
);
width = 580;
}
);
leftKerningGroup = f;
leftMetricsKey = f;
note = fi;
rightMetricsKey = u;
unicode = FB01;
},
{
glyphname = fl;
lastChange = "2018-05-14 13:02:05 +0000";
layers = (
{
background = {
paths = (
{
closed = 1;
nodes = (
"166 0 LINE",
"166 460 LINE",
"329 460 LINE",
"329 498 LINE",
"166 498 LINE",
"166 621 LINE",
"221 676 LINE",
"423 676 LINE",
"423 710 LINE",
"206 710 LINE",
"128 632 LINE",
"128 498 LINE",
"39 498 LINE",
"39 460 LINE",
"128 460 LINE",
"128 0 LINE"
);
},
{
closed = 1;
nodes = (
"475 0 LINE",
"475 710 LINE",
"438 710 LINE",
"438 0 LINE"
);
}
);
};
layerId = "39D11A97-A6D9-4B52-A6F5-15D5E4373676";
paths = (
{
closed = 1;
nodes = (
"167 0 LINE",
"167 463 LINE",
"324 463 LINE",
"324 498 LINE",
"167 498 LINE",
"167 620 LINE",
"222 675 LINE",
"454 675 LINE",
"454 710 LINE",
"207 710 LINE",
"129 632 LINE",
"129 498 LINE",
"40 498 LINE",
"40 463 LINE",
"129 463 LINE",
"129 0 LINE"
);
},
{
closed = 1;
nodes = (
"465 0 LINE",
"465 710 LINE",
"427 710 LINE",
"427 0 LINE"
);
}
);
width = 555;
},
{
background = {
paths = (
{
closed = 1;
nodes = (
"239 0 LINE",
"239 386 LINE",
"386 386 LINE",
"386 498 LINE",
"239 498 LINE",
"239 574 LINE",
"267 602 LINE",
"496 602 LINE",
"496 710 LINE",
"208 710 LINE",
"107 609 LINE",
"107 498 LINE",
"15 498 LINE",
"15 386 LINE",
"107 386 LINE",
"107 0 LINE"
);
},
{
closed = 1;
nodes = (
"593 0 LINE",
"593 710 LINE",
"459 710 LINE",
"459 0 LINE"
);
}
);
};
layerId = "D6105F7E-CAE1-4F7B-A52E-8AA6E6082DF8";
paths = (
{
closed = 1;
nodes = (
"239 0 LINE",
"239 386 LINE",
"386 386 LINE",
"386 498 LINE",
"239 498 LINE",
"239 574 LINE",
"267 602 LINE",
"496 602 LINE",
"496 710 LINE",
"208 710 LINE",
"107 609 LINE",
"107 498 LINE",
"15 498 LINE",
"15 386 LINE",
"107 386 LINE",
"107 0 LINE"
);
},
{
closed = 1;
nodes = (
"593 0 LINE",
"593 710 LINE",
"459 710 LINE",
"459 0 LINE"
);
}
);
width = 658;
},
{
layerId = "3C986DA2-2E28-42A4-B05D-29F449A87569";
paths = (
{
closed = 1;
nodes = (
"194 0 LINE",
"194 432 LINE",
"351 432 LINE",
"351 498 LINE",
"194 498 LINE",
"194 603 LINE",
"239 648 LINE",
"451 648 LINE",
"451 710 LINE",
"207 710 LINE",
"120 623 LINE",
"120 498 LINE",
"30 498 LINE",
"30 432 LINE",
"120 432 LINE",
"120 0 LINE"
);
},
{
closed = 1;
nodes = (
"520 0 LINE",
"520 710 LINE",
"446 710 LINE",
"446 0 LINE"
);
}
);
width = 600;
}
);
leftKerningGroup = f;
leftMetricsKey = f;
note = fl;
rightMetricsKey = l;
unicode = FB02;
},
{
color = 0;
glyphname = ordfeminine;
lastChange = "2018-05-03 07:09:38 +0000";
layers = (
{
layerId = "39D11A97-A6D9-4B52-A6F5-15D5E4373676";
paths = (
{
closed = 1;
nodes = (
"278 269 LINE",
"279 271 OFFCURVE",
"342 334 OFFCURVE",
"357 349 CURVE",
"357 329 OFFCURVE",
"357 269 OFFCURVE",
"357 269 CURVE",
"411 269 LINE",
"411 581 LINE",
"342 649 LINE",
"122 649 LINE",
"54 581 LINE",
"54 529 LINE",
"107 529 LINE",
"107 529 OFFCURVE",
"107 553 OFFCURVE",
"107 558 CURVE",
"110 562 OFFCURVE",
"141 591 OFFCURVE",
"144 594 CURVE",
"149 594 OFFCURVE",
"316 594 OFFCURVE",
"321 594 CURVE",
"323 591 OFFCURVE",
"354 562 OFFCURVE",
"357 558 CURVE",
"357 555 OFFCURVE",
"357 516 OFFCURVE",
"357 508 CURVE",
"346 508 OFFCURVE",
"122 508 OFFCURVE",
"122 508 CURVE",
"54 440 LINE",
"54 338 LINE",
"122 269 LINE"
);
},
{
closed = 1;
nodes = (
"141 326 OFFCURVE",
"110 357 OFFCURVE",
"107 360 CURVE",
"107 364 OFFCURVE",
"107 412 OFFCURVE",
"107 417 CURVE",
"110 420 OFFCURVE",
"141 451 OFFCURVE",
"144 453 CURVE",
"149 453 OFFCURVE",
"347 453 OFFCURVE",
"357 453 CURVE",
"357 446 OFFCURVE",
"357 422 OFFCURVE",
"357 419 CURVE",
"354 415 OFFCURVE",
"266 326 OFFCURVE",
"263 323 CURVE",
"258 323 OFFCURVE",
"148 323 OFFCURVE",
"144 323 CURVE"
);
}
);
width = 493;
},
{
layerId = "D6105F7E-CAE1-4F7B-A52E-8AA6E6082DF8";
paths = (
{
closed = 1;
nodes = (
"278 269 LINE",
"279 271 OFFCURVE",
"342 334 OFFCURVE",
"357 349 CURVE",
"357 329 OFFCURVE",
"357 269 OFFCURVE",
"357 269 CURVE",
"411 269 LINE",
"411 581 LINE",
"342 649 LINE",
"122 649 LINE",
"54 581 LINE",
"54 529 LINE",
"107 529 LINE",
"107 529 OFFCURVE",
"107 553 OFFCURVE",
"107 558 CURVE",
"110 562 OFFCURVE",
"141 591 OFFCURVE",
"144 594 CURVE",
"149 594 OFFCURVE",
"316 594 OFFCURVE",
"321 594 CURVE",
"323 591 OFFCURVE",
"354 562 OFFCURVE",
"357 558 CURVE",
"357 555 OFFCURVE",
"357 516 OFFCURVE",
"357 508 CURVE",
"346 508 OFFCURVE",
"122 508 OFFCURVE",
"122 508 CURVE",
"54 440 LINE",
"54 338 LINE",
"122 269 LINE"
);
},
{
closed = 1;
nodes = (
"141 326 OFFCURVE",
"110 357 OFFCURVE",
"107 360 CURVE",
"107 364 OFFCURVE",
"107 412 OFFCURVE",
"107 417 CURVE",
"110 420 OFFCURVE",
"141 451 OFFCURVE",
"144 453 CURVE",
"149 453 OFFCURVE",
"347 453 OFFCURVE",
"357 453 CURVE",
"357 446 OFFCURVE",
"357 422 OFFCURVE",
"357 419 CURVE",
"354 415 OFFCURVE",
"266 326 OFFCURVE",
"263 323 CURVE",
"258 323 OFFCURVE",
"148 323 OFFCURVE",
"144 323 CURVE"
);
}
);
width = 493;
},
{
layerId = "3C986DA2-2E28-42A4-B05D-29F449A87569";
paths = (
{
closed = 1;
nodes = (
"54 581 LINE",
"54 529 LINE",
"107 529 LINE",
"107 529 OFFCURVE",
"107 553 OFFCURVE",
"107 558 CURVE",
"110 562 OFFCURVE",
"141 591 OFFCURVE",
"144 594 CURVE",
"149 594 OFFCURVE",
"316 594 OFFCURVE",
"321 594 CURVE",
"323 591 OFFCURVE",
"354 562 OFFCURVE",
"357 558 CURVE",
"357 555 OFFCURVE",
"357 516 OFFCURVE",
"357 508 CURVE",
"346 508 OFFCURVE",
"122 508 OFFCURVE",
"122 508 CURVE",
"54 440 LINE",
"54 338 LINE",
"122 269 LINE",
"278 269 LINE",
"279 271 OFFCURVE",
"342 334 OFFCURVE",
"357 349 CURVE",
"357 329 OFFCURVE",
"357 269 OFFCURVE",
"357 269 CURVE",
"411 269 LINE",
"411 581 LINE",
"342 649 LINE",
"122 649 LINE"
);
},
{
closed = 1;
nodes = (
"357 446 OFFCURVE",
"357 422 OFFCURVE",
"357 419 CURVE",
"354 415 OFFCURVE",
"266 326 OFFCURVE",
"263 323 CURVE",
"258 323 OFFCURVE",
"148 323 OFFCURVE",
"144 323 CURVE",
"141 326 OFFCURVE",
"110 357 OFFCURVE",
"107 360 CURVE",
"107 364 OFFCURVE",
"107 412 OFFCURVE",
"107 417 CURVE",
"110 420 OFFCURVE",
"141 451 OFFCURVE",
"144 453 CURVE",
"149 453 OFFCURVE",
"347 453 OFFCURVE",
"357 453 CURVE"
);
}
);
width = 493;
}
);
note = ordfeminine;
unicode = 00AA;
},
{
color = 0;
glyphname = ordmasculine;
lastChange = "2018-05-03 07:09:38 +0000";
layers = (
{
layerId = "39D11A97-A6D9-4B52-A6F5-15D5E4373676";
paths = (
{
closed = 1;
nodes = (
"260 380 LINE",
"320 438 LINE",
"320 583 LINE",
"260 641 LINE",
"117 641 LINE",
"57 583 LINE",
"57 438 LINE",
"117 380 LINE"
);
},
{
closed = 1;
nodes = (
"107 459 LINE",
"107 560 LINE",
"138 591 LINE",
"239 591 LINE",
"268 560 LINE",
"268 459 LINE",
"239 430 LINE",
"138 430 LINE"
);
}
);
width = 403;
},
{
layerId = "D6105F7E-CAE1-4F7B-A52E-8AA6E6082DF8";
paths = (
{
closed = 1;
nodes = (
"260 380 LINE",
"320 438 LINE",
"320 583 LINE",
"260 641 LINE",
"117 641 LINE",
"57 583 LINE",
"57 438 LINE",
"117 380 LINE"
);
},
{
closed = 1;
nodes = (
"107 459 LINE",
"107 560 LINE",
"138 591 LINE",
"239 591 LINE",
"268 560 LINE",
"268 459 LINE",
"239 430 LINE",
"138 430 LINE"
);
}
);
width = 403;
},
{
layerId = "3C986DA2-2E28-42A4-B05D-29F449A87569";
paths = (
{
closed = 1;
nodes = (
"117 641 LINE",
"57 583 LINE",
"57 438 LINE",
"117 380 LINE",
"260 380 LINE",
"320 438 LINE",
"320 583 LINE",
"260 641 LINE"
);
},
{
closed = 1;
nodes = (
"239 430 LINE",
"138 430 LINE",
"107 459 LINE",
"107 560 LINE",
"138 591 LINE",
"239 591 LINE",
"268 560 LINE",
"268 459 LINE"
);
}
);
width = 403;
}
);
note = ordmasculine;
unicode = 00BA;
},
{
color = 0;
glyphname = nmod;
lastChange = "2018-05-03 07:09:38 +0000";
layers = (
{
layerId = "39D11A97-A6D9-4B52-A6F5-15D5E4373676";
paths = (
{
closed = 1;
nodes = (
"410 378 LINE",
"410 397 LINE",
"392 397 LINE SMOOTH",
"368 397 OFFCURVE",
"350 405 OFFCURVE",
"350 424 CURVE SMOOTH",
"350 599 LINE SMOOTH",
"350 660 OFFCURVE",
"323 708 OFFCURVE",
"240 708 CURVE SMOOTH",
"168 708 OFFCURVE",
"128 658 OFFCURVE",
"116 601 CURVE",
"116 548 LINE",
"135 548 LINE",
"135 628 OFFCURVE",
"173 677 OFFCURVE",
"221 677 CURVE SMOOTH",
"266 677 OFFCURVE",
"281 652 OFFCURVE",
"281 595 CURVE SMOOTH",
"281 424 LINE SMOOTH",
"281 405 OFFCURVE",
"264 397 OFFCURVE",
"239 397 CURVE SMOOTH",
"229 397 LINE",
"229 378 LINE"
);
},
{
closed = 1;
nodes = (
"187 378 LINE",
"187 397 LINE",
"177 397 LINE SMOOTH",
"152 397 OFFCURVE",
"135 405 OFFCURVE",
"135 424 CURVE SMOOTH",
"135 706 LINE",
"114 706 LINE",
"17 670 LINE",
"22 652 LINE",
"30 655 OFFCURVE",
"42 659 OFFCURVE",
"50 659 CURVE SMOOTH",
"58 659 OFFCURVE",
"66 656 OFFCURVE",
"66 643 CURVE SMOOTH",
"66 424 LINE SMOOTH",
"66 405 OFFCURVE",
"48 397 OFFCURVE",
"23 397 CURVE SMOOTH",
"6 397 LINE",
"6 378 LINE"
);
}
);
width = 416;
},
{
layerId = "D6105F7E-CAE1-4F7B-A52E-8AA6E6082DF8";
paths = (
{
closed = 1;
nodes = (
"410 378 LINE",
"410 397 LINE",
"392 397 LINE SMOOTH",
"368 397 OFFCURVE",
"350 405 OFFCURVE",
"350 424 CURVE SMOOTH",
"350 599 LINE SMOOTH",
"350 660 OFFCURVE",
"323 708 OFFCURVE",
"240 708 CURVE SMOOTH",
"168 708 OFFCURVE",
"128 658 OFFCURVE",
"116 601 CURVE",
"116 548 LINE",
"135 548 LINE",
"135 628 OFFCURVE",
"173 677 OFFCURVE",
"221 677 CURVE SMOOTH",
"266 677 OFFCURVE",
"281 652 OFFCURVE",
"281 595 CURVE SMOOTH",
"281 424 LINE SMOOTH",
"281 405 OFFCURVE",
"264 397 OFFCURVE",
"239 397 CURVE SMOOTH",
"229 397 LINE",
"229 378 LINE"
);
},
{
closed = 1;
nodes = (
"187 378 LINE",
"187 397 LINE",
"177 397 LINE SMOOTH",
"152 397 OFFCURVE",
"135 405 OFFCURVE",
"135 424 CURVE SMOOTH",
"135 706 LINE",
"114 706 LINE",
"17 670 LINE",
"22 652 LINE",
"30 655 OFFCURVE",
"42 659 OFFCURVE",
"50 659 CURVE SMOOTH",
"58 659 OFFCURVE",
"66 656 OFFCURVE",
"66 643 CURVE SMOOTH",
"66 424 LINE SMOOTH",
"66 405 OFFCURVE",
"48 397 OFFCURVE",
"23 397 CURVE SMOOTH",
"6 397 LINE",
"6 378 LINE"
);
}
);
width = 416;
},
{
layerId = "3C986DA2-2E28-42A4-B05D-29F449A87569";
paths = (
{
closed = 1;
nodes = (
"410 378 LINE",
"410 397 LINE",
"392 397 LINE SMOOTH",
"368 397 OFFCURVE",
"350 405 OFFCURVE",
"350 424 CURVE SMOOTH",
"350 599 LINE SMOOTH",
"350 660 OFFCURVE",
"323 708 OFFCURVE",
"240 708 CURVE SMOOTH",
"168 708 OFFCURVE",
"128 658 OFFCURVE",
"116 601 CURVE",
"116 548 LINE",
"135 548 LINE",
"135 628 OFFCURVE",
"173 677 OFFCURVE",
"221 677 CURVE SMOOTH",
"266 677 OFFCURVE",
"281 652 OFFCURVE",
"281 595 CURVE SMOOTH",
"281 424 LINE SMOOTH",
"281 405 OFFCURVE",
"264 397 OFFCURVE",
"239 397 CURVE SMOOTH",
"229 397 LINE",
"229 378 LINE"
);
},
{
closed = 1;
nodes = (
"187 378 LINE",
"187 397 LINE",
"177 397 LINE SMOOTH",
"152 397 OFFCURVE",
"135 405 OFFCURVE",
"135 424 CURVE SMOOTH",
"135 706 LINE",
"114 706 LINE",
"17 670 LINE",
"22 652 LINE",
"30 655 OFFCURVE",
"42 659 OFFCURVE",
"50 659 CURVE SMOOTH",
"58 659 OFFCURVE",
"66 656 OFFCURVE",
"66 643 CURVE SMOOTH",
"66 424 LINE SMOOTH",
"66 405 OFFCURVE",
"48 397 OFFCURVE",
"23 397 CURVE SMOOTH",
"6 397 LINE",
"6 378 LINE"
);
}
);
width = 416;
}
);
note = uni207F;
unicode = 207F;
},
{
glyphname = Delta;
lastChange = "2018-05-14 07:30:29 +0000";
layers = (
{
layerId = "39D11A97-A6D9-4B52-A6F5-15D5E4373676";
paths = (
{
closed = 1;
nodes = (
"587 0 LINE",
"587 39 LINE",
"349 700 LINE",
"294 700 LINE",
"54 39 LINE",
"54 0 LINE"
);
},
{
closed = 1;
nodes = (
"319 660 LINE",
"324 660 LINE",
"547 36 LINE",
"94 36 LINE"
);
}
);
width = 642;
},
{
background = {
paths = (
{
closed = 1;
nodes = (
"637 0 LINE",
"637 88 LINE",
"394 700 LINE",
"248 700 LINE",
"5 88 LINE",
"5 0 LINE"
);
},
{
closed = 1;
nodes = (
"318 562 LINE",
"324 562 LINE",
"497 112 LINE",
"145 112 LINE"
);
}
);
};
layerId = "D6105F7E-CAE1-4F7B-A52E-8AA6E6082DF8";
paths = (
{
closed = 1;
nodes = (
"634 0 LINE",
"634 88 LINE",
"394 700 LINE",
"248 700 LINE",
"8 88 LINE",
"8 0 LINE"
);
},
{
closed = 1;
nodes = (
"318 562 LINE",
"324 562 LINE",
"494 112 LINE",
"148 112 LINE"
);
}
);
width = 642;
},
{
layerId = "3C986DA2-2E28-42A4-B05D-29F449A87569";
paths = (
{
closed = 1;
nodes = (
"270 700 LINE",
"35 58 LINE",
"35 0 LINE",
"607 0 LINE",
"607 58 LINE",
"372 700 LINE"
);
},
{
closed = 1;
nodes = (
"318 638 LINE",
"324 638 LINE",
"527 64 LINE",
"113 64 LINE"
);
}
);
width = 642;
}
);
note = Delta;
unicode = 0394;
},
{
glyphname = Omega;
lastChange = "2018-05-14 07:30:16 +0000";
layers = (
{
background = {
paths = (
{
closed = 1;
nodes = (
"242 0 LINE",
"242 176 LINE",
"133 285 LINE",
"133 601 LINE",
"197 666 LINE",
"495 666 LINE",
"559 601 LINE",
"559 285 LINE",
"450 176 LINE",
"450 0 LINE",
"613 0 LINE",
"613 33 LINE",
"483 33 LINE",
"483 160 LINE",
"595 272 LINE",
"595 618 LINE",
"513 700 LINE",
"179 700 LINE",
"97 618 LINE",
"97 272 LINE",
"209 160 LINE",
"209 33 LINE",
"79 33 LINE",
"79 0 LINE"
);
}
);
};
layerId = "39D11A97-A6D9-4B52-A6F5-15D5E4373676";
paths = (
{
closed = 1;
nodes = (
"244 0 LINE",
"244 175 LINE",
"134 285 LINE",
"134 599 LINE",
"198 664 LINE",
"494 664 LINE",
"558 599 LINE",
"558 285 LINE",
"448 175 LINE",
"448 0 LINE",
"613 0 LINE",
"613 35 LINE",
"484 35 LINE",
"484 161 LINE",
"595 272 LINE",
"595 618 LINE",
"513 700 LINE",
"179 700 LINE",
"97 618 LINE",
"97 272 LINE",
"208 161 LINE",
"208 35 LINE",
"79 35 LINE",
"79 0 LINE"
);
}
);
width = 692;
},
{
background = {
paths = (
{
closed = 1;
nodes = (
"290 0 LINE",
"290 207 LINE",
"184 314 LINE",
"184 540 LINE",
"226 582 LINE",
"465 582 LINE",
"507 540 LINE",
"507 314 LINE",
"401 207 LINE",
"401 0 LINE",
"661 0 LINE",
"661 114 LINE",
"531 114 LINE",
"531 166 LINE",
"643 278 LINE",
"643 584 LINE",
"527 700 LINE",
"164 700 LINE",
"48 584 LINE",
"48 278 LINE",
"160 166 LINE",
"160 114 LINE",
"30 114 LINE",
"30 0 LINE"
);
}
);
};
layerId = "D6105F7E-CAE1-4F7B-A52E-8AA6E6082DF8";
paths = (
{
closed = 1;
nodes = (
"293 0 LINE",
"293 207 LINE",
"187 314 LINE",
"187 540 LINE",
"229 582 LINE",
"462 582 LINE",
"504 540 LINE",
"504 314 LINE",
"398 207 LINE",
"398 0 LINE",
"658 0 LINE",
"658 114 LINE",
"528 114 LINE",
"528 166 LINE",
"640 278 LINE",
"640 584 LINE",
"524 700 LINE",
"167 700 LINE",
"51 584 LINE",
"51 278 LINE",
"163 166 LINE",
"163 114 LINE",
"33 114 LINE",
"33 0 LINE"
);
}
);
width = 691;
},
{
layerId = "3C986DA2-2E28-42A4-B05D-29F449A87569";
paths = (
{
closed = 1;
nodes = (
"501 162 LINE",
"613 274 LINE",
"613 605 LINE",
"518 700 LINE",
"173 700 LINE",
"78 605 LINE",
"78 274 LINE",
"190 162 LINE",
"190 64 LINE",
"60 64 LINE",
"60 0 LINE",
"260 0 LINE",
"260 188 LINE",
"152 296 LINE",
"152 578 LINE",
"208 634 LINE",
"483 634 LINE",
"539 578 LINE",
"539 296 LINE",
"431 188 LINE",
"431 0 LINE",
"631 0 LINE",
"631 64 LINE",
"501 64 LINE"
);
}
);
width = 691;
}
);
note = Omega;
unicode = 03A9;
},
{
glyphname = mu;
lastChange = "2018-05-14 07:29:52 +0000";
layers = (
{
background = {
paths = (
{
closed = 1;
nodes = (
"326 0 LINE",
"431 105 LINE",
"431 0 LINE",
"471 0 LINE",
"471 498 LINE",
"433 498 LINE",
"433 160 LINE",
"309 36 LINE",
"206 36 LINE",
"127 114 LINE",
"127 498 LINE",
"89 498 LINE",
"89 94 LINE",
"183 0 LINE"
);
},
{
closed = 1;
nodes = (
"128 -200 LINE",
"128 76 LINE",
"127 82 LINE",
"127 268 LINE",
"89 268 LINE",
"89 -200 LINE"
);
}
);
};
layerId = "39D11A97-A6D9-4B52-A6F5-15D5E4373676";
paths = (
{
closed = 1;
nodes = (
"311 0 LINE",
"436 125 LINE",
"436 0 LINE",
"474 0 LINE",
"474 498 LINE",
"436 498 LINE",
"436 176 LINE",
"297 36 LINE",
"186 36 LINE",
"127 94 LINE",
"127 498 LINE",
"89 498 LINE",
"89 82 LINE",
"171 0 LINE"
);
},
{
closed = 1;
nodes = (
"127 -200 LINE",
"127 76 LINE",
"127 82 LINE",
"127 268 LINE",
"89 268 LINE",
"89 -200 LINE"
);
}
);
width = 565;
},
{
background = {
paths = (
{
closed = 1;
nodes = (
"316 0 LINE",
"398 82 LINE",
"398 0 LINE",
"522 0 LINE",
"522 498 LINE",
"390 498 LINE",
"390 212 LINE",
"292 114 LINE",
"227 114 LINE",
"172 169 LINE",
"172 498 LINE",
"40 498 LINE",
"40 168 LINE",
"208 0 LINE"
);
},
{
closed = 1;
nodes = (
"170 -200 LINE",
"170 82 LINE",
"172 100 LINE",
"172 310 LINE",
"40 310 LINE",
"40 -200 LINE"
);
}
);
};
layerId = "D6105F7E-CAE1-4F7B-A52E-8AA6E6082DF8";
paths = (
{
closed = 1;
nodes = (
"315 0 LINE",
"395 82 LINE",
"395 0 LINE",
"519 0 LINE",
"519 498 LINE",
"387 498 LINE",
"387 212 LINE",
"292 114 LINE",
"229 114 LINE",
"175 169 LINE",
"175 498 LINE",
"43 498 LINE",
"43 168 LINE",
"210 0 LINE"
);
},
{
closed = 1;
nodes = (
"173 -200 LINE",
"173 82 LINE",
"175 100 LINE",
"175 310 LINE",
"43 310 LINE",
"43 -200 LINE"
);
}
);
width = 565;
},
{
layerId = "3C986DA2-2E28-42A4-B05D-29F449A87569";
paths = (
{
closed = 1;
nodes = (
"324 0 LINE",
"420 96 LINE",
"420 0 LINE",
"492 0 LINE",
"492 498 LINE",
"418 498 LINE",
"418 180 LINE",
"304 66 LINE",
"214 66 LINE",
"144 135 LINE",
"144 498 LINE",
"70 498 LINE",
"70 122 LINE",
"192 0 LINE"
);
},
{
closed = 1;
nodes = (
"144 -200 LINE",
"144 78 LINE",
"144 89 LINE",
"144 284 LINE",
"70 284 LINE",
"70 -200 LINE"
);
}
);
width = 567;
}
);
note = mu;
unicode = 03BC;
},
{
glyphname = pi;
lastChange = "2018-05-14 07:30:38 +0000";
layers = (
{
background = {
paths = (
{
closed = 1;
nodes = (
"637 0 LINE",
"637 35 LINE",
"568 35 LINE",
"522 82 LINE",
"522 461 LINE",
"637 461 LINE",
"637 496 LINE",
"74 497 LINE",
"74 462 LINE",
"484 462 LINE",
"484 72 LINE",
"556 0 LINE"
);
},
{
closed = 1;
nodes = (
"217 0 LINE",
"217 483 LINE",
"178 483 LINE",
"178 0 LINE"
);
}
);
};
layerId = "39D11A97-A6D9-4B52-A6F5-15D5E4373676";
paths = (
{
closed = 1;
nodes = (
"637 0 LINE",
"637 35 LINE",
"572 35 LINE",
"522 85 LINE",
"522 463 LINE",
"637 463 LINE",
"637 498 LINE",
"74 498 LINE",
"74 463 LINE",
"484 463 LINE",
"484 72 LINE",
"556 0 LINE"
);
},
{
closed = 1;
nodes = (
"217 0 LINE",
"217 484 LINE",
"178 484 LINE",
"178 0 LINE"
);
}
);
width = 710;
},
{
background = {
paths = (
{
closed = 1;
nodes = (
"685 0 LINE",
"685 114 LINE",
"597 114 LINE",
"567 143 LINE",
"567 383 LINE",
"685 383 LINE",
"685 498 LINE",
"25 498 LINE",
"25 383 LINE",
"435 383 LINE",
"435 98 LINE",
"533 0 LINE"
);
},
{
closed = 1;
nodes = (
"263 0 LINE",
"263 485 LINE",
"131 485 LINE",
"131 0 LINE"
);
}
);
};
layerId = "D6105F7E-CAE1-4F7B-A52E-8AA6E6082DF8";
paths = (
{
closed = 1;
nodes = (
"679 0 LINE",
"679 114 LINE",
"591 114 LINE",
"561 143 LINE",
"561 383 LINE",
"679 383 LINE",
"679 498 LINE",
"25 498 LINE",
"25 383 LINE",
"429 383 LINE",
"429 98 LINE",
"527 0 LINE"
);
},
{
closed = 1;
nodes = (
"263 0 LINE",
"263 485 LINE",
"131 485 LINE",
"131 0 LINE"
);
}
);
width = 710;
},
{
layerId = "3C986DA2-2E28-42A4-B05D-29F449A87569";
paths = (
{
closed = 1;
nodes = (
"655 497 LINE",
"55 498 LINE",
"55 432 LINE",
"465 432 LINE",
"465 82 LINE",
"547 0 LINE",
"655 0 LINE",
"655 65 LINE",
"579 65 LINE",
"539 105 LINE",
"539 431 LINE",
"655 431 LINE"
);
},
{
closed = 1;
nodes = (
"160 0 LINE",
"234 0 LINE",
"234 484 LINE",
"160 484 LINE"
);
}
);
width = 710;
}
);
note = pi;
unicode = 03C0;
},
{
glyphname = "koKai-thai";
lastChange = "2018-05-14 14:30:28 +0000";
layers = (
{
anchors = (
{
name = bottom;
position = "{476, 0}";
},
{
name = top;
position = "{476, 498}";
}
);
background = {
paths = (
{
closed = 1;
nodes = (
"127 0 LINE",
"127 304 LINE",
"191 388 LINE",
"107 473 LINE",
"158 522 LINE",
"385 522 LINE",
"438 469 LINE",
"438 0 LINE",
"476 0 LINE",
"476 487 LINE",
"405 558 LINE",
"145 558 LINE",
"60 473 LINE",
"146 388 LINE",
"89 314 LINE",
"89 0 LINE"
);
}
);
};
layerId = "39D11A97-A6D9-4B52-A6F5-15D5E4373676";
paths = (
{
closed = 1;
nodes = (
"127 0 LINE",
"127 304 LINE",
"191 388 LINE",
"107 473 LINE",
"158 522 LINE",
"386 522 LINE",
"438 470 LINE",
"438 0 LINE",
"476 0 LINE",
"476 487 LINE",
"405 558 LINE",
"145 558 LINE",
"60 473 LINE",
"146 388 LINE",
"89 314 LINE",
"89 0 LINE"
);
}
);
width = 566;
},
{
anchors = (
{
name = bottom;
position = "{558, 0}";
},
{
name = top;
position = "{558, 498}";
}
);
background = {
paths = (
{
closed = 1;
nodes = (
"214 0 LINE",
"214 265 LINE",
"267 343 LINE",
"189 425 LINE",
"208 444 LINE",
"398 444 LINE",
"424 417 LINE",
"424 0 LINE",
"558 0 LINE",
"558 461 LINE",
"462 558 LINE",
"161 558 LINE",
"35 431 LINE",
"123 343 LINE",
"80 284 LINE",
"80 0 LINE"
);
}
);
};
layerId = "D6105F7E-CAE1-4F7B-A52E-8AA6E6082DF8";
paths = (
{
closed = 1;
nodes = (
"214 0 LINE",
"214 265 LINE",
"267 343 LINE",
"189 425 LINE",
"208 444 LINE",
"398 444 LINE",
"424 417 LINE",
"424 0 LINE",
"558 0 LINE",
"558 461 LINE",
"462 558 LINE",
"161 558 LINE",
"35 431 LINE",
"123 343 LINE",
"80 284 LINE",
"80 0 LINE"
);
}
);
width = 623;
},
{
anchors = (
{
name = bottom;
position = "{509, 0}";
},
{
name = top;
position = "{509, 498}";
}
);
layerId = "3C986DA2-2E28-42A4-B05D-29F449A87569";
paths = (
{
closed = 1;
nodes = (
"159 0 LINE",
"159 284 LINE",
"220 371 LINE",
"138 457 LINE",
"175 490 LINE",
"392 490 LINE",
"435 447 LINE",
"435 0 LINE",
"509 0 LINE",
"509 477 LINE",
"428 558 LINE",
"151 558 LINE",
"50 457 LINE",
"137 371 LINE",
"85 304 LINE",
"85 0 LINE"
);
}
);
width = 589;
}
);
note = uni0E01;
unicode = 0E01;
},
{
glyphname = "thoThung-thai";
lastChange = "2018-05-14 14:30:32 +0000";
layers = (
{
anchors = (
{
name = bottom;
position = "{476, 0}";
},
{
name = top;
position = "{476, 498}";
}
);
background = {
paths = (
{
closed = 1;
nodes = (
"197 0 LINE",
"245 48 LINE",
"245 110 LINE",
"197 158 LINE",
"141 158 LINE",
"121 141 LINE",
"123 183 LINE",
"123 304 LINE",
"191 388 LINE",
"107 473 LINE",
"158 522 LINE",
"385 522 LINE",
"438 469 LINE",
"438 0 LINE",
"476 0 LINE",
"476 487 LINE",
"405 558 LINE",
"145 558 LINE",
"60 473 LINE",
"146 388 LINE",
"85 314 LINE",
"85 48 LINE",
"133 0 LINE"
);
},
{
closed = 1;
nodes = (
"119 58 LINE",
"119 100 LINE",
"145 126 LINE",
"185 126 LINE",
"211 100 LINE",
"211 58 LINE",
"185 32 LINE",
"145 32 LINE"
);
}
);
};
layerId = "39D11A97-A6D9-4B52-A6F5-15D5E4373676";
paths = (
{
closed = 1;
nodes = (
"197 0 LINE",
"245 48 LINE",
"245 110 LINE",
"197 158 LINE",
"141 158 LINE",
"121 141 LINE",
"123 183 LINE",
"123 304 LINE",
"191 388 LINE",
"107 473 LINE",
"158 522 LINE",
"386 522 LINE",
"438 470 LINE",
"438 0 LINE",
"476 0 LINE",
"476 487 LINE",
"405 558 LINE",
"145 558 LINE",
"60 473 LINE",
"146 388 LINE",
"85 314 LINE",
"85 48 LINE",
"133 0 LINE"
);
},
{
closed = 1;
nodes = (
"119 58 LINE",
"119 100 LINE",
"145 126 LINE",
"185 126 LINE",
"211 100 LINE",
"211 58 LINE",
"185 32 LINE",
"145 32 LINE"
);
}
);
width = 566;
},
{
anchors = (
{
name = bottom;
position = "{558, 0}";
},
{
name = top;
position = "{558, 498}";
}
);
background = {
paths = (
{
closed = 1;
nodes = (
"245 0 LINE",
"314 67 LINE",
"314 161 LINE",
"246 226 LINE",
"215 226 LINE",
"206 226 LINE",
"208 238 LINE",
"208 267 LINE",
"267 343 LINE",
"189 425 LINE",
"208 444 LINE",
"398 444 LINE",
"424 417 LINE",
"424 0 LINE",
"558 0 LINE",
"558 461 LINE",
"462 558 LINE",
"161 558 LINE",
"35 431 LINE",
"123 343 LINE",
"76 284 LINE",
"76 67 LINE",
"143 0 LINE"
);
},
{
closed = 1;
nodes = (
"159 97 LINE",
"159 131 LINE",
"179 151 LINE",
"213 151 LINE",
"233 131 LINE",
"233 97 LINE",
"213 77 LINE",
"179 77 LINE"
);
}
);
};
layerId = "D6105F7E-CAE1-4F7B-A52E-8AA6E6082DF8";
paths = (
{
closed = 1;
nodes = (
"245 0 LINE",
"314 67 LINE",
"314 161 LINE",
"246 226 LINE",
"215 226 LINE",
"206 226 LINE",
"208 238 LINE",
"208 267 LINE",
"267 343 LINE",
"189 425 LINE",
"208 444 LINE",
"398 444 LINE",
"424 417 LINE",
"424 0 LINE",
"558 0 LINE",
"558 461 LINE",
"462 558 LINE",
"161 558 LINE",
"35 431 LINE",
"123 343 LINE",
"76 284 LINE",
"76 67 LINE",
"143 0 LINE"
);
},
{
closed = 1;
nodes = (
"159 97 LINE",
"159 131 LINE",
"179 151 LINE",
"213 151 LINE",
"233 131 LINE",
"233 97 LINE",
"213 77 LINE",
"179 77 LINE"
);
}
);
width = 623;
},
{
anchors = (
{
name = bottom;
position = "{509, 0}";
},
{
name = top;
position = "{509, 498}";
}
);
background = {
paths = (
{
closed = 1;
nodes = (
"217 0 LINE",
"277 59 LINE",
"277 133 LINE",
"217 190 LINE",
"169 190 LINE",
"150 190 LINE",
"155 238 LINE",
"155 284 LINE",
"220 371 LINE",
"138 457 LINE",
"175 490 LINE",
"392 490 LINE",
"435 447 LINE",
"435 0 LINE",
"509 0 LINE",
"509 477 LINE",
"428 558 LINE",
"151 558 LINE",
"50 457 LINE",
"137 371 LINE",
"81 304 LINE",
"81 59 LINE",
"141 0 LINE"
);
},
{
closed = 1;
nodes = (
"135 74 LINE",
"135 116 LINE",
"161 140 LINE",
"197 140 LINE",
"223 116 LINE",
"223 74 LINE",
"197 50 LINE",
"161 50 LINE"
);
}
);
};
layerId = "3C986DA2-2E28-42A4-B05D-29F449A87569";
paths = (
{
closed = 1;
nodes = (
"217 0 LINE",
"277 59 LINE",
"277 133 LINE",
"217 190 LINE",
"169 190 LINE",
"150 190 LINE",
"155 238 LINE",
"155 284 LINE",
"220 371 LINE",
"138 457 LINE",
"175 490 LINE",
"392 490 LINE",
"435 447 LINE",
"435 0 LINE",
"509 0 LINE",
"509 477 LINE",
"428 558 LINE",
"151 558 LINE",
"50 457 LINE",
"137 371 LINE",
"81 304 LINE",
"81 59 LINE",
"141 0 LINE"
);
},
{
closed = 1;
nodes = (
"135 74 LINE",
"135 116 LINE",
"161 140 LINE",
"197 140 LINE",
"223 116 LINE",
"223 74 LINE",
"197 50 LINE",
"161 50 LINE"
);
}
);
width = 589;
}
);
note = uni0E16;
unicode = 0E16;
},
{
glyphname = "phoSamphao-thai";
lastChange = "2018-05-14 14:30:39 +0000";
layers = (
{
anchors = (
{
name = bottom;
position = "{522, 0}";
},
{
name = top;
position = "{522, 498}";
}
);
background = {
paths = (
{
closed = 1;
nodes = (
"150 0 LINE",
"198 48 LINE",
"198 304 LINE",
"249 388 LINE",
"153 473 LINE",
"204 522 LINE",
"431 522 LINE",
"484 469 LINE",
"484 0 LINE",
"522 0 LINE",
"522 487 LINE",
"451 558 LINE",
"191 558 LINE",
"106 473 LINE",
"204 388 LINE",
"160 314 LINE",
"160 181 LINE",
"162 139 LINE",
"142 156 LINE",
"88 156 LINE",
"40 108 LINE",
"40 48 LINE",
"88 0 LINE"
);
},
{
closed = 1;
nodes = (
"74 58 LINE",
"74 98 LINE",
"100 124 LINE",
"138 124 LINE",
"164 98 LINE",
"164 58 LINE",
"138 32 LINE",
"100 32 LINE"
);
}
);
};
layerId = "39D11A97-A6D9-4B52-A6F5-15D5E4373676";
paths = (
{
closed = 1;
nodes = (
"150 0 LINE",
"198 48 LINE",
"198 304 LINE",
"249 388 LINE",
"153 473 LINE",
"204 522 LINE",
"432 522 LINE",
"484 470 LINE",
"484 0 LINE",
"522 0 LINE",
"522 487 LINE",
"451 558 LINE",
"191 558 LINE",
"106 473 LINE",
"204 388 LINE",
"160 314 LINE",
"160 181 LINE",
"162 139 LINE",
"142 156 LINE",
"88 156 LINE",
"40 108 LINE",
"40 48 LINE",
"88 0 LINE"
);
},
{
closed = 1;
nodes = (
"74 58 LINE",
"74 98 LINE",
"100 124 LINE",
"138 124 LINE",
"164 98 LINE",
"164 58 LINE",
"138 32 LINE",
"100 32 LINE"
);
}
);
width = 612;
},
{
anchors = (
{
name = bottom;
position = "{572, 0}";
},
{
name = top;
position = "{572, 498}";
}
);
background = {
paths = (
{
closed = 1;
nodes = (
"187 0 LINE",
"254 68 LINE",
"254 265 LINE",
"296 343 LINE",
"202 425 LINE",
"221 444 LINE",
"412 444 LINE",
"438 417 LINE",
"438 0 LINE",
"572 0 LINE",
"572 461 LINE",
"476 558 LINE",
"174 558 LINE",
"48 431 LINE",
"154 340 LINE",
"122 284 LINE",
"122 242 LINE",
"126 226 LINE",
"113 226 LINE",
"80 226 LINE",
"15 161 LINE",
"15 67 LINE",
"84 0 LINE"
);
},
{
closed = 1;
nodes = (
"97 97 LINE",
"97 131 LINE",
"117 151 LINE",
"151 151 LINE",
"171 131 LINE",
"171 97 LINE",
"151 77 LINE",
"117 77 LINE"
);
}
);
};
layerId = "D6105F7E-CAE1-4F7B-A52E-8AA6E6082DF8";
paths = (
{
closed = 1;
nodes = (
"187 0 LINE",
"254 68 LINE",
"254 265 LINE",
"296 343 LINE",
"202 425 LINE",
"221 444 LINE",
"412 444 LINE",
"438 417 LINE",
"438 0 LINE",
"572 0 LINE",
"572 461 LINE",
"476 558 LINE",
"174 558 LINE",
"48 431 LINE",
"154 340 LINE",
"122 284 LINE",
"122 242 LINE",
"126 226 LINE",
"113 226 LINE",
"80 226 LINE",
"15 161 LINE",
"15 67 LINE",
"84 0 LINE"
);
},
{
closed = 1;
nodes = (
"97 97 LINE",
"97 131 LINE",
"117 151 LINE",
"151 151 LINE",
"171 131 LINE",
"171 97 LINE",
"151 77 LINE",
"117 77 LINE"
);
}
);
width = 637;
},
{
anchors = (
{
name = bottom;
position = "{543, 0}";
},
{
name = top;
position = "{543, 498}";
}
);
layerId = "3C986DA2-2E28-42A4-B05D-29F449A87569";
paths = (
{
closed = 1;
nodes = (
"160 0 LINE",
"220 59 LINE",
"220 284 LINE",
"268 371 LINE",
"172 457 LINE",
"209 490 LINE",
"426 490 LINE",
"469 447 LINE",
"469 0 LINE",
"543 0 LINE",
"543 477 LINE",
"462 558 LINE",
"185 558 LINE",
"84 457 LINE",
"187 371 LINE",
"146 304 LINE",
"146 226 LINE",
"151 188 LINE",
"141 188 LINE",
"90 188 LINE",
"30 131 LINE",
"30 59 LINE",
"90 0 LINE"
);
},
{
closed = 1;
nodes = (
"82 73 LINE",
"82 115 LINE",
"107 139 LINE",
"143 139 LINE",
"168 115 LINE",
"168 73 LINE",
"143 49 LINE",
"107 49 LINE"
);
}
);
width = 623;
}
);
note = uni0E20;
unicode = 0E20;
},
